<svg width="17" height="14" viewBox="0 0 17 14" fill="none" xmlns="http://www.w3.org/2000/svg">
<path fill-rule="evenodd" clip-rule="evenodd" d="M3.375 10.125H0.84375V12.6562H3.375V10.125ZM0.84375 9.28125C0.619974 9.28125 0.405362 9.37014 0.247129 9.52838C0.0888948 9.68661 0 9.90122 0 10.125V12.6562C0 12.88 0.0888948 13.0946 0.247129 13.2529C0.405362 13.4111 0.619974 13.5 0.84375 13.5H3.375C3.59878 13.5 3.81339 13.4111 3.97162 13.2529C4.12986 13.0946 4.21875 12.88 4.21875 12.6562V10.125C4.21875 9.90122 4.12986 9.68661 3.97162 9.52838C3.81339 9.37014 3.59878 9.28125 3.375 9.28125H0.84375ZM9.28125 10.125H6.75V12.6562H9.28125V10.125ZM6.75 9.28125C6.52622 9.28125 6.31161 9.37014 6.15338 9.52838C5.99514 9.68661 5.90625 9.90122 5.90625 10.125V12.6562C5.90625 12.88 5.99514 13.0946 6.15338 13.2529C6.31161 13.4111 6.52622 13.5 6.75 13.5H9.28125C9.50503 13.5 9.71964 13.4111 9.87787 13.2529C10.0361 13.0946 10.125 12.88 10.125 12.6562V10.125C10.125 9.90122 10.0361 9.68661 9.87787 9.52838C9.71964 9.37014 9.50503 9.28125 9.28125 9.28125H6.75ZM9.28125 0.84375H6.75V3.375H9.28125V0.84375ZM6.75 0C6.52622 0 6.31161 0.088895 6.15338 0.247129C5.99514 0.405363 5.90625 0.619974 5.90625 0.84375V3.375C5.90625 3.59878 5.99514 3.81339 6.15338 3.97162C6.31161 4.12986 6.52622 4.21875 6.75 4.21875H9.28125C9.50503 4.21875 9.71964 4.12986 9.87787 3.97162C10.0361 3.81339 10.125 3.59878 10.125 3.375V0.84375C10.125 0.619974 10.0361 0.405363 9.87787 0.247129C9.71964 0.088895 9.50503 0 9.28125 0H6.75ZM15.1875 10.125H12.6562V12.6562H15.1875V10.125ZM12.6562 9.28125C12.4325 9.28125 12.2179 9.37014 12.0596 9.52838C11.9014 9.68661 11.8125 9.90122 11.8125 10.125V12.6562C11.8125 12.88 11.9014 13.0946 12.0596 13.2529C12.2179 13.4111 12.4325 13.5 12.6562 13.5H15.1875C15.4113 13.5 15.6259 13.4111 15.7841 13.2529C15.9424 13.0946 16.0312 12.88 16.0312 12.6562V10.125C16.0312 9.90122 15.9424 9.68661 15.7841 9.52838C15.6259 9.37014 15.4113 9.28125 15.1875 9.28125H12.6562ZM7.59375 6.32812V4.21875H8.4375V6.32812H13.5C13.7238 6.32812 13.9384 6.41702 14.0966 6.57525C14.2549 6.73349 14.3438 6.9481 14.3438 7.17188V9.28125H13.5V7.17188H8.4375V9.28125H7.59375V7.17188H2.53125V9.28125H1.6875V7.17188C1.6875 6.9481 1.77639 6.73349 1.93463 6.57525C2.09286 6.41702 2.30747 6.32812 2.53125 6.32812H7.59375Z" fill="#07485E"/>
</svg>
