<svg width="11" height="13" viewBox="0 0 11 13" fill="none" xmlns="http://www.w3.org/2000/svg">
<path d="M6.30438 0H1.375C0.61875 0 0 0.585 0 1.3V11.7C0 12.415 0.61875 13 1.375 13H9.625C10.3813 13 11 12.415 11 11.7V4.4395C11 4.095 10.8556 3.7635 10.5944 3.523L7.27375 0.3835C7.01937 0.1365 6.66875 0 6.30438 0ZM8.25 8.45C8.25 9.971 6.86812 11.1865 5.23187 11.037C3.80187 10.907 2.75 9.698 2.75 8.3395V4.966C2.75 4.1145 3.39625 3.341 4.29 3.2565C5.32125 3.159 6.1875 3.9195 6.1875 4.875V7.8C6.1875 8.1575 5.87813 8.45 5.5 8.45C5.12187 8.45 4.8125 8.1575 4.8125 7.8V4.875C4.8125 4.693 4.66125 4.55 4.46875 4.55C4.27625 4.55 4.125 4.693 4.125 4.875V8.3785C4.125 9.0285 4.5925 9.6265 5.26625 9.7305C6.1325 9.867 6.875 9.2365 6.875 8.45V6.5C6.875 6.1425 7.18437 5.85 7.5625 5.85C7.94063 5.85 8.25 6.1425 8.25 6.5V8.45ZM6.875 3.25V1.3L9.625 3.9H7.5625C7.18437 3.9 6.875 3.6075 6.875 3.25Z" fill="#A855F7"/>
</svg>
