<svg width="13" height="14" viewBox="0 0 13 14" fill="none" xmlns="http://www.w3.org/2000/svg">
<path fill-rule="evenodd" clip-rule="evenodd" d="M6.48228 11.4738C5.33478 12.595 3.47028 12.5958 2.32578 11.4768C2.05445 11.2129 1.8388 10.8974 1.69159 10.5487C1.54438 10.2001 1.4686 9.82541 1.46874 9.44696C1.46888 9.0685 1.54494 8.69392 1.6924 8.34537C1.83987 7.99683 2.05576 7.68141 2.32728 7.41777L7.68753 2.17902C8.01162 1.86257 8.44649 1.68523 8.89945 1.68481C9.35241 1.68439 9.78762 1.86092 10.1123 2.17677C10.782 2.83152 10.7835 3.88827 10.1153 4.54152L5.08804 9.45402C4.99571 9.54292 4.87222 9.59208 4.74406 9.59096C4.6159 9.58983 4.49329 9.53852 4.40253 9.44802C4.35645 9.40455 4.31974 9.35213 4.29465 9.29396C4.26956 9.2358 4.25661 9.17312 4.25661 9.10977C4.25661 9.04643 4.26956 8.98375 4.29465 8.92558C4.31974 8.86742 4.35645 8.81499 4.40253 8.77152L9.07428 4.20627C9.14235 4.14046 9.19648 4.06162 9.23345 3.97446C9.27042 3.88729 9.28947 3.79358 9.28947 3.6989C9.28947 3.60422 9.27042 3.5105 9.23345 3.42334C9.19648 3.33617 9.14235 3.25734 9.07428 3.19152C8.9351 3.05681 8.74899 2.98149 8.55528 2.98149C8.36158 2.98149 8.17547 3.05681 8.03628 3.19152L3.36378 7.75677C3.18169 7.93186 3.03683 8.14192 2.93788 8.37434C2.83893 8.60677 2.78792 8.85678 2.78792 9.1094C2.78792 9.36201 2.83893 9.61202 2.93788 9.84445C3.03683 10.0769 3.18169 10.2869 3.36378 10.462C3.73286 10.8223 4.2278 11.0245 4.74354 11.0257C5.25928 11.027 5.75521 10.8272 6.12603 10.4688L11.1533 5.55627C11.448 5.27118 11.6823 4.92968 11.8422 4.55213C12.0022 4.17458 12.0845 3.7687 12.0843 3.35867C12.0841 2.94864 12.0013 2.54284 11.841 2.16546C11.6807 1.78807 11.446 1.44682 11.151 1.16202C10.548 0.576521 9.74037 0.249214 8.89983 0.249634C8.05929 0.250054 7.25202 0.578168 6.64953 1.16427L1.28853 6.40302C0.880921 6.79833 0.556836 7.27147 0.335497 7.79437C0.114157 8.31727 6.99778e-05 8.8793 3.21817e-08 9.44711C-6.99135e-05 10.0149 0.113879 10.577 0.33509 11.0999C0.5563 11.6229 0.880269 12.0961 1.28778 12.4915C3.00528 14.1708 5.79903 14.17 7.52028 12.4878L12.5348 7.58802C12.6029 7.52221 12.657 7.44337 12.6939 7.35621C12.7309 7.26904 12.75 7.17533 12.75 7.08065C12.75 6.98597 12.7309 6.89225 12.6939 6.80509C12.657 6.71792 12.6029 6.63909 12.5348 6.57327C12.3956 6.43856 12.2095 6.36324 12.0158 6.36324C11.8221 6.36324 11.636 6.43856 11.4968 6.57327L6.48228 11.4738Z" fill="#07485E"/>
</svg>
