<svg width="52" height="52" viewBox="0 0 52 52" fill="none" xmlns="http://www.w3.org/2000/svg">
<circle opacity="0.2" cx="26" cy="26" r="26" fill="#2C81E7"/>
<g clip-path="url(#clip0_104_3423)">
<path d="M32.7244 17.7831H31.3519C31.3519 15.6387 28.9506 13.8942 25.9989 13.8942C23.0473 13.8942 20.646 15.6388 20.646 17.7831H19.2734C19.2734 16.3411 19.9982 14.9979 21.3141 14.0009C22.5733 13.047 24.2371 12.5216 25.9989 12.5216C27.7608 12.5216 29.4245 13.047 30.6837 14.0009C31.9997 14.9978 32.7244 16.341 32.7244 17.7831Z" fill="url(#paint0_linear_104_3423)"/>
<path d="M30.6828 14.0008C30.0446 13.5174 29.3022 13.1445 28.4961 12.8938V14.3444C30.1925 14.9975 31.351 16.2937 31.351 17.783H32.7235C32.7235 16.341 31.9988 14.9978 30.6828 14.0008Z" fill="url(#paint1_linear_104_3423)"/>
<path d="M21.7132 16.9526L21.5233 16.8774C20.8137 16.5964 20.0236 16.5964 19.314 16.8774L19.1241 16.9526C18.9608 17.0173 18.8206 17.1296 18.7219 17.2749C18.6231 17.4203 18.5703 17.5919 18.5703 17.7676V19.6627C18.5703 20.1468 18.9628 20.5393 19.4469 20.5393H21.3905C21.8746 20.5393 22.267 20.1468 22.267 19.6627V17.7676C22.267 17.5919 22.2142 17.4203 22.1154 17.2749C22.0167 17.1296 21.8765 17.0173 21.7132 16.9526Z" fill="url(#paint2_linear_104_3423)"/>
<path d="M32.8773 16.9526L32.6874 16.8774C31.9778 16.5964 31.1877 16.5964 30.4781 16.8774L30.2882 16.9526C30.1249 17.0173 29.9847 17.1296 29.8859 17.2749C29.7872 17.4203 29.7344 17.5919 29.7344 17.7676V19.6628C29.7344 20.1469 30.1268 20.5393 30.6109 20.5393H32.5545C33.0387 20.5393 33.4311 20.1469 33.4311 19.6628V17.7676C33.4311 17.5919 33.3783 17.4203 33.2796 17.2749C33.1808 17.1296 33.0407 17.0173 32.8773 16.9526Z" fill="url(#paint3_linear_104_3423)"/>
<path d="M18.2377 40H17.0354C16.6598 40 16.3555 39.6956 16.3555 39.3201V38.2432H18.9176V39.3201C18.9176 39.6956 18.6131 40 18.2377 40Z" fill="url(#paint4_linear_104_3423)"/>
<path d="M34.9642 40H33.7619C33.3865 40 33.082 39.6956 33.082 39.3201V38.2432H35.6441V39.3201C35.6441 39.6956 35.3397 40 34.9642 40Z" fill="url(#paint5_linear_104_3423)"/>
<path d="M36.5077 39.1768H15.493C13.8443 39.1768 12.5078 37.8402 12.5078 36.1916V22.0673C12.5078 20.4186 13.8443 19.0822 15.493 19.0822H36.5078C38.1565 19.0822 39.493 20.4187 39.493 22.0673V36.1915C39.493 37.8402 38.1564 39.1768 36.5077 39.1768Z" fill="url(#paint6_linear_104_3423)"/>
<path d="M39.4917 28.3375C38.7444 29.0848 37.7309 29.5046 36.674 29.5046H13.0742L22.7464 39.1768H36.5064C38.1551 39.1768 39.4916 37.8402 39.4916 36.1916V28.3375H39.4917Z" fill="url(#paint7_linear_104_3423)"/>
<path d="M37.5162 30.0521L27.0191 30.9626C26.341 31.0214 25.659 31.0214 24.9808 30.9626L14.4838 30.0521C13.0787 29.9302 12 28.7539 12 27.3434V21.046C12 19.3973 13.3365 18.0608 14.9852 18.0608H37.0148C38.6635 18.0608 39.9999 19.3973 39.9999 21.046V27.3435C40 28.7539 38.9213 29.9302 37.5162 30.0521Z" fill="url(#paint8_linear_104_3423)"/>
<path d="M12 22.9203V27.3434C12 28.7538 13.0787 29.9301 14.4838 30.052L24.9808 30.9625C25.659 31.0213 26.341 31.0213 27.0191 30.9625L37.5161 30.052C38.9213 29.9301 40 28.7538 40 27.3434V22.9203L12 22.9203Z" fill="url(#paint9_linear_104_3423)"/>
<path d="M12.5078 32.2588V36.1915C12.5078 37.8402 13.8443 39.1767 15.493 39.1767H36.5078C38.1565 39.1767 39.493 37.8402 39.493 36.1915V32.2588H12.5078Z" fill="url(#paint10_linear_104_3423)"/>
<path d="M39.4909 31.9266V36.1914C39.4909 36.9853 39.1807 37.7073 38.6751 38.242L32.5167 32.0837C32.2823 31.9744 32.1198 31.7372 32.1198 31.4611V30.8259C32.0303 30.7439 31.9589 30.6442 31.91 30.5332C31.8611 30.4221 31.8359 30.3021 31.8359 30.1808V28.2855C31.8359 27.8013 32.2285 27.4093 32.7127 27.4093H34.6563C34.9835 27.4093 35.2684 27.5888 35.4188 27.8546L39.4909 31.9266Z" fill="url(#paint11_linear_104_3423)"/>
<path d="M31.479 39.1764H24.3472L17.255 32.0837C17.0206 31.9744 16.8581 31.7372 16.8581 31.4611V30.8258C16.7686 30.7439 16.6971 30.6442 16.6483 30.5332C16.5994 30.4221 16.5742 30.3021 16.5742 30.1808V28.2855C16.5742 27.8013 16.9668 27.4093 17.451 27.4093H19.3945C19.7217 27.4093 20.0067 27.5888 20.1571 27.8546L31.479 39.1764Z" fill="url(#paint12_linear_104_3423)"/>
<path d="M19.2464 32.0941H17.4923C17.1125 32.0941 16.8047 31.7862 16.8047 31.4065V30.2823H19.9341V31.4065C19.934 31.7862 19.6262 32.0941 19.2464 32.0941Z" fill="url(#paint13_linear_104_3423)"/>
<path d="M19.6624 30.9409L19.4726 31.0161C18.763 31.2971 17.9729 31.2971 17.2632 31.0161L17.0733 30.9409C16.91 30.8762 16.7698 30.7639 16.6711 30.6186C16.5723 30.4733 16.5195 30.3016 16.5195 30.1259V28.2308C16.5195 27.7467 16.912 27.3542 17.3961 27.3542H19.3397C19.8238 27.3542 20.2162 27.7467 20.2162 28.2308V30.1259C20.2163 30.3016 20.1635 30.4733 20.0647 30.6186C19.966 30.7639 19.8258 30.8762 19.6624 30.9409Z" fill="url(#paint14_linear_104_3423)"/>
<path d="M34.5081 32.0941H32.7541C32.3742 32.0941 32.0664 31.7862 32.0664 31.4065V30.2823H35.1958V31.4065C35.1958 31.7862 34.8879 32.0941 34.5081 32.0941Z" fill="url(#paint15_linear_104_3423)"/>
<path d="M34.9241 30.9409L34.7343 31.0161C34.0246 31.2971 33.2345 31.2971 32.5249 31.0161L32.335 30.9409C32.1717 30.8762 32.0316 30.7639 31.9328 30.6186C31.8341 30.4733 31.7813 30.3016 31.7812 30.1259V28.2308C31.7812 27.7467 32.1737 27.3542 32.6578 27.3542H34.6014C35.0855 27.3542 35.478 27.7467 35.478 28.2308V30.1259C35.478 30.3016 35.4251 30.4733 35.3264 30.6186C35.2276 30.7639 35.0875 30.8762 34.9241 30.9409Z" fill="url(#paint16_linear_104_3423)"/>
<path d="M35.2705 30.2468C31.741 26.6858 28.8154 23.7312 28.7968 23.7032C28.7561 23.6418 28.7008 23.5915 28.6359 23.5566C28.571 23.5218 28.4985 23.5036 28.4248 23.5037H23.6846C23.626 23.5037 23.5679 23.5152 23.5138 23.5376C23.4596 23.56 23.4104 23.5929 23.369 23.6344C23.3275 23.6758 23.2947 23.725 23.2722 23.7792C23.2498 23.8333 23.2383 23.8913 23.2383 23.95V24.6968C23.2383 24.82 23.2882 24.9316 23.369 25.0124C23.3947 25.0381 25.8463 27.471 29.1763 30.7754L35.2705 30.2468Z" fill="url(#paint17_linear_104_3423)"/>
<path d="M28.3701 25.0591H23.6299C23.5713 25.0591 23.5132 25.0476 23.4591 25.0251C23.4049 25.0027 23.3557 24.9698 23.3143 24.9284C23.2729 24.887 23.24 24.8378 23.2176 24.7836C23.1951 24.7295 23.1836 24.6714 23.1836 24.6128V23.866C23.1836 23.6195 23.3834 23.4197 23.6299 23.4197H28.3702C28.6167 23.4197 28.8165 23.6195 28.8165 23.866V24.6128C28.8165 24.7312 28.7694 24.8447 28.6857 24.9284C28.602 25.0121 28.4885 25.0591 28.3701 25.0591Z" fill="url(#paint18_linear_104_3423)"/>
<path d="M29.3689 15.4243C27.1372 14.4608 24.8599 14.4618 22.6303 15.4243C22.2713 15.5793 21.8532 15.4425 21.6594 15.1028L21.0731 14.0749C20.8478 13.6799 21.0161 13.1792 21.4318 12.9946C24.4179 11.6685 27.5808 11.6684 30.5675 12.9946C30.9832 13.1792 31.1514 13.6798 30.9261 14.0749L30.3398 15.1028C30.146 15.4424 29.728 15.5793 29.3689 15.4243Z" fill="url(#paint19_linear_104_3423)"/>
</g>
<defs>
<linearGradient id="paint0_linear_104_3423" x1="25.9989" y1="12.5216" x2="25.9989" y2="17.7831" gradientUnits="userSpaceOnUse">
<stop stop-color="#E6EEFF"/>
<stop offset="1" stop-color="#BAC8FA"/>
</linearGradient>
<linearGradient id="paint1_linear_104_3423" x1="31.9198" y1="16.6986" x2="30.6571" y2="15.5456" gradientUnits="userSpaceOnUse">
<stop stop-color="#A7B7F1" stop-opacity="0"/>
<stop offset="1" stop-color="#A7B7F1"/>
</linearGradient>
<linearGradient id="paint2_linear_104_3423" x1="20.4186" y1="17.2339" x2="20.4186" y2="18.371" gradientUnits="userSpaceOnUse">
<stop stop-color="#FEE45A"/>
<stop offset="1" stop-color="#FEA613"/>
</linearGradient>
<linearGradient id="paint3_linear_104_3423" x1="31.5828" y1="17.2339" x2="31.5828" y2="18.371" gradientUnits="userSpaceOnUse">
<stop stop-color="#FEE45A"/>
<stop offset="1" stop-color="#FEA613"/>
</linearGradient>
<linearGradient id="paint4_linear_104_3423" x1="17.6366" y1="38.9386" x2="17.6366" y2="39.7812" gradientUnits="userSpaceOnUse">
<stop stop-color="#5A5A5A"/>
<stop offset="1" stop-color="#444444"/>
</linearGradient>
<linearGradient id="paint5_linear_104_3423" x1="34.363" y1="38.9386" x2="34.363" y2="39.7812" gradientUnits="userSpaceOnUse">
<stop stop-color="#5A5A5A"/>
<stop offset="1" stop-color="#444444"/>
</linearGradient>
<linearGradient id="paint6_linear_104_3423" x1="21.9846" y1="23.9347" x2="33.9532" y2="39.4171" gradientUnits="userSpaceOnUse">
<stop stop-color="#C86D36"/>
<stop offset="1" stop-color="#883F2E"/>
</linearGradient>
<linearGradient id="paint7_linear_104_3423" x1="26.283" y1="36.2941" x2="26.283" y2="30.4947" gradientUnits="userSpaceOnUse">
<stop stop-color="#883F2E" stop-opacity="0"/>
<stop offset="1" stop-color="#6D3326"/>
</linearGradient>
<linearGradient id="paint8_linear_104_3423" x1="20.431" y1="20.7604" x2="34.2663" y2="29.1055" gradientUnits="userSpaceOnUse">
<stop stop-color="#C86D36"/>
<stop offset="1" stop-color="#883F2E"/>
</linearGradient>
<linearGradient id="paint9_linear_104_3423" x1="26" y1="25.396" x2="26" y2="31.988" gradientUnits="userSpaceOnUse">
<stop stop-color="#883F2E" stop-opacity="0"/>
<stop offset="1" stop-color="#6D3326"/>
</linearGradient>
<linearGradient id="paint10_linear_104_3423" x1="26.0004" y1="35.8823" x2="26.0004" y2="39.2533" gradientUnits="userSpaceOnUse">
<stop stop-color="#883F2E" stop-opacity="0"/>
<stop offset="1" stop-color="#6D3326"/>
</linearGradient>
<linearGradient id="paint11_linear_104_3423" x1="40.5785" y1="34.7465" x2="34.2647" y2="31.5621" gradientUnits="userSpaceOnUse">
<stop stop-color="#883F2E" stop-opacity="0"/>
<stop offset="1" stop-color="#6D3326"/>
</linearGradient>
<linearGradient id="paint12_linear_104_3423" x1="24.3181" y1="34.8802" x2="15.2044" y2="28.6214" gradientUnits="userSpaceOnUse">
<stop stop-color="#883F2E" stop-opacity="0"/>
<stop offset="1" stop-color="#6D3326"/>
</linearGradient>
<linearGradient id="paint13_linear_104_3423" x1="18.3693" y1="31.1425" x2="18.3693" y2="31.9845" gradientUnits="userSpaceOnUse">
<stop stop-color="#FEE45A"/>
<stop offset="1" stop-color="#FEA613"/>
</linearGradient>
<linearGradient id="paint14_linear_104_3423" x1="17.9281" y1="28.2665" x2="18.9346" y2="30.3528" gradientUnits="userSpaceOnUse">
<stop stop-color="#FEE45A"/>
<stop offset="1" stop-color="#FEA613"/>
</linearGradient>
<linearGradient id="paint15_linear_104_3423" x1="33.6311" y1="31.1425" x2="33.6311" y2="31.9845" gradientUnits="userSpaceOnUse">
<stop stop-color="#FEE45A"/>
<stop offset="1" stop-color="#FEA613"/>
</linearGradient>
<linearGradient id="paint16_linear_104_3423" x1="33.1898" y1="28.2665" x2="34.1963" y2="30.3528" gradientUnits="userSpaceOnUse">
<stop stop-color="#FEE45A"/>
<stop offset="1" stop-color="#FEA613"/>
</linearGradient>
<linearGradient id="paint17_linear_104_3423" x1="30.78" y1="30.0026" x2="26.3329" y2="22.8105" gradientUnits="userSpaceOnUse">
<stop stop-color="#883F2E" stop-opacity="0"/>
<stop offset="1" stop-color="#6D3326"/>
</linearGradient>
<linearGradient id="paint18_linear_104_3423" x1="26" y1="23.819" x2="26" y2="24.961" gradientUnits="userSpaceOnUse">
<stop stop-color="#E6EEFF"/>
<stop offset="1" stop-color="#BAC8FA"/>
</linearGradient>
<linearGradient id="paint19_linear_104_3423" x1="25.9996" y1="12.511" x2="25.9996" y2="13.5349" gradientUnits="userSpaceOnUse">
<stop stop-color="#5A5A5A"/>
<stop offset="1" stop-color="#444444"/>
</linearGradient>
<clipPath id="clip0_104_3423">
<rect width="28" height="28" fill="white" transform="translate(12 12)"/>
</clipPath>
</defs>
</svg>
