<svg width="17" height="17" viewBox="0 0 17 17" fill="none" xmlns="http://www.w3.org/2000/svg">
<path d="M16.4137 2.30361V4.68946H0V2.30361C0.00602772 1.84283 0.194551 1.40324 0.524226 1.08126C0.8539 0.759278 1.29781 0.581183 1.75861 0.586034H2.93102V1.75844C2.93102 2.22485 3.1163 2.67216 3.4461 3.00197C3.77591 3.33177 4.22322 3.51705 4.68963 3.51705C5.15604 3.51705 5.60335 3.33177 5.93315 3.00197C6.26296 2.67216 6.44824 2.22485 6.44824 1.75844V0.586034H9.96546V1.75844C9.96546 2.22485 10.1507 2.67216 10.4805 3.00197C10.8103 3.33177 11.2577 3.51705 11.7241 3.51705C12.1905 3.51705 12.6378 3.33177 12.9676 3.00197C13.2974 2.67216 13.4827 2.22485 13.4827 1.75844V0.586034H14.6551C15.1159 0.581183 15.5598 0.759278 15.8895 1.08126C16.2191 1.40324 16.4077 1.84283 16.4137 2.30361ZM0 5.86187V15.2822C0.00602772 15.7429 0.194551 16.1825 0.524226 16.5045C0.8539 16.8265 1.29781 17.0046 1.75861 16.9997H14.6551C15.1159 17.0046 15.5598 16.8265 15.8895 16.5045C16.2191 16.1825 16.4077 15.7429 16.4137 15.2822V5.86187H0ZM5.27583 14.0687C5.27537 14.224 5.21346 14.3729 5.10362 14.4827C4.99379 14.5925 4.84496 14.6545 4.68963 14.6549H3.51722C3.36189 14.6545 3.21306 14.5925 3.10323 14.4827C2.99339 14.3729 2.93148 14.224 2.93102 14.0687V12.8963C2.93148 12.741 2.99339 12.5921 3.10323 12.4823C3.21306 12.3725 3.36189 12.3106 3.51722 12.3101H4.68963C4.84496 12.3106 4.99379 12.3725 5.10362 12.4823C5.21346 12.5921 5.27537 12.741 5.27583 12.8963V14.0687ZM5.27583 9.96529C5.27537 10.1206 5.21346 10.2695 5.10362 10.3793C4.99379 10.4891 4.84496 10.551 4.68963 10.5515H3.51722C3.36189 10.551 3.21306 10.4891 3.10323 10.3793C2.99339 10.2695 2.93148 10.1206 2.93102 9.96529V8.79288C2.93148 8.63756 2.99339 8.48872 3.10323 8.37889C3.21306 8.26905 3.36189 8.20714 3.51722 8.20668H4.68963C4.84496 8.20714 4.99379 8.26905 5.10362 8.37889C5.21346 8.48872 5.27537 8.63756 5.27583 8.79288V9.96529ZM9.37926 14.0687C9.37879 14.224 9.31688 14.3729 9.20705 14.4827C9.09722 14.5925 8.94838 14.6545 8.79305 14.6549H7.62065C7.46532 14.6545 7.31648 14.5925 7.20665 14.4827C7.09682 14.3729 7.03491 14.224 7.03444 14.0687V12.8963C7.03491 12.741 7.09682 12.5921 7.20665 12.4823C7.31648 12.3725 7.46532 12.3106 7.62065 12.3101H8.79305C8.94838 12.3106 9.09722 12.3725 9.20705 12.4823C9.31688 12.5921 9.37879 12.741 9.37926 12.8963V14.0687ZM9.37926 9.96529C9.37879 10.1206 9.31688 10.2695 9.20705 10.3793C9.09722 10.4891 8.94838 10.551 8.79305 10.5515H7.62065C7.46532 10.551 7.31648 10.4891 7.20665 10.3793C7.09682 10.2695 7.03491 10.1206 7.03444 9.96529V8.79288C7.03491 8.63756 7.09682 8.48872 7.20665 8.37889C7.31648 8.26905 7.46532 8.20714 7.62065 8.20668H8.79305C8.94838 8.20714 9.09722 8.26905 9.20705 8.37889C9.31688 8.48872 9.37879 8.63756 9.37926 8.79288V9.96529ZM13.4827 9.96529C13.4822 10.1206 13.4203 10.2695 13.3105 10.3793C13.2006 10.4891 13.0518 10.551 12.8965 10.5515H11.7241C11.5687 10.551 11.4199 10.4891 11.3101 10.3793C11.2002 10.2695 11.1383 10.1206 11.1379 9.96529V8.79288C11.1383 8.63756 11.2002 8.48872 11.3101 8.37889C11.4199 8.26905 11.5687 8.20714 11.7241 8.20668H12.8965C13.0518 8.20714 13.2006 8.26905 13.3105 8.37889C13.4203 8.48872 13.4822 8.63756 13.4827 8.79288V9.96529Z" fill="#C4CAD3"/>
<path d="M5.27586 0.586204V1.75861C5.27586 1.91408 5.2141 2.06318 5.10417 2.17312C4.99423 2.28305 4.84513 2.34481 4.68966 2.34481C4.53419 2.34481 4.38508 2.28305 4.27515 2.17312C4.16522 2.06318 4.10345 1.91408 4.10345 1.75861V0.586204C4.10345 0.430733 4.16522 0.28163 4.27515 0.171695C4.38508 0.0617605 4.53419 0 4.68966 0C4.84513 0 4.99423 0.0617605 5.10417 0.171695C5.2141 0.28163 5.27586 0.430733 5.27586 0.586204ZM12.3103 0.586204V1.75861C12.3103 1.91408 12.2485 2.06318 12.1386 2.17312C12.0287 2.28305 11.8796 2.34481 11.7241 2.34481C11.5686 2.34481 11.4195 2.28305 11.3096 2.17312C11.1997 2.06318 11.1379 1.91408 11.1379 1.75861V0.586204C11.1379 0.430733 11.1997 0.28163 11.3096 0.171695C11.4195 0.0617605 11.5686 0 11.7241 0C11.8796 0 12.0287 0.0617605 12.1386 0.171695C12.2485 0.28163 12.3103 0.430733 12.3103 0.586204Z" fill="#C4CAD3"/>
</svg>
