<svg width="13" height="13" viewBox="0 0 13 13" fill="none" xmlns="http://www.w3.org/2000/svg">
<path d="M12.15 1.8609H10.5257C10.504 1.85337 10.4814 1.84848 10.4585 1.84623H8.72907V0.4119C8.72917 0.304109 8.68692 0.200623 8.6116 0.123636C8.53619 0.0466576 8.43368 0.00224862 8.32599 0H4.23591C4.12665 0 4.0219 0.0433322 3.94472 0.120604C3.86745 0.197876 3.82402 0.302634 3.82402 0.411898V1.84623H2.10338C2.08049 1.84848 2.05789 1.85337 2.03618 1.8609H0.411891C0.264681 1.8609 0.12871 1.93935 0.0551668 2.0668C-0.0183889 2.19425 -0.0183889 2.35123 0.0551668 2.47869C0.128723 2.60614 0.264684 2.68468 0.411891 2.68468H1.73522L2.80451 12.6319C2.81596 12.7332 2.86428 12.8266 2.94028 12.8946C3.01618 12.9624 3.11448 12.9999 3.2164 13H9.35126C9.45211 12.9985 9.54895 12.9603 9.62378 12.8926C9.69851 12.8248 9.74595 12.7322 9.75729 12.6319L10.8265 2.6992H12.1499C12.2971 2.6992 12.4331 2.62076 12.5066 2.4933C12.5802 2.36585 12.5802 2.20877 12.5066 2.08142C12.4331 1.95397 12.2971 1.87542 12.1499 1.87542L12.15 1.8609ZM4.65669 0.823786H7.90516V1.84623H4.65669V0.823786ZM8.97739 12.1703H3.58447L2.56202 2.6993H9.99973L8.97739 12.1703Z" fill="#5B6D74"/>
<path d="M6.27908 11.206C6.38833 11.206 6.49309 11.1626 6.57037 11.0854C6.64764 11.0081 6.69097 10.9034 6.69097 10.7941V4.07505C6.69097 3.92784 6.61253 3.79187 6.48507 3.71833C6.35762 3.64467 6.20054 3.64467 6.07309 3.71833C5.94564 3.79188 5.86719 3.92784 5.86719 4.07505V10.7941C5.86719 10.9034 5.91052 11.0081 5.98779 11.0854C6.06506 11.1626 6.16982 11.206 6.27909 11.206H6.27908Z" fill="#5B6D74"/>
<path d="M4.65659 11.2035H4.6741C4.78287 11.199 4.88538 11.1515 4.95933 11.0716C5.03318 10.9917 5.0725 10.8858 5.06849 10.777L4.82014 4.05793L4.82024 4.05783C4.81799 3.94779 4.77094 3.84333 4.68986 3.76879C4.60867 3.69436 4.50069 3.65631 4.39075 3.66345C4.28198 3.66805 4.17947 3.71548 4.10562 3.7954C4.03167 3.87531 3.99245 3.98124 3.99636 4.09002L4.24471 10.8091C4.24989 10.915 4.29547 11.015 4.37216 11.0883C4.44875 11.1616 4.55057 11.2029 4.65659 11.2035L4.65659 11.2035Z" fill="#5B6D74"/>
<path d="M7.89004 11.2035H7.90461C8.01319 11.2059 8.11834 11.1656 8.19756 11.0914C8.27669 11.0171 8.32364 10.9147 8.32824 10.8062L8.57659 4.08711H8.57649C8.5805 3.97834 8.54118 3.87241 8.46733 3.79249C8.39338 3.71257 8.29088 3.66514 8.1821 3.66054C8.07088 3.64909 7.95996 3.68499 7.87653 3.75952C7.7931 3.83396 7.74497 3.94019 7.74389 4.0521L7.49262 10.7712H7.49271C7.48714 10.8814 7.52607 10.9893 7.6008 11.0706C7.67543 11.1518 7.7797 11.1998 7.89004 11.2035L7.89004 11.2035Z" fill="#5B6D74"/>
</svg>
