<svg width="12" height="16" viewBox="0 0 12 16" fill="none" xmlns="http://www.w3.org/2000/svg">
<path d="M10.143 4.93934H8.60775C8.45857 4.93934 8.31549 4.99861 8.21 5.1041C8.10451 5.20959 8.04525 5.35266 8.04525 5.50184C8.04525 5.65103 8.10451 5.7941 8.21 5.89959C8.31549 6.00508 8.45857 6.06434 8.60775 6.06434H10.1434C10.4535 6.06434 10.7059 6.31672 10.7059 6.62684V13.9828C10.7059 14.293 10.4535 14.5453 10.1434 14.5453H1.6875C1.37738 14.5453 1.125 14.293 1.125 13.9828V6.62684C1.125 6.31672 1.37738 6.06434 1.6875 6.06434H3.22312C3.37231 6.06434 3.51538 6.00508 3.62087 5.89959C3.72636 5.7941 3.78562 5.65103 3.78562 5.50184C3.78562 5.35266 3.72636 5.20959 3.62087 5.1041C3.51538 4.99861 3.37231 4.93934 3.22312 4.93934H1.6875C1.2401 4.93984 0.811166 5.11779 0.494805 5.43415C0.178445 5.75051 0.000496285 6.17944 0 6.62684V13.9828C0 14.9132 0.757125 15.6703 1.6875 15.6703H10.1434C11.0738 15.6703 11.8309 14.9132 11.8309 13.9828V6.62684C11.8303 6.17941 11.6522 5.75048 11.3358 5.43413C11.0194 5.11778 10.5904 4.93984 10.143 4.93934ZM3.81788 3.80384L5.3715 2.25022V9.65572C5.3715 9.72959 5.38605 9.80273 5.41432 9.87098C5.44259 9.93922 5.48402 10.0012 5.53625 10.0535C5.58849 10.1057 5.6505 10.1471 5.71874 10.1754C5.78699 10.2037 5.86013 10.2182 5.934 10.2182C6.00787 10.2182 6.08101 10.2037 6.14926 10.1754C6.21751 10.1471 6.27952 10.1057 6.33175 10.0535C6.38398 10.0012 6.42541 9.93922 6.45368 9.87098C6.48195 9.80273 6.4965 9.72959 6.4965 9.65572V2.25022L8.05013 3.80384C8.16 3.91372 8.304 3.96847 8.448 3.96847C8.592 3.96847 8.736 3.91372 8.84588 3.80384C8.95133 3.69836 9.01057 3.55531 9.01057 3.40616C9.01057 3.257 8.95133 3.11395 8.84588 3.00847L6.33225 0.49447C6.28001 0.442199 6.21799 0.400733 6.14972 0.372442C6.08145 0.344151 6.00827 0.32959 5.93438 0.32959C5.86048 0.32959 5.7873 0.344151 5.71903 0.372442C5.65076 0.400733 5.58874 0.442199 5.5365 0.49447L3.0225 3.00847C2.96878 3.06036 2.92592 3.12243 2.89644 3.19105C2.86696 3.25968 2.85145 3.33349 2.8508 3.40818C2.85015 3.48287 2.86438 3.55694 2.89266 3.62607C2.92095 3.6952 2.96271 3.758 3.01553 3.81082C3.06834 3.86363 3.13115 3.9054 3.20028 3.93368C3.26941 3.96196 3.34348 3.9762 3.41816 3.97555C3.49285 3.9749 3.56666 3.95938 3.63529 3.9299C3.70392 3.90042 3.76599 3.85757 3.81788 3.80384Z" fill="white"/>
</svg>
