<svg width="16" height="10" viewBox="0 0 16 10" fill="none" xmlns="http://www.w3.org/2000/svg">
<path d="M0.635675 1.06854C0.258486 1.44573 0.258486 2.05727 0.635675 2.43446L7.00221 8.80099C7.13312 8.93196 7.28855 9.03589 7.45962 9.10682C7.6309 9.17784 7.81451 9.21439 7.99993 9.21439C8.18535 9.21439 8.36896 9.17784 8.54024 9.10682C8.71141 9.03584 8.86722 8.93148 8.99806 8.80058L15.3642 2.43446C15.7414 2.05727 15.7414 1.44573 15.3642 1.06854C14.987 0.691347 14.3755 0.691347 13.9983 1.06854L7.99993 7.06687L2.0016 1.06854C1.62441 0.691347 1.01286 0.691347 0.635675 1.06854Z" fill="#FCFCFD"/>
</svg>
