<svg width="10" height="10" viewBox="0 0 10 10" fill="none" xmlns="http://www.w3.org/2000/svg">
<g clip-path="url(#clip0_76_2425)">
<path d="M1.74367 6.26688L6.39555 1.615L8.38586 3.60531L3.73398 8.25719L1.74367 6.26688ZM6.60961 2.73688L6.39148 2.51906L2.64742 6.26281L2.86555 6.48094L6.60961 2.73688ZM7.04586 3.17313L6.82773 2.955L3.08367 6.69938L3.30148 6.91719L7.04586 3.17313ZM7.48211 3.60938L7.26398 3.39125L3.51992 7.13531L3.73805 7.35344L7.48211 3.60938ZM7.28648 0.736251C7.53055 0.491564 7.92555 0.490001 8.16773 0.732189L9.26523 1.82969C9.50742 2.07188 9.50586 2.46656 9.26148 2.71094L8.58336 3.38906L6.60836 1.41406L7.28648 0.736251ZM1.59055 6.52594L3.47492 8.41031L1.82367 8.99688L1.00398 8.17719L1.59055 6.52594ZM1.51086 9.09906L0.552734 9.44813L0.901797 8.49L1.51086 9.09906Z" fill="#00BAFF"/>
</g>
<defs>
<clipPath id="clip0_76_2425">
<rect width="10" height="10" fill="white"/>
</clipPath>
</defs>
</svg>
