<svg width="12" height="12" viewBox="0 0 12 12" fill="none" xmlns="http://www.w3.org/2000/svg">
<path d="M2.09319 7.52028L7.67544 1.93803L10.0638 4.3264L4.48156 9.90865L2.09319 7.52028ZM7.93231 3.28428L7.67056 3.0229L3.17769 7.5154L3.43944 7.77715L7.93231 3.28428ZM8.45581 3.80778L8.19406 3.54603L3.70119 8.03928L3.96256 8.30065L8.45581 3.80778ZM8.97931 4.33128L8.71756 4.06953L4.22469 8.5624L4.48644 8.82415L8.97931 4.33128ZM8.74456 0.883526C9.03744 0.589901 9.51144 0.588026 9.80206 0.878651L11.1191 2.19565C11.4097 2.48628 11.4078 2.9599 11.1146 3.25315L10.3008 4.0669L7.93081 1.6969L8.74456 0.883526ZM1.90944 7.83115L4.17069 10.0924L2.18919 10.7963L1.20556 9.81265L1.90944 7.83115ZM1.81381 10.9189L0.664062 11.3378L1.08294 10.188L1.81381 10.9189Z" fill="#5B6D74"/>
</svg>
