<svg width="14" height="18" viewBox="0 0 14 18" fill="none" xmlns="http://www.w3.org/2000/svg">
<path d="M8.00002 3.49095V13C8.00002 13.2652 7.89467 13.5195 7.70713 13.7071C7.5196 13.8946 7.26524 14 7.00002 14C6.73481 14 6.48045 13.8946 6.29292 13.7071C6.10538 13.5195 6.00002 13.2652 6.00002 13V3.49095L4.78403 4.69695C4.58727 4.89152 4.32173 5.00064 4.04502 5.00064C3.76832 5.00064 3.50278 4.89152 3.30602 4.69695C3.209 4.60123 3.13196 4.48718 3.07938 4.36143C3.0268 4.23569 2.99972 4.10075 2.99972 3.96445C2.99972 3.82815 3.0268 3.69322 3.07938 3.56747C3.13196 3.44172 3.209 3.32768 3.30602 3.23195L6.26102 0.302952C6.45778 0.10839 6.72332 -0.000732422 7.00002 -0.000732422C7.27673 -0.000732422 7.54227 0.10839 7.73903 0.302952L10.694 3.23295C11.102 3.63695 11.102 4.29295 10.694 4.69695C10.4973 4.89152 10.2317 5.00064 9.95502 5.00064C9.67832 5.00064 9.41278 4.89152 9.21602 4.69695L8.00002 3.48995V3.49095ZM4.00002 5.99995V7.99995H2.00003C1.99803 7.99995 2.00003 15.991 2.00003 15.991C2.00003 15.995 11.994 16 11.994 16C11.997 16 12 8.00895 12 8.00895C12 8.00295 10 7.99995 10 7.99995V5.99995H12C13.105 5.99995 14 6.90195 14 8.00895V15.991C14 17.101 13.103 18 11.994 18H2.00603C1.47373 17.9992 0.963498 17.7871 0.587386 17.4105C0.211274 17.0338 2.44089e-05 16.5233 2.50023e-05 15.991V8.00995C-0.00129243 7.74647 0.0494667 7.48532 0.149386 7.24151C0.249306 6.99771 0.396416 6.77605 0.582264 6.58927C0.768113 6.40249 0.989036 6.25428 1.23234 6.15314C1.47565 6.05201 1.73654 5.99995 2.00003 5.99995H4.00002Z" fill="#68ADC7"/>
</svg>
