<svg width="21" height="20" viewBox="0 0 21 20" fill="none" xmlns="http://www.w3.org/2000/svg">
<path fill-rule="evenodd" clip-rule="evenodd" d="M9.88192 3.48005L1.45592 10.309C1.05992 10.629 0.873923 11.265 1.04292 11.726L1.14192 11.998C1.30992 12.46 1.86792 12.827 2.36892 12.818L3.49992 12.798L9.56192 12.696L13.2139 12.633C13.7239 12.623 14.0019 12.248 13.8299 11.772L10.9069 3.74205C10.8019 3.45405 10.5829 3.30105 10.3399 3.30105C10.1712 3.30603 10.0093 3.36928 9.88192 3.48005ZM3.98092 13.953L5.73492 18.771C5.77797 18.8968 5.84567 19.0128 5.93406 19.1121C6.02245 19.2114 6.12976 19.2921 6.24971 19.3494C6.36966 19.4068 6.49984 19.4397 6.63264 19.4461C6.76544 19.4525 6.89818 19.4324 7.02312 19.3869C7.14805 19.3415 7.26266 19.2715 7.36024 19.1812C7.45783 19.0909 7.53642 18.9821 7.59143 18.861C7.64645 18.74 7.67677 18.6092 7.68063 18.4763C7.68449 18.3434 7.66181 18.2111 7.61392 18.087L6.07492 13.859L3.98092 13.953ZM17.6919 4.84205L14.8729 5.86805C14.7471 5.91109 14.6312 5.97879 14.5319 6.06719C14.4326 6.15558 14.3519 6.26289 14.2945 6.38284C14.2372 6.50279 14.2043 6.63297 14.1979 6.76576C14.1914 6.89856 14.2116 7.03131 14.257 7.15624C14.3025 7.28117 14.3724 7.39578 14.4627 7.49337C14.553 7.59095 14.6619 7.66954 14.7829 7.72456C14.904 7.77957 15.0348 7.80989 15.1677 7.81376C15.3006 7.81762 15.4329 7.79494 15.5569 7.74705L18.3769 6.72105C18.5004 6.67607 18.6137 6.60722 18.7106 6.51842C18.8074 6.42963 18.8858 6.32263 18.9413 6.20354C18.9968 6.08445 19.0283 5.9556 19.0339 5.82434C19.0396 5.69308 19.0194 5.56199 18.9744 5.43855C18.9294 5.3151 18.8606 5.20173 18.7718 5.10489C18.683 5.00806 18.576 4.92966 18.4569 4.87418C18.3378 4.8187 18.209 4.78722 18.0777 4.78153C17.9465 4.77584 17.8154 4.79707 17.6919 4.84205ZM15.8999 8.68705C15.7351 8.74743 15.5889 8.84991 15.4759 8.98429C15.3629 9.11867 15.2871 9.28027 15.2559 9.45305C15.2103 9.71422 15.27 9.98286 15.422 10.2001C15.574 10.4173 15.8059 10.5655 16.0669 10.612L19.0219 11.132C19.1925 11.1621 19.3679 11.1473 19.531 11.0891C19.6942 11.0309 19.8394 10.9314 19.9525 10.8003C20.0656 10.6691 20.1427 10.5108 20.1763 10.3409C20.2098 10.171 20.1987 9.99535 20.1439 9.83105L20.1269 9.78405C20.0647 9.62403 19.9623 9.48279 19.8295 9.374C19.6967 9.2652 19.538 9.19254 19.3689 9.16305L16.4139 8.64205C16.2417 8.61057 16.0641 8.62611 15.8999 8.68705ZM15.3519 1.04805L13.4229 3.34605C13.2524 3.5492 13.1695 3.81178 13.1926 4.07602C13.2157 4.34026 13.3428 4.58451 13.5459 4.75505C13.7491 4.92558 14.0117 5.00843 14.2759 4.98536C14.5401 4.96229 14.7844 4.8352 14.9549 4.63205L16.8829 2.33405C17.0049 2.18817 17.0827 2.01058 17.1074 1.82206C17.1321 1.63354 17.1026 1.44188 17.0224 1.26952C16.9421 1.09716 16.8144 0.951213 16.6543 0.848769C16.4941 0.746325 16.3081 0.691617 16.1179 0.691046C15.9718 0.690546 15.8275 0.722282 15.695 0.78399C15.5626 0.845699 15.4455 0.93586 15.3519 1.04805Z" fill="#2D8DB1" fill-opacity="0.696"/>
</svg>
