<svg width="16" height="16" viewBox="0 0 16 16" fill="none" xmlns="http://www.w3.org/2000/svg">
<path d="M13.9987 11.3334H3.3287C2.96403 11.3334 2.66537 11.032 2.66537 10.6607V4.00004C2.66537 3.82323 2.59513 3.65366 2.47011 3.52864C2.34508 3.40361 2.17551 3.33337 1.9987 3.33337C1.82189 3.33337 1.65232 3.40361 1.5273 3.52864C1.40227 3.65366 1.33203 3.82323 1.33203 4.00004V10.6607C1.33115 11.1914 1.54093 11.7007 1.9153 12.0768C2.28967 12.453 2.79802 12.6651 3.3287 12.6667H13.9987C14.1755 12.6667 14.3451 12.5965 14.4701 12.4714C14.5951 12.3464 14.6654 12.1769 14.6654 12C14.6654 11.8232 14.5951 11.6537 14.4701 11.5286C14.3451 11.4036 14.1755 11.3334 13.9987 11.3334ZM11.9987 6.00004V8.00004C11.9987 8.17685 12.0689 8.34642 12.194 8.47144C12.319 8.59647 12.4886 8.66671 12.6654 8.66671C12.8422 8.66671 13.0117 8.59647 13.1368 8.47144C13.2618 8.34642 13.332 8.17685 13.332 8.00004V5.33337C13.332 5.15656 13.2618 4.98699 13.1368 4.86197C13.0117 4.73695 12.8422 4.66671 12.6654 4.66671H9.9987C9.82189 4.66671 9.65232 4.73695 9.5273 4.86197C9.40227 4.98699 9.33203 5.15656 9.33203 5.33337C9.33203 5.51019 9.40227 5.67975 9.5273 5.80478C9.65232 5.9298 9.82189 6.00004 9.9987 6.00004H11.9987Z" fill="#68ADC7"/>
<path d="M8.86162 9.13805C8.98664 9.26303 9.15618 9.33325 9.33295 9.33325C9.50973 9.33325 9.67927 9.26303 9.80429 9.13805L12.471 6.47139C12.5346 6.40989 12.5854 6.33633 12.6204 6.25499C12.6553 6.17365 12.6737 6.08617 12.6745 5.99765C12.6752 5.90914 12.6584 5.82135 12.6248 5.73942C12.5913 5.65749 12.5418 5.58305 12.4792 5.52046C12.4166 5.45786 12.3422 5.40836 12.2603 5.37484C12.1783 5.34132 12.0905 5.32445 12.002 5.32522C11.9135 5.32599 11.826 5.34438 11.7447 5.37932C11.6633 5.41426 11.5898 5.46505 11.5283 5.52872L9.33295 7.72405L7.80429 6.19539C7.67927 6.07041 7.50973 6.0002 7.33295 6.0002C7.15618 6.0002 6.98664 6.07041 6.86162 6.19539L4.19495 8.86205C4.07352 8.98779 4.00632 9.15619 4.00784 9.33099C4.00936 9.50579 4.07947 9.67299 4.20307 9.7966C4.32668 9.92021 4.49389 9.99032 4.66869 9.99184C4.84348 9.99336 5.01189 9.92616 5.13762 9.80472L7.33295 7.60939L8.86162 9.13805Z" fill="#68ADC7"/>
</svg>
