<svg width="58" height="58" viewBox="0 0 58 58" fill="none" xmlns="http://www.w3.org/2000/svg">
<circle cx="29" cy="29" r="29" fill="#5D4CF3"/>
<g filter="url(#filter0_d_405_557)">
<path fill-rule="evenodd" clip-rule="evenodd" d="M29 17.1556C21.8203 17.1556 16 22.7172 16 29.5778C16 36.4384 21.8203 42 29 42C36.1797 42 42 36.4384 42 29.5778C42 22.7172 36.1797 17.1556 29 17.1556ZM29.907 24.9556C29.907 24.4769 29.5009 24.0889 29 24.0889C28.4991 24.0889 28.093 24.4769 28.093 24.9556V29.8157C28.093 30.184 27.9457 30.5385 27.6813 30.8065L25.9215 32.5901C25.5779 32.9384 25.5947 33.4869 25.9592 33.8152C26.3237 34.1436 26.8977 34.1274 27.2413 33.7792L29.0011 31.9956C29.5829 31.4059 29.907 30.6261 29.907 29.8157V24.9556Z" fill="white"/>
<path d="M21.7061 17.5434C22.0973 17.2444 22.1607 16.6991 21.8478 16.3253C21.5348 15.9515 20.9641 15.8909 20.573 16.1899L17.5497 18.5011C17.1586 18.8001 17.0951 19.3454 17.408 19.7192C17.721 20.093 18.2917 20.1536 18.6829 19.8546L21.7061 17.5434Z" fill="white"/>
<path d="M37.427 16.1899C37.0359 15.8909 36.4652 15.9515 36.1522 16.3253C35.8393 16.6991 35.9027 17.2444 36.2939 17.5434L39.3171 19.8546C39.7083 20.1536 40.279 20.093 40.5919 19.7192C40.9049 19.3454 40.8414 18.8001 40.4503 18.5011L37.427 16.1899Z" fill="white"/>
</g>
<defs>
<filter id="filter0_d_405_557" x="16" y="16" width="28" height="28" filterUnits="userSpaceOnUse" color-interpolation-filters="sRGB">
<feFlood flood-opacity="0" result="BackgroundImageFix"/>
<feColorMatrix in="SourceAlpha" type="matrix" values="0 0 0 0 0 0 0 0 0 0 0 0 0 0 0 0 0 0 127 0" result="hardAlpha"/>
<feOffset dx="2" dy="2"/>
<feComposite in2="hardAlpha" operator="out"/>
<feColorMatrix type="matrix" values="0 0 0 0 0 0 0 0 0 0 0 0 0 0 0 0 0 0 0.1 0"/>
<feBlend mode="normal" in2="BackgroundImageFix" result="effect1_dropShadow_405_557"/>
<feBlend mode="normal" in="SourceGraphic" in2="effect1_dropShadow_405_557" result="shape"/>
</filter>
</defs>
</svg>
