<svg width="58" height="58" viewBox="0 0 58 58" fill="none" xmlns="http://www.w3.org/2000/svg">
<circle cx="29" cy="29" r="29" fill="#00B661"/>
<path d="M37.9785 17.7333H36.9333V16.8667C36.9333 16.6368 36.842 16.4164 36.6795 16.2538C36.517 16.0913 36.2965 16 36.0667 16C35.8368 16 35.6164 16.0913 35.4538 16.2538C35.2913 16.4164 35.2 16.6368 35.2 16.8667V17.7333H30V16.8667C30 16.6368 29.9087 16.4164 29.7462 16.2538C29.5836 16.0913 29.3632 16 29.1333 16C28.9035 16 28.683 16.0913 28.5205 16.2538C28.358 16.4164 28.2667 16.6368 28.2667 16.8667V17.7333H23.0667V16.8667C23.0667 16.6368 22.9754 16.4164 22.8128 16.2538C22.6503 16.0913 22.4299 16 22.2 16C21.9701 16 21.7497 16.0913 21.5872 16.2538C21.4246 16.4164 21.3333 16.6368 21.3333 16.8667V17.7333H20.2881C19.4165 17.7347 18.5809 18.0816 17.9646 18.6979C17.3482 19.3143 17.0014 20.1498 17 21.0215V38.7119C17.0014 39.5835 17.3482 40.4191 17.9646 41.0354C18.5809 41.6518 19.4165 41.9986 20.2881 42H37.9785C38.8502 41.9986 39.6857 41.6518 40.3021 41.0354C40.9184 40.4191 41.2653 39.5835 41.2667 38.7119V21.0215C41.2653 20.1498 40.9184 19.3143 40.3021 18.6979C39.6857 18.0816 38.8502 17.7347 37.9785 17.7333ZM27.1452 33.0794L24.5452 35.6794C24.3827 35.8419 24.1623 35.9331 23.9325 35.9331C23.7027 35.9331 23.4823 35.8419 23.3197 35.6794L21.5864 33.9461C21.5036 33.8661 21.4376 33.7705 21.3922 33.6648C21.3468 33.559 21.3228 33.4453 21.3218 33.3302C21.3208 33.2151 21.3428 33.101 21.3864 32.9945C21.4299 32.888 21.4943 32.7912 21.5757 32.7099C21.657 32.6285 21.7538 32.5641 21.8603 32.5206C21.9668 32.477 22.0809 32.455 22.196 32.456C22.3111 32.457 22.4248 32.481 22.5306 32.5264C22.6363 32.5718 22.7319 32.6378 22.8119 32.7206L23.9333 33.8412L25.9206 31.8539C26.0841 31.6961 26.303 31.6087 26.5302 31.6107C26.7575 31.6127 26.9748 31.7038 27.1355 31.8645C27.2962 32.0252 27.3873 32.2425 27.3893 32.4698C27.3913 32.697 27.3031 32.9159 27.1452 33.0794ZM27.1452 25.2794L24.5452 27.8794C24.3827 28.0419 24.1623 28.1331 23.9325 28.1331C23.7027 28.1331 23.4823 28.0419 23.3197 27.8794L21.5864 26.1461C21.5036 26.0661 21.4376 25.9705 21.3922 25.8648C21.3468 25.759 21.3228 25.6453 21.3218 25.5302C21.3208 25.4151 21.3428 25.301 21.3864 25.1945C21.4299 25.088 21.4943 24.9912 21.5757 24.9099C21.657 24.8285 21.7538 24.7641 21.8603 24.7206C21.9668 24.677 22.0809 24.655 22.196 24.656C22.3111 24.657 22.4248 24.681 22.5306 24.7264C22.6363 24.7718 22.7319 24.8378 22.8119 24.9206L23.9333 26.0412L25.9206 24.0539C26.0841 23.8961 26.303 23.8087 26.5302 23.8107C26.7575 23.8127 26.9748 23.9038 27.1355 24.0645C27.2962 24.2252 27.3873 24.4425 27.3893 24.6698C27.3913 24.897 27.3031 25.1159 27.1452 25.2794ZM36.0667 35.0667H30C29.7701 35.0667 29.5497 34.9754 29.3872 34.8128C29.2246 34.6503 29.1333 34.4299 29.1333 34.2C29.1333 33.9701 29.2246 33.7497 29.3872 33.5872C29.5497 33.4246 29.7701 33.3333 30 33.3333H36.0667C36.2965 33.3333 36.517 33.4246 36.6795 33.5872C36.842 33.7497 36.9333 33.9701 36.9333 34.2C36.9333 34.4299 36.842 34.6503 36.6795 34.8128C36.517 34.9754 36.2965 35.0667 36.0667 35.0667ZM36.0667 27.2667H30C29.7701 27.2667 29.5497 27.1754 29.3872 27.0128C29.2246 26.8503 29.1333 26.6299 29.1333 26.4C29.1333 26.1701 29.2246 25.9497 29.3872 25.7872C29.5497 25.6246 29.7701 25.5333 30 25.5333H36.0667C36.2965 25.5333 36.517 25.6246 36.6795 25.7872C36.842 25.9497 36.9333 26.1701 36.9333 26.4C36.9333 26.6299 36.842 26.8503 36.6795 27.0128C36.517 27.1754 36.2965 27.2667 36.0667 27.2667Z" fill="white"/>
</svg>
