<svg width="27" height="25" viewBox="0 0 27 25" fill="none" xmlns="http://www.w3.org/2000/svg">
<rect width="25" height="25" rx="4" fill="#CE38D9"/>
<g filter="url(#filter0_d_51_4086)">
<path d="M8.46726 11.4655H5.78804C5.3528 11.4655 5 11.8183 5 12.2535V18.2119C5 18.6472 5.3528 19 5.78804 19H8.46722C8.90246 19 9.25527 18.6472 9.25527 18.2119V12.2535C9.25527 11.8183 8.90246 11.4655 8.46726 11.4655Z" fill="#FADC60"/>
<path d="M6.12086 18.2119V12.2535C6.12086 11.8183 6.47367 11.4655 6.90891 11.4655H5.78804C5.3528 11.4655 5 11.8183 5 12.2535V18.212C5 18.6472 5.3528 19 5.78804 19H6.90887C6.47367 19 6.12086 18.6472 6.12086 18.2119Z" fill="#F2C42C"/>
<path d="M14.2446 8.73279H11.5654C11.1301 8.73279 10.7773 9.08559 10.7773 9.52083V18.212C10.7773 18.6472 11.1301 19 11.5654 19H14.2446C14.6798 19 15.0326 18.6472 15.0326 18.212V9.5208C15.0326 9.08559 14.6798 8.73279 14.2446 8.73279Z" fill="#FD6F71"/>
<path d="M11.8982 18.2119V9.52071C11.8982 9.08547 12.251 8.73267 12.6862 8.73267H11.5654C11.1301 8.73267 10.7773 9.08547 10.7773 9.52071V18.2119C10.7773 18.6471 11.1301 18.9999 11.5654 18.9999H12.6862C12.251 18.9999 11.8982 18.6471 11.8982 18.2119Z" fill="#E34B4C"/>
<path d="M20.0219 6H17.3427C16.9075 6 16.5547 6.3528 16.5547 6.78804V18.2119C16.5547 18.6472 16.9075 19 17.3427 19H20.0219C20.4571 19 20.81 18.6472 20.81 18.2119V6.78804C20.8099 6.3528 20.4571 6 20.0219 6Z" fill="#57D0E6"/>
<path d="M17.6755 18.2119V6.78804C17.6755 6.3528 18.0283 6 18.4636 6H17.3427C16.9075 6 16.5547 6.3528 16.5547 6.78804V18.2119C16.5547 18.6472 16.9075 19 17.3427 19H18.4636C18.0283 19 17.6755 18.6472 17.6755 18.2119Z" fill="#4DB8CC"/>
</g>
<defs>
<filter id="filter0_d_51_4086" x="3" y="4" width="23.8105" height="21" filterUnits="userSpaceOnUse" color-interpolation-filters="sRGB">
<feFlood flood-opacity="0" result="BackgroundImageFix"/>
<feColorMatrix in="SourceAlpha" type="matrix" values="0 0 0 0 0 0 0 0 0 0 0 0 0 0 0 0 0 0 127 0" result="hardAlpha"/>
<feOffset dx="2" dy="2"/>
<feGaussianBlur stdDeviation="2"/>
<feComposite in2="hardAlpha" operator="out"/>
<feColorMatrix type="matrix" values="0 0 0 0 0 0 0 0 0 0 0 0 0 0 0 0 0 0 0.24 0"/>
<feBlend mode="normal" in2="BackgroundImageFix" result="effect1_dropShadow_51_4086"/>
<feBlend mode="normal" in="SourceGraphic" in2="effect1_dropShadow_51_4086" result="shape"/>
</filter>
</defs>
</svg>
