<svg width="30" height="30" viewBox="0 0 30 30" fill="none" xmlns="http://www.w3.org/2000/svg">
<path d="M15.2857 17.5714H21.5714C21.887 17.5714 22.1429 17.8273 22.1429 18.1429V19.8571C22.1429 20.1727 21.887 20.4286 21.5714 20.4286H15.2857C14.9701 20.4286 14.7143 20.1727 14.7143 19.8571V18.1429C14.7143 17.8273 14.9701 17.5714 15.2857 17.5714ZM11.5714 13.5714H17.2857C17.6013 13.5714 17.8571 13.8272 17.8571 14.1428V15.8571C17.8571 16.1727 17.6013 16.4285 17.2857 16.4285H11.5714C11.2558 16.4285 11 16.1727 11 15.8571V14.1428C11 13.8272 11.2558 13.5714 11.5714 13.5714ZM7.85714 9.5714H12.4286C12.7442 9.5714 13 9.82724 13 10.1428V11.8571C13 12.1727 12.7442 12.4285 12.4286 12.4285H7.85714C7.54154 12.4285 7.2857 12.1727 7.2857 11.8571V10.1428C7.2857 9.82724 7.54154 9.5714 7.85714 9.5714ZM5.85713 23H5.2857C5.20993 23 5.13727 22.9699 5.08369 22.9163C5.03011 22.8627 5.00001 22.7901 5 22.7143V7.2857C5 7.20993 5.0301 7.13726 5.08368 7.08368C5.13726 7.0301 5.20993 7 5.2857 7H5.85713C5.9329 7.00001 6.00557 7.03011 6.05914 7.08369C6.11272 7.13727 6.14282 7.20993 6.14283 7.2857V22.7143C6.14284 22.7518 6.13546 22.7889 6.12111 22.8236C6.10675 22.8583 6.08571 22.8898 6.05918 22.9163C6.03265 22.9429 6.00115 22.9639 5.96648 22.9783C5.93181 22.9926 5.89466 23 5.85713 23ZM24.1429 23H23.5714C23.4957 23 23.423 22.9699 23.3694 22.9163C23.3159 22.8627 23.2858 22.7901 23.2857 22.7143V7.2857C23.2857 7.20993 23.3158 7.13726 23.3694 7.08368C23.423 7.0301 23.4957 7 23.5714 7H24.1429C24.2186 7.00001 24.2913 7.03011 24.3449 7.08369C24.3985 7.13727 24.4286 7.20993 24.4286 7.2857V22.7143C24.4286 22.79 24.3985 22.8627 24.3449 22.9163C24.2913 22.9699 24.2187 23 24.1429 23Z" fill="#07485E"/>
</svg>
