<svg width="23" height="20" viewBox="0 0 23 20" fill="none" xmlns="http://www.w3.org/2000/svg">
<path d="M12.3077 17.447V15.9135H0V17.4532C0 18.8476 1.12683 20 2.52139 20H13.5481C13.4424 19.9038 13.3404 19.8195 13.2441 19.723C12.9459 19.4239 12.7097 19.0689 12.549 18.6784C12.3883 18.2878 12.3063 17.8693 12.3077 17.447ZM8.71433 8.15014L10.5003 9.3763L12.2932 8.15014C12.7836 7.81567 13.1731 7.06091 13.1731 6.46745V3.93365L10.5048 2.61399L7.83654 3.93029V6.46745C7.83654 7.06072 8.2238 7.81567 8.71433 8.15014ZM9.11639 5.75534C9.14779 5.72424 9.18502 5.69963 9.22593 5.68291C9.26685 5.6662 9.31065 5.65772 9.35485 5.65794C9.39904 5.65816 9.44276 5.66709 9.48351 5.68422C9.52425 5.70134 9.56122 5.72632 9.59231 5.75774L10.1287 6.29937L11.4196 5.00865C11.4508 4.97739 11.4879 4.95258 11.5288 4.93567C11.5697 4.91876 11.6134 4.91006 11.6577 4.91008C11.7019 4.91009 11.7457 4.91883 11.7865 4.93577C11.8273 4.95272 11.8644 4.97755 11.8957 5.00885C11.9588 5.072 11.9942 5.15764 11.9942 5.24691C11.9941 5.33619 11.9586 5.4218 11.8955 5.4849L10.3655 7.01567C10.3024 7.07906 10.2169 7.11491 10.1275 7.11538H10.1268C10.0823 7.11514 10.0384 7.10608 9.99749 7.08874C9.95658 7.07139 9.91952 7.0461 9.88846 7.01433L9.11394 6.23197C9.05118 6.16838 9.01619 6.0825 9.01665 5.99315C9.01711 5.9038 9.05298 5.81828 9.11639 5.75534ZM20.5238 0H20.5131C19.5243 0 18.7019 0.826154 18.7019 1.81548V4.90385H22.3077V1.80947C22.3122 0.818269 21.515 0.00956731 20.5238 0Z" fill="#07485E"/>
<path d="M5.16648 0C4.23138 0 3.47037 0.750817 3.47037 1.67178L3.37109 15.2404H12.6439C12.7348 15.244 12.8206 15.2827 12.8834 15.3485C12.9462 15.4142 12.981 15.5018 12.9805 15.5927V17.447C12.9771 18.8489 14.1073 19.9899 15.509 20H15.5175C16.9141 19.9899 18.0382 18.8495 18.0285 17.4529V1.81601C18.0285 1.10865 18.3469 0.480769 18.8252 0H5.16648ZM7.16316 3.72034C7.16108 3.65828 7.1767 3.59691 7.2082 3.54341C7.2397 3.4899 7.28577 3.44646 7.34105 3.41817L10.3548 1.93697C10.4005 1.91436 10.4508 1.9026 10.5017 1.9026C10.5527 1.9026 10.6029 1.91436 10.6486 1.93697L13.6678 3.42231C13.7231 3.45061 13.7692 3.49404 13.8007 3.54754C13.8322 3.60104 13.8479 3.66241 13.8459 3.72447V6.46745C13.8459 7.2838 13.3476 8.2463 12.6729 8.70625L10.6957 10.062C10.6403 10.1001 10.5746 10.1206 10.5073 10.1206C10.4403 10.1207 10.3749 10.1002 10.3199 10.062L8.33691 8.7062C7.66254 8.24615 7.16316 7.28365 7.16316 6.4675V3.72034ZM15.2882 13.7019H6.05739C5.87148 13.7019 5.72085 13.5513 5.72085 13.3654C5.72085 13.1795 5.87148 13.0288 6.05739 13.0288H15.2882C15.4741 13.0288 15.6247 13.1795 15.6247 13.3654C15.6247 13.5513 15.4741 13.7019 15.2882 13.7019ZM15.2882 11.9231H6.05739C5.87148 11.9231 5.72085 11.7725 5.72085 11.5865C5.72085 11.4006 5.87148 11.25 6.05739 11.25H15.2882C15.4741 11.25 15.6247 11.4006 15.6247 11.5865C15.6247 11.7725 15.4741 11.9231 15.2882 11.9231Z" fill="#07485E"/>
</svg>
