<svg width="21" height="20" viewBox="0 0 21 20" fill="none" xmlns="http://www.w3.org/2000/svg">
<path fill-rule="evenodd" clip-rule="evenodd" d="M14.1493 15.503C14.1493 15.1261 14.4547 14.8183 14.8341 14.8183C15.2135 14.8183 15.5188 15.1261 15.5188 15.503C15.5188 15.8812 15.2122 16.1878 14.8341 16.1878C14.4559 16.1878 14.1493 15.8812 14.1493 15.503ZM15.9499 12.1958H13.7183V11.9486C13.7183 11.8134 13.8302 11.7014 13.9655 11.7014H15.7027C15.838 11.7014 15.9499 11.8134 15.9499 11.9486L15.9499 12.1958ZM17.1088 12.8653H18.2145V14.1348C18.2145 14.3476 18.0364 14.4932 17.8709 14.5979C17.5368 14.8093 16.8768 14.9515 16.101 15.024C15.9074 14.5127 15.4132 14.1489 14.8341 14.1489C14.2548 14.1489 13.7605 14.513 13.567 15.0246C12.7927 14.9525 12.1332 14.8105 11.7973 14.5979C11.6319 14.4933 11.4537 14.3474 11.4537 14.1348V12.8653H12.5594V13.4366C12.5594 13.8135 12.8665 14.1206 13.2434 14.1206H16.4248C16.8017 14.1206 17.1089 13.8135 17.1089 13.4366V12.8653H17.1088ZM13.2288 12.8653H16.4394V13.4366C16.4392 13.4404 16.4375 13.4439 16.4349 13.4466C16.4322 13.4493 16.4286 13.4509 16.4248 13.4512H13.2434C13.2396 13.4509 13.236 13.4493 13.2333 13.4466C13.2306 13.4439 13.229 13.4404 13.2288 13.4366V12.8653ZM14.8341 9.50107C11.9349 9.50107 9.58463 11.8513 9.58463 14.7505C9.58463 17.6498 11.9349 20 14.8341 20C17.7333 20 20.0836 17.6498 20.0836 14.7506C20.0836 11.8513 17.7333 9.50107 14.8341 9.50107ZM18.5527 14.9048V17.2032C18.5527 17.687 18.1581 18.0817 17.6742 18.0817H11.9939C11.5101 18.0817 11.1154 17.687 11.1154 17.2032V14.9047C10.908 14.6941 10.7843 14.4344 10.7843 14.1347V12.8091C10.7843 12.4719 11.0598 12.1958 11.3976 12.1958H13.0489V11.9486C13.0489 11.4438 13.4608 11.032 13.9656 11.032H15.7028C16.2076 11.032 16.6194 11.4438 16.6194 11.9486V12.1958H18.2706C18.6089 12.1958 18.884 12.4709 18.884 12.8091V14.1347C18.8839 14.4345 18.7601 14.6942 18.5527 14.9048ZM17.8833 15.3315V17.2032C17.8833 17.3175 17.7885 17.4122 17.6742 17.4122H11.9939C11.8796 17.4122 11.7849 17.3175 11.7849 17.2032V15.3317C12.2178 15.5019 12.8228 15.62 13.4923 15.6862C13.5818 16.3473 14.1485 16.8572 14.8341 16.8572C15.5199 16.8572 16.0868 16.3469 16.176 15.6856C16.846 15.619 17.4511 15.5009 17.8833 15.3315ZM2.42906 3.41718C1.87195 3.41718 1.41894 2.96417 1.41894 2.40706V1.13656H1.36267C0.61213 1.13656 0 1.74869 0 2.49923V3.55734H16.897V2.49923C16.897 1.74869 16.2849 1.13656 15.5343 1.13656H15.4781V2.4071C15.4781 2.96421 15.0251 3.41722 14.4679 3.41722H13.7925C13.2354 3.41722 12.7823 2.96421 12.7823 2.4071V1.13656H11.6903V2.4071C11.6903 2.96421 11.2373 3.41722 10.6802 3.41722H10.0047C9.44756 3.41722 8.99454 2.96421 8.99454 2.4071V1.13656H7.90246V2.4071C7.90246 2.96421 7.44945 3.41722 6.89234 3.41722H6.21682C5.65971 3.41722 5.2067 2.96421 5.2067 2.4071V1.13656H4.11462V2.4071C4.11462 2.96421 3.66161 3.41722 3.1045 3.41722L2.42906 3.41718ZM2.42906 0H3.10454C3.29215 0 3.44521 0.153012 3.44521 0.340667V2.40706C3.44521 2.59467 3.29215 2.74772 3.10454 2.74772H2.42906C2.24141 2.74772 2.0884 2.59467 2.0884 2.40706V0.340667C2.0884 0.153053 2.24141 0 2.42906 0ZM13.7925 0H14.4679C14.6556 0 14.8086 0.153012 14.8086 0.340667V2.40706C14.8086 2.59467 14.6556 2.74772 14.4679 2.74772H13.7925C13.6049 2.74772 13.4518 2.59467 13.4518 2.40706V0.340667C13.4518 0.153053 13.6049 0 13.7925 0ZM10.0047 0H10.6802C10.8678 0 11.0209 0.153012 11.0209 0.340667V2.40706C11.0209 2.59467 10.8678 2.74772 10.6802 2.74772H10.0047C9.81705 2.74772 9.664 2.59467 9.664 2.40706V0.340667C9.664 0.153053 9.81701 0 10.0047 0ZM6.21682 0H6.89234C7.08 0 7.23301 0.153012 7.23301 0.340667V2.40706C7.23301 2.59467 7.08 2.74772 6.89234 2.74772H6.21682C6.02921 2.74772 5.87615 2.59467 5.87615 2.40706V0.340667C5.8762 0.153053 6.02921 0 6.21682 0ZM0 4.22679V13.9795C0 14.73 0.61213 15.3422 1.36267 15.3422H8.94438C8.9249 15.1456 8.91516 14.9481 8.91517 14.7506C8.91517 14.2966 8.96626 13.8546 9.06304 13.4299H7.77355C7.5892 13.4299 7.43882 13.2795 7.43882 13.0952V11.7452C7.43882 11.5609 7.5892 11.4105 7.77355 11.4105H9.1235C9.30785 11.4105 9.45822 11.5609 9.45822 11.7452V12.2705C9.71717 11.7106 10.0619 11.1946 10.48 10.7411H10.4624C10.2781 10.7411 10.1277 10.5907 10.1277 10.4063V9.05639C10.1277 8.87204 10.2781 8.72166 10.4624 8.72166H11.8124C11.9967 8.72166 12.1471 8.87204 12.1471 9.05639V9.4753C12.364 9.36457 12.5876 9.26742 12.8165 9.18442V9.05639C12.8165 8.87204 12.9669 8.72166 13.1513 8.72166H14.5012C14.548 8.72166 14.5943 8.73151 14.6371 8.75056C14.6798 8.76961 14.7181 8.79744 14.7494 8.83224C14.7776 8.83187 14.8058 8.83166 14.8341 8.83166C15.5596 8.83166 16.2547 8.9622 16.897 9.20107V4.22683L0 4.22679ZM4.08052 13.0952C4.08052 13.2795 3.93014 13.4299 3.74579 13.4299H2.39584C2.21149 13.4299 2.06112 13.2795 2.06112 13.0952V11.7452C2.06112 11.5609 2.21149 11.4105 2.39584 11.4105H3.74579C3.93014 11.4105 4.08052 11.5609 4.08052 11.7452V13.0952ZM4.08052 10.4063C4.08052 10.5907 3.93014 10.7411 3.74579 10.7411H2.39584C2.21149 10.7411 2.06112 10.5907 2.06112 10.4063V9.05639C2.06112 8.87204 2.21149 8.72166 2.39584 8.72166H3.74579C3.93014 8.72166 4.08052 8.87204 4.08052 9.05639V10.4063ZM4.08052 7.71748C4.08052 7.90183 3.93014 8.05221 3.74579 8.05221H2.39584C2.21149 8.05221 2.06112 7.90183 2.06112 7.71748V6.36753C2.06112 6.18318 2.21149 6.03281 2.39584 6.03281H3.74579C3.93014 6.03281 4.08052 6.18318 4.08052 6.36753V7.71748ZM6.76937 13.0952C6.76937 13.2795 6.619 13.4299 6.43465 13.4299H5.0847C4.90035 13.4299 4.74997 13.2795 4.74997 13.0952V11.7452C4.74997 11.5609 4.90035 11.4105 5.0847 11.4105H6.43465C6.619 11.4105 6.76937 11.5609 6.76937 11.7452V13.0952ZM6.76937 10.4063C6.76937 10.5907 6.619 10.7411 6.43465 10.7411H5.0847C4.90035 10.7411 4.74997 10.5907 4.74997 10.4063V9.05639C4.74997 8.87204 4.90035 8.72166 5.0847 8.72166H6.43465C6.619 8.72166 6.76937 8.87204 6.76937 9.05639V10.4063ZM6.76937 7.71748C6.76937 7.90183 6.619 8.05221 6.43465 8.05221H5.0847C4.90035 8.05221 4.74997 7.90183 4.74997 7.71748V6.36753C4.74997 6.18318 4.90035 6.03281 5.0847 6.03281H6.43465C6.619 6.03281 6.76937 6.18318 6.76937 6.36753V7.71748ZM9.45822 10.4063C9.45822 10.5907 9.30785 10.7411 9.1235 10.7411H7.77355C7.5892 10.7411 7.43882 10.5907 7.43882 10.4063V9.05639C7.43882 8.87204 7.5892 8.72166 7.77355 8.72166H9.1235C9.30785 8.72166 9.45822 8.87204 9.45822 9.05639V10.4063ZM9.45822 7.71748C9.45822 7.90183 9.30785 8.05221 9.1235 8.05221H7.77355C7.5892 8.05221 7.43882 7.90183 7.43882 7.71748V6.36753C7.43882 6.18318 7.5892 6.03281 7.77355 6.03281H9.1235C9.30785 6.03281 9.45822 6.18318 9.45822 6.36753V7.71748ZM12.1471 7.71748C12.1471 7.90183 11.9967 8.05221 11.8124 8.05221H10.4624C10.2781 8.05221 10.1277 7.90183 10.1277 7.71748V6.36753C10.1277 6.18318 10.2781 6.03281 10.4624 6.03281H11.8124C11.9967 6.03281 12.1471 6.18318 12.1471 6.36753V7.71748ZM14.8359 7.71748C14.8359 7.90183 14.6856 8.05221 14.5012 8.05221H13.1513C12.9669 8.05221 12.8165 7.90183 12.8165 7.71748V6.36753C12.8165 6.18318 12.9669 6.03281 13.1513 6.03281H14.5012C14.6856 6.03281 14.8359 6.18318 14.8359 6.36753V7.71748Z" fill="#07485E"/>
</svg>
