<svg width="24" height="20" viewBox="0 0 24 20" fill="none" xmlns="http://www.w3.org/2000/svg">
<path d="M16.756 4.02108C16.3241 4.02108 15.9741 3.67103 15.9741 3.23918V0.781904C15.9741 0.350049 16.3241 0 16.756 0C17.1878 0 17.5378 0.350049 17.5378 0.781904V3.23918C17.5378 3.67103 17.1878 4.02108 16.756 4.02108ZM5.11831 4.02108C4.6865 4.02108 4.33646 3.67103 4.33646 3.23918V0.781904C4.33646 0.350049 4.6865 0 5.11831 0C5.55012 0 5.90017 0.350049 5.90017 0.781904V3.23918C5.90017 3.67103 5.55012 4.02108 5.11831 4.02108ZM5.22213 8.32712H3.34132C3.06587 8.32712 2.8418 8.55123 2.8418 8.82669V10.7075C2.8418 10.9829 3.06587 11.207 3.34132 11.207H5.22213C5.49759 11.207 5.72166 10.9829 5.72166 10.7075V8.82669C5.72166 8.55128 5.49754 8.32712 5.22213 8.32712ZM9.65926 8.32712H7.77845C7.50299 8.32712 7.27892 8.55123 7.27892 8.82669V10.7075C7.27892 10.9829 7.50299 11.207 7.77845 11.207H9.65926C9.93472 11.207 10.1587 10.9829 10.1587 10.7075V8.82669C10.1587 8.55128 9.93467 8.32712 9.65926 8.32712ZM14.0963 8.32712H12.2155C11.9401 8.32712 11.7161 8.55123 11.7161 8.82669V10.7075C11.7161 10.9829 11.9401 11.207 12.2155 11.207H14.0963C14.3718 11.207 14.5959 10.9829 14.5959 10.7075V8.82669C14.5959 8.55128 14.3717 8.32712 14.0963 8.32712ZM18.5335 8.32712H16.6526C16.3772 8.32712 16.1532 8.55123 16.1532 8.82669V10.7075C16.1532 10.9829 16.3772 11.207 16.6526 11.207H18.5335C18.8089 11.207 19.033 10.9829 19.033 10.7075V8.82669C19.033 8.55128 18.8089 8.32712 18.5335 8.32712ZM5.22213 12.795H3.34132C3.06587 12.795 2.8418 13.0191 2.8418 13.2946V15.1753C2.8418 15.4508 3.06587 15.6748 3.34132 15.6748H5.22213C5.49759 15.6748 5.72166 15.4508 5.72166 15.1753V13.2946C5.72166 13.0191 5.49754 12.795 5.22213 12.795ZM9.65926 12.795H7.77845C7.50299 12.795 7.27892 13.0191 7.27892 13.2946V15.1753C7.27892 15.4508 7.50299 15.6748 7.77845 15.6748H9.65926C9.93472 15.6748 10.1587 15.4508 10.1587 15.1753V13.2946C10.1587 13.0191 9.93467 12.795 9.65926 12.795ZM14.0963 12.795H12.2155C11.9401 12.795 11.7161 13.0191 11.7161 13.2946V15.1753C11.7161 15.4508 11.9401 15.6748 12.2155 15.6748H14.0963C14.3718 15.6748 14.5959 15.4508 14.5959 15.1753V13.2946C14.5959 13.0191 14.3717 12.795 14.0963 12.795ZM6.79373 2.68869H15.0805C15.0963 2.6887 15.1118 2.68561 15.1263 2.6796C15.1409 2.67359 15.1541 2.66477 15.1652 2.65366C15.1763 2.64254 15.1851 2.62935 15.1911 2.61482C15.1971 2.6003 15.2002 2.58474 15.2002 2.56902V1.45206C15.2002 1.43634 15.1971 1.42078 15.1911 1.40626C15.1851 1.39173 15.1763 1.37854 15.1652 1.36742C15.1541 1.35631 15.1409 1.34749 15.1263 1.34148C15.1118 1.33547 15.0963 1.33238 15.0805 1.33238H6.79373C6.77801 1.33238 6.76244 1.33547 6.74792 1.34148C6.7334 1.34749 6.7202 1.35631 6.70909 1.36742C6.69797 1.37854 6.68916 1.39173 6.68315 1.40626C6.67714 1.42078 6.67404 1.43634 6.67405 1.45206V2.56902C6.67404 2.58474 6.67714 2.6003 6.68315 2.61482C6.68916 2.62935 6.69797 2.64254 6.70909 2.65366C6.7202 2.66477 6.7334 2.67359 6.74792 2.6796C6.76244 2.68561 6.77801 2.6887 6.79373 2.68869Z" fill="#07485E"/>
<path d="M21.8745 12.8275V4.15502C21.8745 2.59847 20.6082 1.33232 19.0518 1.33232H18.4313C18.4156 1.33232 18.4 1.33541 18.3855 1.34142C18.3709 1.34743 18.3577 1.35625 18.3466 1.36736C18.3355 1.37848 18.3267 1.39167 18.3207 1.40619C18.3147 1.42072 18.3116 1.43628 18.3116 1.452V2.56896C18.3116 2.58468 18.3147 2.60024 18.3207 2.61476C18.3267 2.62929 18.3355 2.64248 18.3466 2.6536C18.3577 2.66471 18.3709 2.67352 18.3855 2.67954C18.4 2.68555 18.4156 2.68864 18.4313 2.68863H19.0518C19.8604 2.68863 20.5182 3.34647 20.5182 4.15507V5.33908H1.35631V4.15502C1.35631 3.34642 2.0141 2.68859 2.8227 2.68859H3.44271C3.45843 2.68859 3.47399 2.6855 3.48852 2.67949C3.50304 2.67348 3.51623 2.66466 3.52735 2.65355C3.53846 2.64243 3.54728 2.62924 3.55329 2.61472C3.5593 2.60019 3.56239 2.58463 3.56239 2.56891V1.45195C3.56239 1.43623 3.5593 1.42067 3.55329 1.40615C3.54728 1.39162 3.53846 1.37843 3.52735 1.36731C3.51623 1.3562 3.50304 1.34738 3.48852 1.34137C3.47399 1.33536 3.45843 1.33227 3.44271 1.33228H2.8227C1.26629 1.33228 0 2.59847 0 4.15502V15.7993C0 17.3558 1.26629 18.622 2.8227 18.622H16.351C17.088 19.466 18.1711 19.9999 19.3797 19.9999C21.6002 19.9999 23.4003 18.1998 23.4003 15.9793C23.4004 14.7016 22.8036 13.5639 21.8745 12.8275ZM15.3591 15.9792C15.359 16.4167 15.4304 16.8513 15.5706 17.2657H2.8227C2.0141 17.2657 1.35631 16.6079 1.35631 15.7993V6.77504H20.5182V12.1231C20.1485 12.014 19.7651 11.9586 19.3797 11.9586C17.1591 11.9586 15.3591 13.7587 15.3591 15.9792ZM21.7551 14.623C21.7551 14.623 20.0176 17.1123 19.4343 17.9571C19.3239 18.1171 19.17 18.208 19.0254 18.23C18.8764 18.2527 18.6992 18.2084 18.5592 18.1001L17.4722 17.2072C17.2264 17.0053 17.1908 16.6424 17.3928 16.3966C17.5947 16.1508 17.9576 16.1152 18.2034 16.3171L18.8199 16.8236L20.8097 13.965C20.9914 13.7039 21.3503 13.6395 21.6114 13.8212C21.8725 14.0031 21.9368 14.3619 21.7551 14.623Z" fill="#07485E"/>
</svg>
