<svg width="30" height="30" viewBox="0 0 30 30" fill="none" xmlns="http://www.w3.org/2000/svg">
<path d="M8.03813 11.6875H14.7431C15.3156 11.6875 15.7812 11.2219 15.7812 10.6494V8.03813C15.7812 7.46563 15.3156 7 14.7431 7H8.03813C7.46563 7 7 7.46563 7 8.03813V10.6494C7 11.2219 7.46563 11.6875 8.03813 11.6875ZM21.605 8.875H18.3192L18.4865 8.70769C18.6695 8.52466 18.6695 8.22784 18.4865 8.04478C18.3034 7.86175 18.0066 7.86175 17.8236 8.04478L16.8561 9.01228C16.6748 9.18691 16.6749 9.50063 16.8561 9.67519L17.8236 10.6427C17.9151 10.7342 18.0351 10.78 18.155 10.78C18.2749 10.78 18.3949 10.7342 18.4864 10.6427C18.6695 10.4597 18.6695 10.1628 18.4864 9.97978L18.3192 9.8125H21.605C21.8572 9.8125 22.0625 10.0177 22.0625 10.27V14.0738C22.0625 14.326 21.8573 14.5312 21.605 14.5312H19.6673C19.4085 14.5312 19.1986 14.7411 19.1986 15C19.1986 15.2589 19.4085 15.4688 19.6673 15.4688H21.605C22.3742 15.4688 23 14.843 23 14.0738V10.27C23 9.50078 22.3742 8.875 21.605 8.875ZM14.7431 18.3125H8.03813C7.46563 18.3125 7 18.7781 7 19.3506V21.9619C7 22.5344 7.46563 23 8.03813 23H14.7431C15.3156 23 15.7812 22.5344 15.7812 21.9619V19.3506C15.7812 18.7781 15.3156 18.3125 14.7431 18.3125ZM17.2228 12.6562H10.5181C9.94563 12.6562 9.48 13.1219 9.48 13.6944V16.3056C9.48 16.8781 9.94563 17.3438 10.5181 17.3438H17.2228C17.7953 17.3438 18.2612 16.8781 18.2612 16.3056V13.6944C18.2612 13.1219 17.7953 12.6562 17.2228 12.6562ZM15.9175 15.4688H11.8238C11.5647 15.4688 11.355 15.2587 11.355 15C11.355 14.7413 11.5647 14.5312 11.8238 14.5312H15.9175C16.1762 14.5312 16.3862 14.7413 16.3862 15C16.3862 15.2587 16.1762 15.4688 15.9175 15.4688Z" fill="#07485E"/>
</svg>
