<svg width="18" height="18" viewBox="0 0 18 18" fill="none" xmlns="http://www.w3.org/2000/svg">
<path d="M14.257 9.66431L14.5637 10.4026C14.6829 10.4626 14.7987 10.5293 14.9095 10.6026L15.7029 10.4985C15.8049 10.4853 15.9087 10.4975 16.0049 10.534C16.1011 10.5705 16.1869 10.6301 16.2545 10.7076C16.6273 11.1345 16.9134 11.6298 17.097 12.166C17.1645 12.3643 17.1287 12.5826 17.002 12.7485L16.5154 13.3835C16.5229 13.5168 16.5229 13.651 16.5154 13.7826L17.002 14.4185C17.0645 14.5003 17.1058 14.5962 17.1224 14.6978C17.139 14.7994 17.1303 14.9035 17.097 15.001C16.9134 15.5371 16.6273 16.0324 16.2545 16.4593C16.1869 16.5368 16.1011 16.5965 16.0049 16.633C15.9087 16.6695 15.8049 16.6817 15.7029 16.6685L14.9095 16.5643C14.7981 16.6374 14.6826 16.7041 14.5637 16.7643L14.257 17.5026C14.2176 17.5978 14.1553 17.6817 14.0756 17.747C13.9959 17.8122 13.9014 17.8568 13.8004 17.8768C13.244 17.986 12.6717 17.986 12.1154 17.8768C12.0143 17.8568 11.9198 17.8122 11.8401 17.747C11.7605 17.6817 11.6982 17.5978 11.6587 17.5026L11.352 16.7643C11.2329 16.7045 11.1174 16.6377 11.0062 16.5643L10.2129 16.6685C10.1108 16.6817 10.0071 16.6695 9.91083 16.633C9.81461 16.5965 9.72886 16.5368 9.6612 16.4593C9.28846 16.0324 9.00231 15.5371 8.8187 15.001C8.78547 14.9035 8.77676 14.7994 8.79333 14.6978C8.8099 14.5962 8.85124 14.5003 8.9137 14.4185L9.40036 13.7835C9.39286 13.6505 9.39286 13.5173 9.40036 13.3843L8.9137 12.7485C8.85124 12.6666 8.8099 12.5707 8.79333 12.4691C8.77676 12.3675 8.78547 12.2634 8.8187 12.166C9.00231 11.6298 9.28846 11.1345 9.6612 10.7076C9.72886 10.6301 9.81461 10.5705 9.91083 10.534C10.0071 10.4975 10.1108 10.4853 10.2129 10.4985L11.0062 10.6026C11.1179 10.5293 11.2337 10.4626 11.352 10.4026L11.6587 9.66431C11.6982 9.56918 11.7605 9.48526 11.8401 9.41999C11.9198 9.35472 12.0143 9.31012 12.1154 9.29014C12.6717 9.18096 13.244 9.18096 13.8004 9.29014C13.9014 9.31012 13.9959 9.35472 14.0756 9.41999C14.1553 9.48526 14.2176 9.56918 14.257 9.66431ZM12.9579 12.5418C12.6816 12.5418 12.4166 12.6516 12.2213 12.8469C12.0259 13.0423 11.9162 13.3072 11.9162 13.5835C11.9162 13.8597 12.0259 14.1247 12.2213 14.32C12.4166 14.5154 12.6816 14.6251 12.9579 14.6251C13.2341 14.6251 13.4991 14.5154 13.6944 14.32C13.8898 14.1247 13.9995 13.8597 13.9995 13.5835C13.9995 13.3072 13.8898 13.0423 13.6944 12.8469C13.4991 12.6516 13.2341 12.5418 12.9579 12.5418Z" fill="#07485E"/>
<path d="M10.9541 17.9584H3.16081C2.55302 17.9584 1.97013 17.717 1.54035 17.2872C1.11058 16.8574 0.869141 16.2745 0.869141 15.6667V2.33341C0.869141 1.72563 1.11058 1.14273 1.54035 0.712962C1.97013 0.283191 2.55302 0.041748 3.16081 0.041748H10.315C10.7025 0.041748 11.0733 0.195081 11.3466 0.469248L15.025 4.14758C15.2983 4.42092 15.4525 4.79175 15.4525 5.17841V9.69092L15.1858 9.72591L15.0275 9.34425C14.9352 9.12235 14.7896 8.92668 14.6035 8.77462C14.4174 8.62255 14.1966 8.5188 13.9608 8.47258C13.2988 8.34258 12.6178 8.34258 11.9558 8.47258C11.72 8.5188 11.4992 8.62255 11.3131 8.77462C11.1271 8.92668 10.9814 9.12235 10.8891 9.34425L10.7308 9.72591L10.3216 9.67258C10.0834 9.6413 9.84117 9.66935 9.61641 9.75426C9.39165 9.83916 9.19135 9.97828 9.03331 10.1592C8.58976 10.668 8.24929 11.2581 8.03081 11.8967C7.87247 12.3576 7.95581 12.8684 8.25247 13.2551L8.50414 13.5834L8.25247 13.9117C8.10637 14.1023 8.00967 14.3261 7.97099 14.5631C7.93231 14.8001 7.95286 15.043 8.03081 15.2701C8.24929 15.9087 8.58976 16.4988 9.03331 17.0076C9.35414 17.3751 9.83747 17.5576 10.3216 17.4942L10.7308 17.4409L10.8891 17.8226C10.9091 17.8692 10.9308 17.9142 10.9541 17.9584ZM10.2441 1.15841V4.41675C10.2441 4.63776 10.3319 4.84972 10.4882 5.006C10.6445 5.16228 10.8565 5.25008 11.0775 5.25008H14.3358C14.2943 5.15933 14.237 5.07666 14.1666 5.00591L10.4883 1.32758C10.4178 1.25694 10.3351 1.19963 10.2441 1.15841ZM3.99414 5.44258H7.74414C7.9099 5.44258 8.06887 5.37673 8.18608 5.25952C8.30329 5.14231 8.36914 4.98334 8.36914 4.81758C8.36914 4.65182 8.30329 4.49285 8.18608 4.37564C8.06887 4.25843 7.9099 4.19258 7.74414 4.19258H3.99414C3.82838 4.19258 3.66941 4.25843 3.5522 4.37564C3.43499 4.49285 3.36914 4.65182 3.36914 4.81758C3.36914 4.98334 3.43499 5.14231 3.5522 5.25952C3.66941 5.37673 3.82838 5.44258 3.99414 5.44258ZM3.99414 14.2084H6.91081C7.07657 14.2084 7.23554 14.1426 7.35275 14.0254C7.46996 13.9081 7.53581 13.7492 7.53581 13.5834C7.53581 13.4177 7.46996 13.2587 7.35275 13.1415C7.23554 13.0243 7.07657 12.9584 6.91081 12.9584H3.99414C3.82838 12.9584 3.66941 13.0243 3.5522 13.1415C3.43499 13.2587 3.36914 13.4177 3.36914 13.5834C3.36914 13.7492 3.43499 13.9081 3.5522 14.0254C3.66941 14.1426 3.82838 14.2084 3.99414 14.2084ZM3.99414 11.2917H6.91081C7.07657 11.2917 7.23554 11.2259 7.35275 11.1087C7.46996 10.9915 7.53581 10.8325 7.53581 10.6667C7.53581 10.501 7.46996 10.342 7.35275 10.2248C7.23554 10.1076 7.07657 10.0417 6.91081 10.0417H3.99414C3.82838 10.0417 3.66941 10.1076 3.5522 10.2248C3.43499 10.342 3.36914 10.501 3.36914 10.6667C3.36914 10.8325 3.43499 10.9915 3.5522 11.1087C3.66941 11.2259 3.82838 11.2917 3.99414 11.2917ZM3.99414 8.37508H9.82747C9.99323 8.37508 10.1522 8.30923 10.2694 8.19202C10.3866 8.07481 10.4525 7.91584 10.4525 7.75008C10.4525 7.58432 10.3866 7.42535 10.2694 7.30814C10.1522 7.19093 9.99323 7.12508 9.82747 7.12508H3.99414C3.82838 7.12508 3.66941 7.19093 3.5522 7.30814C3.43499 7.42535 3.36914 7.58432 3.36914 7.75008C3.36914 7.91584 3.43499 8.07481 3.5522 8.19202C3.66941 8.30923 3.82838 8.37508 3.99414 8.37508Z" fill="#07485E"/>
</svg>
