<svg width="24" height="24" viewBox="0 0 24 24" fill="none" xmlns="http://www.w3.org/2000/svg">
<path d="M13 6.49095V16C13 16.2652 12.8947 16.5195 12.7071 16.7071C12.5196 16.8946 12.2652 17 12 17C11.7348 17 11.4805 16.8946 11.2929 16.7071C11.1054 16.5195 11 16.2652 11 16V6.49095L9.78403 7.69695C9.58727 7.89152 9.32173 8.00064 9.04502 8.00064C8.76832 8.00064 8.50278 7.89152 8.30602 7.69695C8.209 7.60123 8.13196 7.48718 8.07938 7.36143C8.0268 7.23569 7.99972 7.10075 7.99972 6.96445C7.99972 6.82815 8.0268 6.69322 8.07938 6.56747C8.13196 6.44172 8.209 6.32768 8.30602 6.23195L11.261 3.30295C11.4578 3.10839 11.7233 2.99927 12 2.99927C12.2767 2.99927 12.5423 3.10839 12.739 3.30295L15.694 6.23295C16.102 6.63695 16.102 7.29295 15.694 7.69695C15.4973 7.89152 15.2317 8.00064 14.955 8.00064C14.6783 8.00064 14.4128 7.89152 14.216 7.69695L13 6.48995V6.49095ZM9.00002 8.99995V11H7.00003C6.99803 11 7.00003 18.991 7.00003 18.991C7.00003 18.995 16.994 19 16.994 19C16.997 19 17 11.009 17 11.009C17 11.003 15 11 15 11V8.99995H17C18.105 8.99995 19 9.90195 19 11.009V18.991C19 20.101 18.103 21 16.994 21H7.00603C6.47373 20.9992 5.9635 20.7871 5.58739 20.4105C5.21127 20.0338 5.00002 19.5233 5.00003 18.991V11.01C4.99871 10.7465 5.04947 10.4853 5.14939 10.2415C5.24931 9.99771 5.39642 9.77605 5.58226 9.58927C5.76811 9.40249 5.98904 9.25428 6.23234 9.15314C6.47565 9.05201 6.73654 8.99995 7.00003 8.99995H9.00002Z" fill="#68ADC7"/>
</svg>
