<svg width="21" height="20" viewBox="0 0 21 20" fill="none" xmlns="http://www.w3.org/2000/svg">
<path d="M18.0508 18.1798C18.0508 18.3449 18.1923 18.4629 18.3575 18.4629C18.5226 18.4629 18.6406 18.3213 18.6406 18.1562C18.6406 17.991 18.4991 17.873 18.3575 17.873C18.1923 17.8966 18.0508 18.0146 18.0508 18.1798Z" fill="#07485E"/>
<path d="M20.7408 19.5481H17.013V13.0364H20.1273C20.2925 13.0364 20.4105 12.8948 20.4105 12.7533C20.4105 12.6117 20.2689 12.4702 20.1273 12.4702H17.013V11.5264C17.013 11.3613 16.8715 11.2433 16.7299 11.2433C16.5884 11.2433 16.4468 11.3849 16.4468 11.5264V12.4702H14.7717C14.6065 12.4702 14.4886 12.6117 14.4886 12.7533V13.6026H13.9459L12.2236 12.0927C12.1764 12.0455 12.1057 12.0219 12.0349 12.0219H7.31625C7.17469 12.0219 7.03313 12.1398 7.03313 12.2814C7.03313 12.305 7.00954 12.4702 7.00954 12.4702C7.00954 12.8948 7.1511 13.2959 7.38703 13.6262H7.05672L5.87706 11.7859C5.47598 11.0782 4.67381 10.4647 3.82446 10.7478L3.3526 10.913C3.28182 10.9366 3.21104 11.0074 3.18744 11.0782C3.16385 11.1489 3.16385 11.2433 3.21104 11.3141L3.30541 11.4792C2.6448 11.1253 1.79545 11.0782 1.2528 11.6208C1.2528 11.6208 0.898905 11.9747 0.898905 11.9983C0.851718 12.0691 0.828125 12.1398 0.828125 12.2342C0.851718 12.305 0.875311 12.3994 0.946091 12.423C0.946091 12.423 5.19286 15.3485 5.21646 15.3485L11.8225 17.8258C11.8461 17.8258 11.8933 17.8494 11.9169 17.8494H14.465V18.3213C14.465 18.4864 14.6065 18.6044 14.7481 18.6044H16.4232V19.8548C16.4232 20.02 16.5648 20.1379 16.7063 20.1379H20.7172C20.8823 20.1379 21.0003 19.9964 21.0003 19.8548C21.0003 19.7133 20.9059 19.5481 20.7408 19.5481ZM4.0132 11.2905C4.53225 11.1253 5.0749 11.5736 5.35801 12.0691L5.99503 13.06L4.29632 12.0691L3.87164 11.3377L4.0132 11.2905ZM14.465 17.236H11.9641L5.47598 14.8295L1.55951 12.1398L1.65389 12.0455C2.05497 11.6444 2.73917 11.7859 3.21104 12.1163L5.73551 13.579L6.72642 14.1453C6.77361 14.1689 6.82079 14.1925 6.86798 14.1925H11.0912C11.2563 14.1925 11.3743 14.0509 11.3743 13.9093C11.3743 13.7442 11.2327 13.6262 11.0912 13.6262H8.42513C7.97686 13.5554 7.64655 13.06 7.59937 12.6117H11.8933L13.6156 14.1217C13.6628 14.1689 13.7336 14.1925 13.8044 14.1925H14.465V17.236Z" fill="#07485E"/>
<path d="M9.03776 11.0782C12.0341 11.0782 14.4642 8.64811 14.4642 5.65177C14.4642 2.65544 12.0341 0.225342 9.03776 0.225342C6.04143 0.225342 3.61133 2.65544 3.61133 5.65177C3.61133 8.64811 6.04143 11.0782 9.03776 11.0782ZM9.03776 2.01842C9.95789 2.01842 10.4298 2.70263 10.4298 3.41042C10.4298 4.189 9.81633 4.80242 9.03776 4.80242C8.25918 4.80242 7.64576 4.189 7.64576 3.41042C7.64576 2.63185 8.25918 2.01842 9.03776 2.01842ZM6.01783 6.66628C6.04143 6.28879 6.27736 5.93489 6.65485 5.79333C8.212 5.32147 9.88711 5.32147 11.4443 5.79333C11.7982 5.93489 12.0577 6.28879 12.0813 6.66628V9.42668C10.3118 10.8423 7.81091 10.8423 6.04143 9.42668L6.01783 6.66628Z" fill="#07485E"/>
<path d="M10.1468 8.50646C10.2175 8.43568 10.2411 8.31772 10.1939 8.22334L9.321 5.86403C9.27381 5.72247 9.08507 5.62809 8.94351 5.69887C8.87273 5.72247 8.80195 5.79325 8.77836 5.86403L7.90541 8.22334C7.85822 8.31772 7.88182 8.43568 7.95259 8.50646L8.82554 9.61534C8.91992 9.7569 9.10866 9.78049 9.22663 9.68612L9.29741 9.61534L10.1468 8.50646Z" fill="#07485E"/>
</svg>
