<svg width="30" height="30" viewBox="0 0 30 30" fill="none" xmlns="http://www.w3.org/2000/svg">
<path fill-rule="evenodd" clip-rule="evenodd" d="M22.63 8.94857C22.6043 8.90071 22.5721 8.85429 22.5343 8.81214L22.5214 8.79714L22.5114 8.78714C22.5093 8.785 22.5071 8.78286 22.505 8.78071L18.9336 5.20929L18.9207 5.19643L18.9071 5.18357L18.9021 5.18C18.86 5.14214 18.8136 5.11 18.7657 5.08429C18.665 5.03071 18.5507 5 18.4286 5H7.71429C7.32 5 7 5.32 7 5.71429V24.2857C7 24.68 7.32 25 7.71429 25H22C22.3943 25 22.7143 24.68 22.7143 24.2857V9.28571C22.7143 9.16357 22.6836 9.04929 22.63 8.94857ZM12.7143 18.9286H17C17.3943 18.9286 17.7143 18.6086 17.7143 18.2143C17.7143 17.82 17.3943 17.5 17 17.5H12.7143C12.32 17.5 12 17.82 12 18.2143C12 18.6086 12.32 18.9286 12.7143 18.9286ZM11.2857 15.7143H18.4286C18.8229 15.7143 19.1429 15.3943 19.1429 15C19.1429 14.6057 18.8229 14.2857 18.4286 14.2857H11.2857C10.8914 14.2857 10.5714 14.6057 10.5714 15C10.5714 15.3943 10.8914 15.7143 11.2857 15.7143ZM19.1429 8.57143H20.2757L19.1429 7.43857V8.57143Z" fill="#07485E"/>
</svg>
