<svg width="14" height="14" viewBox="0 0 14 14" fill="none" xmlns="http://www.w3.org/2000/svg">
<path d="M10.3627 2.89148H9.67642C9.67642 1.8193 8.47577 0.947044 6.99995 0.947044C5.52413 0.947044 4.32348 1.81933 4.32348 2.89148H3.63721C3.63721 2.17048 3.99959 1.49889 4.65756 1.00041C5.28715 0.523421 6.11902 0.260742 6.99995 0.260742C7.88088 0.260742 8.71276 0.523421 9.34234 1.00038C10.0003 1.49886 10.3627 2.17045 10.3627 2.89148Z" fill="url(#paint0_linear_55_662)"/>
<path d="M9.3424 1.00042C9.02328 0.758688 8.65209 0.572268 8.24902 0.446899V1.17221C9.09723 1.49877 9.67647 2.14686 9.67647 2.89149H10.3627C10.3627 2.17049 10.0004 1.4989 9.3424 1.00042Z" fill="url(#paint1_linear_55_662)"/>
<path d="M4.85659 2.47637L4.76166 2.43877C4.40684 2.29824 4.0118 2.29824 3.65698 2.43877L3.56205 2.47637C3.48038 2.50872 3.41031 2.56487 3.36093 2.63753C3.31156 2.71019 3.28516 2.79601 3.28516 2.88386V3.83141C3.28516 4.07347 3.48138 4.26969 3.72344 4.26969H4.69523C4.93729 4.26969 5.13351 4.07347 5.13351 3.83141V2.88386C5.1335 2.79601 5.10709 2.71019 5.05771 2.63753C5.00833 2.56487 4.93826 2.50873 4.85659 2.47637Z" fill="url(#paint2_linear_55_662)"/>
<path d="M10.4382 2.47637L10.3432 2.43877C9.98841 2.29824 9.59337 2.29824 9.23855 2.43877L9.14363 2.47637C9.06194 2.50872 8.99186 2.56487 8.94248 2.63753C8.8931 2.7102 8.8667 2.79603 8.8667 2.88388V3.83144C8.8667 4.0735 9.06292 4.26972 9.30498 4.26972H10.2768C10.5188 4.26972 10.7151 4.0735 10.7151 3.83144V2.88388C10.7151 2.79603 10.6887 2.7102 10.6393 2.63754C10.5899 2.56487 10.5198 2.50872 10.4382 2.47637Z" fill="url(#paint3_linear_55_662)"/>
<path d="M3.11884 14H2.51769C2.32992 14 2.17773 13.8478 2.17773 13.6601V13.1216H3.45879V13.6601C3.45879 13.8478 3.30657 14 3.11884 14Z" fill="url(#paint4_linear_55_662)"/>
<path d="M11.4821 14H10.881C10.6932 14 10.541 13.8478 10.541 13.6601V13.1216H11.8221V13.6601C11.822 13.8478 11.6698 14 11.4821 14Z" fill="url(#paint5_linear_55_662)"/>
<path d="M12.2539 13.5883H1.7465C0.922146 13.5883 0.253906 12.9201 0.253906 12.0957V5.03361C0.253906 4.20925 0.922173 3.54102 1.7465 3.54102H12.2539C13.0782 3.54102 13.7465 4.20928 13.7465 5.03361V12.0957C13.7465 12.9201 13.0782 13.5883 12.2539 13.5883Z" fill="url(#paint6_linear_55_662)"/>
<path d="M13.7463 8.1687C13.3727 8.54234 12.8659 8.75225 12.3375 8.75225H0.537598L5.37366 13.5883H12.2537C13.0781 13.5883 13.7463 12.9201 13.7463 12.0957V8.1687H13.7463Z" fill="url(#paint7_linear_55_662)"/>
<path d="M12.7581 9.02605L7.50957 9.48132C7.17048 9.51072 6.82949 9.51072 6.4904 9.48132L1.24191 9.02605C0.539329 8.96511 0 8.37697 0 7.67172V4.52299C0 3.69863 0.668267 3.0304 1.49259 3.0304H12.5074C13.3317 3.0304 14 3.69866 14 4.52299V7.67175C14 8.37697 13.4607 8.96511 12.7581 9.02605Z" fill="url(#paint8_linear_55_662)"/>
<path d="M0 5.46021V7.67174C0 8.37698 0.539329 8.96512 1.24191 9.02606L6.4904 9.48134C6.82949 9.51074 7.17048 9.51074 7.50957 9.48134L12.7581 9.02606C13.4607 8.96512 14 8.37698 14 7.67177V5.46023L0 5.46021Z" fill="url(#paint9_linear_55_662)"/>
<path d="M0.253906 10.1294V12.0957C0.253906 12.9201 0.922173 13.5884 1.7465 13.5884H12.2539C13.0782 13.5884 13.7465 12.9201 13.7465 12.0957V10.1294H0.253906Z" fill="url(#paint10_linear_55_662)"/>
<path d="M13.7464 9.96338V12.0958C13.7464 12.4927 13.5913 12.8537 13.3385 13.1211L10.2593 10.0419C10.1421 9.98726 10.0609 9.86867 10.0609 9.73059V9.41299C10.0161 9.37201 9.98041 9.32217 9.95598 9.26664C9.93154 9.21111 9.91893 9.1511 9.91895 9.09044V8.14283C9.91895 7.90071 10.1152 7.70471 10.3573 7.70471H11.3291C11.4927 7.70471 11.6352 7.79448 11.7104 7.92734L13.7464 9.96338Z" fill="url(#paint11_linear_55_662)"/>
<path d="M9.73999 13.5883H6.17411L2.62799 10.0419C2.51077 9.98726 2.42952 9.86867 2.42952 9.73059V9.41299C2.38478 9.37201 2.34906 9.32217 2.32463 9.26664C2.30019 9.21111 2.28758 9.1511 2.2876 9.09044V8.14283C2.2876 7.90071 2.48387 7.70471 2.72599 7.70471H3.69775C3.86136 7.70471 4.00383 7.79448 4.07905 7.92734L9.73999 13.5883Z" fill="url(#paint12_linear_55_662)"/>
<path d="M3.62271 10.0471H2.74568C2.55577 10.0471 2.40186 9.89317 2.40186 9.70329V9.14124H3.96656V9.70329C3.96653 9.89317 3.81259 10.0471 3.62271 10.0471Z" fill="url(#paint13_linear_55_662)"/>
<path d="M3.83171 9.47044L3.73679 9.50805C3.38197 9.64857 2.98693 9.64857 2.6321 9.50805L2.53715 9.47044C2.45548 9.43809 2.38541 9.38195 2.33603 9.30929C2.28666 9.23663 2.26026 9.15081 2.26025 9.06296V8.11541C2.26025 7.87334 2.45647 7.67712 2.69854 7.67712H3.67033C3.91239 7.67712 4.10861 7.87334 4.10861 8.11541V9.06296C4.10862 9.15081 4.08222 9.23664 4.03285 9.3093C3.98347 9.38196 3.9134 9.4381 3.83171 9.47044Z" fill="url(#paint14_linear_55_662)"/>
<path d="M11.2541 10.0471H10.377C10.1871 10.0471 10.0332 9.89317 10.0332 9.70329V9.14124H11.5979V9.70329C11.5979 9.89317 11.4439 10.0471 11.2541 10.0471Z" fill="url(#paint15_linear_55_662)"/>
<path d="M11.463 9.47044L11.3681 9.50805C11.0133 9.64857 10.6182 9.64857 10.2634 9.50805L10.1685 9.47044C10.0868 9.43809 10.0168 9.38195 9.96738 9.30929C9.918 9.23663 9.8916 9.15081 9.8916 9.06296V8.11541C9.8916 7.87334 10.0878 7.67712 10.3299 7.67712H11.3017C11.5437 7.67712 11.74 7.87334 11.74 8.11541V9.06296C11.74 9.15081 11.7136 9.23663 11.6642 9.30929C11.6148 9.38195 11.5447 9.4381 11.463 9.47044Z" fill="url(#paint16_linear_55_662)"/>
<path d="M11.6352 9.12342C9.8705 7.34289 8.40769 5.86562 8.39839 5.85162C8.37804 5.82091 8.35041 5.79573 8.31795 5.77832C8.2855 5.76091 8.24924 5.75181 8.21241 5.75183H5.84229C5.81298 5.75183 5.78397 5.7576 5.75689 5.76881C5.72981 5.78002 5.70521 5.79646 5.68449 5.81718C5.66377 5.8379 5.64733 5.8625 5.63612 5.88958C5.62491 5.91666 5.61914 5.94567 5.61914 5.97498V6.3484C5.61914 6.41002 5.64412 6.4658 5.6845 6.50618C5.69735 6.51903 6.92317 7.73549 8.58816 9.38771L11.6352 9.12342Z" fill="url(#paint17_linear_55_662)"/>
<path d="M8.18506 6.52955H5.81495C5.78564 6.52956 5.75662 6.52379 5.72955 6.51257C5.70247 6.50136 5.67787 6.48492 5.65715 6.4642C5.63643 6.44348 5.61999 6.41888 5.60878 6.3918C5.59756 6.36473 5.59179 6.33571 5.5918 6.3064V5.93299C5.5918 5.80973 5.69172 5.70984 5.81495 5.70984H8.18509C8.30835 5.70984 8.40824 5.80976 8.40824 5.93299V6.3064C8.40823 6.36559 8.38472 6.42235 8.34286 6.4642C8.30101 6.50604 8.24425 6.52955 8.18506 6.52955Z" fill="url(#paint18_linear_55_662)"/>
<path d="M8.68446 1.71213C7.56858 1.23042 6.42994 1.23092 5.31516 1.71213C5.13563 1.78963 4.92659 1.72125 4.82971 1.55138L4.53657 1.03744C4.42391 0.839935 4.50804 0.589609 4.71588 0.497319C6.20893 -0.165732 7.79041 -0.165814 9.28375 0.497319C9.49158 0.589609 9.57571 0.839907 9.46306 1.03744L9.16991 1.55138C9.073 1.72122 8.86399 1.78963 8.68446 1.71213Z" fill="url(#paint19_linear_55_662)"/>
<defs>
<linearGradient id="paint0_linear_55_662" x1="6.99995" y1="0.260742" x2="6.99995" y2="2.89148" gradientUnits="userSpaceOnUse">
<stop stop-color="#E6EEFF"/>
<stop offset="1" stop-color="#BAC8FA"/>
</linearGradient>
<linearGradient id="paint1_linear_55_662" x1="9.96089" y1="2.34928" x2="9.32952" y2="1.77281" gradientUnits="userSpaceOnUse">
<stop stop-color="#A7B7F1" stop-opacity="0"/>
<stop offset="1" stop-color="#A7B7F1"/>
</linearGradient>
<linearGradient id="paint2_linear_55_662" x1="4.20929" y1="2.61703" x2="4.20929" y2="3.18554" gradientUnits="userSpaceOnUse">
<stop stop-color="#FEE45A"/>
<stop offset="1" stop-color="#FEA613"/>
</linearGradient>
<linearGradient id="paint3_linear_55_662" x1="9.79089" y1="2.61703" x2="9.79089" y2="3.18554" gradientUnits="userSpaceOnUse">
<stop stop-color="#FEE45A"/>
<stop offset="1" stop-color="#FEA613"/>
</linearGradient>
<linearGradient id="paint4_linear_55_662" x1="2.81828" y1="13.4693" x2="2.81828" y2="13.8906" gradientUnits="userSpaceOnUse">
<stop stop-color="#5A5A5A"/>
<stop offset="1" stop-color="#444444"/>
</linearGradient>
<linearGradient id="paint5_linear_55_662" x1="11.1815" y1="13.4693" x2="11.1815" y2="13.8906" gradientUnits="userSpaceOnUse">
<stop stop-color="#5A5A5A"/>
<stop offset="1" stop-color="#444444"/>
</linearGradient>
<linearGradient id="paint6_linear_55_662" x1="4.99228" y1="5.9673" x2="10.9766" y2="13.7085" gradientUnits="userSpaceOnUse">
<stop stop-color="#C86D36"/>
<stop offset="1" stop-color="#883F2E"/>
</linearGradient>
<linearGradient id="paint7_linear_55_662" x1="7.14197" y1="12.147" x2="7.14197" y2="9.24728" gradientUnits="userSpaceOnUse">
<stop stop-color="#883F2E" stop-opacity="0"/>
<stop offset="1" stop-color="#6D3326"/>
</linearGradient>
<linearGradient id="paint8_linear_55_662" x1="4.21551" y1="4.38022" x2="11.1332" y2="8.55274" gradientUnits="userSpaceOnUse">
<stop stop-color="#C86D36"/>
<stop offset="1" stop-color="#883F2E"/>
</linearGradient>
<linearGradient id="paint9_linear_55_662" x1="7" y1="6.69808" x2="7" y2="9.99404" gradientUnits="userSpaceOnUse">
<stop stop-color="#883F2E" stop-opacity="0"/>
<stop offset="1" stop-color="#6D3326"/>
</linearGradient>
<linearGradient id="paint10_linear_55_662" x1="7.0002" y1="11.9412" x2="7.0002" y2="13.6266" gradientUnits="userSpaceOnUse">
<stop stop-color="#883F2E" stop-opacity="0"/>
<stop offset="1" stop-color="#6D3326"/>
</linearGradient>
<linearGradient id="paint11_linear_55_662" x1="14.2902" y1="11.3733" x2="11.1333" y2="9.78113" gradientUnits="userSpaceOnUse">
<stop stop-color="#883F2E" stop-opacity="0"/>
<stop offset="1" stop-color="#6D3326"/>
</linearGradient>
<linearGradient id="paint12_linear_55_662" x1="6.15953" y1="11.4402" x2="1.60267" y2="8.31075" gradientUnits="userSpaceOnUse">
<stop stop-color="#883F2E" stop-opacity="0"/>
<stop offset="1" stop-color="#6D3326"/>
</linearGradient>
<linearGradient id="paint13_linear_55_662" x1="3.18418" y1="9.57131" x2="3.18418" y2="9.99233" gradientUnits="userSpaceOnUse">
<stop stop-color="#FEE45A"/>
<stop offset="1" stop-color="#FEA613"/>
</linearGradient>
<linearGradient id="paint14_linear_55_662" x1="2.96454" y1="8.13325" x2="3.4678" y2="9.17639" gradientUnits="userSpaceOnUse">
<stop stop-color="#FEE45A"/>
<stop offset="1" stop-color="#FEA613"/>
</linearGradient>
<linearGradient id="paint15_linear_55_662" x1="10.8155" y1="9.57131" x2="10.8155" y2="9.99233" gradientUnits="userSpaceOnUse">
<stop stop-color="#FEE45A"/>
<stop offset="1" stop-color="#FEA613"/>
</linearGradient>
<linearGradient id="paint16_linear_55_662" x1="10.5959" y1="8.13325" x2="11.0991" y2="9.17639" gradientUnits="userSpaceOnUse">
<stop stop-color="#FEE45A"/>
<stop offset="1" stop-color="#FEA613"/>
</linearGradient>
<linearGradient id="paint17_linear_55_662" x1="9.39" y1="9.00131" x2="7.16644" y2="5.40523" gradientUnits="userSpaceOnUse">
<stop stop-color="#883F2E" stop-opacity="0"/>
<stop offset="1" stop-color="#6D3326"/>
</linearGradient>
<linearGradient id="paint18_linear_55_662" x1="7" y1="5.90952" x2="7" y2="6.4805" gradientUnits="userSpaceOnUse">
<stop stop-color="#E6EEFF"/>
<stop offset="1" stop-color="#BAC8FA"/>
</linearGradient>
<linearGradient id="paint19_linear_55_662" x1="6.9998" y1="0.255476" x2="6.9998" y2="0.767464" gradientUnits="userSpaceOnUse">
<stop stop-color="#5A5A5A"/>
<stop offset="1" stop-color="#444444"/>
</linearGradient>
</defs>
</svg>
