<svg width="10" height="13" viewBox="0 0 10 13" fill="none" xmlns="http://www.w3.org/2000/svg">
<g opacity="0.6">
<path d="M9.47916 4.875H8.66666V3.79166C8.66666 1.70092 6.96577 0 4.875 0C2.78423 0 1.08334 1.70092 1.08334 3.79166V4.0625C1.08332 4.09807 1.09031 4.1333 1.10391 4.16617C1.11751 4.19905 1.13746 4.22891 1.16262 4.25407C1.18777 4.27922 1.21764 4.29917 1.25051 4.31277C1.28338 4.32638 1.31861 4.33337 1.35418 4.33334H2.4375C2.47307 4.33337 2.5083 4.32638 2.54117 4.31277C2.57404 4.29917 2.60391 4.27922 2.62907 4.25407C2.65422 4.22891 2.67417 4.19905 2.68777 4.16617C2.70138 4.1333 2.70837 4.09807 2.70834 4.0625V3.79166C2.70834 2.59698 3.68032 1.625 4.875 1.625C6.06968 1.625 7.04166 2.59698 7.04166 3.79166V4.875H0.270842C0.235268 4.87498 0.200038 4.88197 0.167167 4.89557C0.134297 4.90917 0.10443 4.92912 0.0792756 4.95428C0.054121 4.97943 0.0341719 5.0093 0.0205691 5.04217C0.00696632 5.07504 -2.33093e-05 5.11027 5.83989e-08 5.14584V11.9167C5.83989e-08 12.5142 0.48585 13 1.08334 13H8.66668C9.26415 13 9.75 12.5142 9.75 11.9167V5.14584C9.75002 5.11027 9.74303 5.07504 9.72943 5.04217C9.71583 5.0093 9.69588 4.97943 9.67072 4.95428C9.64557 4.92912 9.6157 4.90917 9.58283 4.89557C9.54996 4.88197 9.51473 4.87498 9.47916 4.875ZM5.68593 10.5326C5.69012 10.5705 5.68628 10.6088 5.67466 10.6451C5.66304 10.6813 5.6439 10.7148 5.61849 10.7431C5.59309 10.7715 5.56198 10.7942 5.52721 10.8098C5.49243 10.8253 5.45477 10.8333 5.41668 10.8333H4.33334C4.29525 10.8333 4.25759 10.8253 4.22282 10.8098C4.18804 10.7942 4.15694 10.7715 4.13153 10.7431C4.10612 10.7148 4.08699 10.6813 4.07537 10.6451C4.06375 10.6088 4.05991 10.5705 4.0641 10.5326L4.23495 8.99623C3.95751 8.79442 3.79168 8.47519 3.79168 8.125C3.79168 7.52753 4.27753 7.04166 4.87503 7.04166C5.47252 7.04166 5.95837 7.52751 5.95837 8.125C5.95837 8.47519 5.79254 8.79442 5.5151 8.99623L5.68593 10.5326Z" fill="black"/>
</g>
</svg>
