<svg width="13" height="13" viewBox="0 0 13 13" fill="none" xmlns="http://www.w3.org/2000/svg">
<path d="M11.7 0H1.3C0.585 0 0.00649999 0.585 0.00649999 1.3L0 13L2.6 10.4H11.7C12.415 10.4 13 9.815 13 9.1V1.3C13 0.585 12.415 0 11.7 0ZM9.75 7.8H3.25C2.8925 7.8 2.6 7.5075 2.6 7.15C2.6 6.7925 2.8925 6.5 3.25 6.5H9.75C10.1075 6.5 10.4 6.7925 10.4 7.15C10.4 7.5075 10.1075 7.8 9.75 7.8ZM9.75 5.85H3.25C2.8925 5.85 2.6 5.5575 2.6 5.2C2.6 4.8425 2.8925 4.55 3.25 4.55H9.75C10.1075 4.55 10.4 4.8425 10.4 5.2C10.4 5.5575 10.1075 5.85 9.75 5.85ZM9.75 3.9H3.25C2.8925 3.9 2.6 3.6075 2.6 3.25C2.6 2.8925 2.8925 2.6 3.25 2.6H9.75C10.1075 2.6 10.4 2.8925 10.4 3.25C10.4 3.6075 10.1075 3.9 9.75 3.9Z" fill="#F59E0B"/>
</svg>
