<svg width="12" height="13" viewBox="0 0 12 13" fill="none" xmlns="http://www.w3.org/2000/svg">
<path fill-rule="evenodd" clip-rule="evenodd" d="M5.71598 10.9295V11.5774C5.71598 12.0969 5.45704 12.5454 5.0071 12.8052C4.79062 12.9302 4.549 12.9999 4.2985 13C4.04777 13.0001 3.80623 12.9303 3.58959 12.8052L0.70888 11.142C0.258882 10.8822 0 10.4338 0 9.91418V1.41776C0 0.635958 0.635983 0 1.41776 0H7.76213C8.54395 0 9.17999 0.635907 9.17999 1.41776V3.20878C9.17999 3.46571 8.97138 3.67432 8.71445 3.67432C8.45745 3.67432 8.24902 3.46574 8.24902 3.20878V1.41776C8.24902 1.1493 8.03058 0.930869 7.76213 0.930869H2.20281L5.0071 2.5502C5.45689 2.80995 5.71598 3.25835 5.71598 3.77776V9.99853H7.76213C8.03056 9.99853 8.24902 9.78022 8.24902 9.51174V7.94169C8.24902 7.68459 8.45732 7.47615 8.71445 7.47615C8.97148 7.47615 9.17999 7.68464 9.17999 7.94169V9.51174C9.17999 10.2936 8.54395 10.9295 7.76213 10.9295H5.71598ZM10.0294 5.93017L9.51674 6.44283C9.33497 6.6246 9.33502 6.91929 9.51674 7.10108C9.55993 7.14434 9.61124 7.17864 9.66773 7.20201C9.72421 7.22539 9.78475 7.23737 9.84588 7.23728C9.90703 7.2374 9.9676 7.22543 10.0241 7.20206C10.0806 7.17868 10.1319 7.14437 10.1751 7.10108L11.4822 5.79377C11.6639 5.61203 11.664 5.3175 11.4822 5.13575L10.1751 3.82864C9.99335 3.64685 9.69864 3.64692 9.51677 3.82862C9.33505 4.01021 9.3351 4.30502 9.51677 4.48667L10.0294 4.9992H6.59508C6.33789 4.9992 6.12964 5.20761 6.12964 5.46476C6.12964 5.72192 6.33792 5.9302 6.59508 5.9302H10.0294V5.93017Z" fill="#092C38"/>
</svg>
