<svg width="13" height="13" viewBox="0 0 13 13" fill="none" xmlns="http://www.w3.org/2000/svg">
<path d="M6.0706 13L7.44271 12.6834L6.38722 11.6279L6.0706 13ZM5.79984 12.0961L6.02687 11.1123C6.02743 11.1099 6.02824 11.1076 6.02888 11.1053C6.02996 11.1012 6.03105 11.0972 6.03233 11.0932C6.03361 11.0892 6.0349 11.0858 6.03627 11.0822C6.03764 11.0786 6.03884 11.0754 6.0403 11.072C6.04202 11.0681 6.04387 11.0642 6.04585 11.0603C6.04728 11.0574 6.04876 11.0546 6.05025 11.0519C6.05765 11.0386 6.06628 11.0261 6.07603 11.0144C6.07895 11.0108 6.08225 11.0074 6.08546 11.004C6.08677 11.0026 6.08794 11.0011 6.08928 10.9998L9.14875 7.94025C8.29465 6.18345 6.71525 5.13782 4.90301 5.13782C3.57413 5.13782 2.34643 5.70662 1.44606 6.73944C0.539294 7.77964 0.0283455 9.22952 0 10.8348C0.536083 11.1052 2.73731 12.1439 4.90301 12.1439C5.20258 12.1434 5.50192 12.1275 5.79984 12.0961ZM6.58277 11.1646L10.2152 7.53221L11.5361 8.85309L7.90366 12.4855L6.58277 11.1646Z" fill="#092C38"/>
<path d="M4.90299 4.67073C6.19278 4.67073 7.23835 3.62515 7.23835 2.33536C7.23835 1.04558 6.19278 0 4.90299 0C3.6132 0 2.56763 1.04558 2.56763 2.33536C2.56763 3.62515 3.6132 4.67073 4.90299 4.67073Z" fill="#092C38"/>
<path d="M12.1426 7.86213C12.1426 7.67739 12.0878 7.4968 11.9852 7.3432C11.8825 7.1896 11.7366 7.06988 11.5659 6.99919C11.3953 6.9285 11.2074 6.91001 11.0262 6.94605C10.845 6.9821 10.6786 7.07106 10.548 7.20169L11.869 8.52275C11.9561 8.43621 12.0251 8.33325 12.072 8.21986C12.119 8.10646 12.143 7.98487 12.1426 7.86213Z" fill="#092C38"/>
</svg>
