<svg width="14" height="14" viewBox="0 0 14 14" fill="none" xmlns="http://www.w3.org/2000/svg">
<path d="M3.03203 11.4915C3.1487 11.6082 3.3237 11.6665 3.4987 11.6665C3.6737 11.6665 3.8487 11.6082 3.96536 11.4915L5.65703 9.79984C5.89036 9.5665 5.89036 9.15817 5.65703 8.92484C5.4237 8.6915 5.0737 8.6915 4.84036 8.92484L4.08203 9.68317L4.08203 2.85817C4.08203 2.5665 3.8487 2.33317 3.4987 2.33317C3.1487 2.33317 2.91536 2.5665 2.91536 2.85817L2.91536 9.68317L2.15703 8.92484C1.9237 8.6915 1.5737 8.6915 1.34036 8.92484C1.10703 9.15817 1.10703 9.5665 1.34036 9.79984C1.72096 10.1804 2.00641 10.4659 2.19671 10.6562C2.38234 10.8418 2.66078 11.1203 3.03203 11.4915Z" fill="#5B6D74"/>
<path d="M12.25 2.9165H7.58333C7.23333 2.9165 7 3.14984 7 3.49984C7 3.84984 7.23333 4.08317 7.58333 4.08317H12.25C12.6 4.08317 12.8333 3.84984 12.8333 3.49984C12.8333 3.14984 12.6 2.9165 12.25 2.9165Z" fill="#5B6D74"/>
<path d="M7.58333 7.58317H10.5C10.85 7.58317 11.0833 7.34984 11.0833 6.99984C11.0833 6.64984 10.85 6.4165 10.5 6.4165H7.58333C7.23333 6.4165 7 6.64984 7 6.99984C7 7.34984 7.23333 7.58317 7.58333 7.58317Z" fill="#5B6D74"/>
<path d="M7.58333 11.0832H9.33333C9.68333 11.0832 9.91667 10.8498 9.91667 10.4998C9.91667 10.1498 9.68333 9.9165 9.33333 9.9165H7.58333C7.23333 9.9165 7 10.1498 7 10.4998C7 10.8498 7.23333 11.0832 7.58333 11.0832Z" fill="#5B6D74"/>
</svg>
