<svg width="28" height="28" viewBox="0 0 28 28" fill="none" xmlns="http://www.w3.org/2000/svg">
<g clip-path="url(#clip0_3_129)">
<path d="M14 28C21.732 28 28 21.732 28 14C28 6.26801 21.732 0 14 0C6.26801 0 0 6.26801 0 14C0 21.732 6.26801 28 14 28Z" fill="#D2F0FF"/>
<path d="M27.3371 18.266L27.3363 18.2651C27.3614 18.1866 27.3867 18.1081 27.4104 18.029L20.0224 10.641L19.6319 10.234H19.0196L14.9701 6.18454L5.22217 7.89473V20.1052L13.0865 27.9695C13.3885 27.989 13.6929 28 13.9999 28C18.3647 28 22.2621 26.0021 24.8293 22.8714L24.8299 22.8719C25.9366 21.5213 26.799 19.9509 27.3371 18.266Z" fill="#73C8F0"/>
<path d="M14.9701 21.8155L5.22217 20.1053V7.89475L14.9701 6.18451V21.8155Z" fill="#1E73BE"/>
<path d="M10.0744 16.2409C8.70206 16.2409 7.78369 15.0643 7.78369 13.8575C7.78369 12.6291 8.74619 11.474 10.0943 11.474C11.4494 11.474 12.3718 12.683 12.3718 13.8707C12.3718 15.1264 11.3968 16.2409 10.0744 16.2409ZM8.71059 13.8575C8.71059 14.6952 9.23597 15.4332 10.0811 15.4332C10.9279 15.4332 11.4515 14.6753 11.4515 13.8575C11.4515 13.0771 10.9608 12.2884 10.0811 12.2884C9.21317 12.2884 8.71059 13.049 8.71059 13.8575Z" fill="white"/>
<path d="M19.6319 10.2339H15.4509V14.7047L19.6319 11.1931V10.2339ZM15.4509 15.2568V17.766H19.6319V11.7452L15.4509 15.2568Z" fill="#1E73BE"/>
</g>
<defs>
<clipPath id="clip0_3_129">
<rect width="28" height="28" fill="white"/>
</clipPath>
</defs>
</svg>
