<svg width="331" height="148" viewBox="0 0 331 148" fill="none" xmlns="http://www.w3.org/2000/svg">
<path d="M51 9C52.9298 23.2003 55.771 37.2392 60.6492 50.7402C69.6015 75.4294 86.3804 98.6124 110.879 110.177C145.562 126.529 189.52 115.825 218.414 91.2433C243.502 69.9429 258.78 40.09 268 9.00002L51 9Z" fill="#00BAFF"/>
<path d="M-16 45.5314C-4.14413 36.4129 12.8313 32.2583 27.7051 36.5208C37.0281 39.2186 44.7344 44.3444 52.9258 49.7939C59.5543 54.2183 66.3983 58.7506 74.0508 61.826C85.3677 66.3583 98.7326 67.2216 111.666 64.308C124.654 61.3944 136.025 54.9737 143.785 46.1249C147.611 41.8085 150.791 36.8445 153.808 32.0425C160.06 22.2225 165.988 12.9961 176.766 8.89545C192.771 2.79845 210.663 12.4565 217.561 16.8809C221.441 19.3629 225.213 22.1146 228.878 24.8124C236.746 30.5317 244.883 36.4668 254.53 40.0819C275.17 47.7436 301.253 42.5639 316.557 27.78C325.449 19.1471 330.407 7.60052 331 -3.99997L327.767 -3.99997C327.174 6.73722 322.593 17.4205 314.348 25.4059C299.851 39.4344 275.17 44.2904 255.661 37.0603C246.446 33.6072 238.47 27.78 230.818 22.1686C227.099 19.4708 223.273 16.6651 219.285 14.1291C203.819 4.20128 187.867 1.23371 175.58 5.87391C163.832 10.3522 157.365 20.4959 151.114 30.2619C148.096 35.01 145.024 39.866 141.36 44.0206C126.324 61.1246 97.2776 67.5993 75.2364 58.8045C67.9073 55.8909 61.171 51.4126 54.7041 47.0961C46.6745 41.7545 38.3753 36.251 28.5673 33.4453C24.3639 32.2043 19.9449 31.6108 15.5259 31.6108C4.31665 31.6108 -7.0003 35.3337 -16 41.5926L-16 45.5314Z" fill="#383F49"/>
<path d="M140.624 130.359C145.647 127.428 150.778 123.166 150.994 117.412C151.21 111.338 145.701 106.543 140.138 103.826C130.038 98.9238 118.21 97.6984 107.3 100.416C96.4435 103.186 86.6136 109.899 80.1864 118.957C69.6544 133.769 80.1324 151.138 98.928 147.515C104.761 146.396 109.784 142.293 115.347 140.215C123.989 137.019 132.522 135.047 140.624 130.359Z" fill="#FF846C"/>
</svg>
