<svg width="490" height="447" viewBox="0 0 490 447" fill="none" xmlns="http://www.w3.org/2000/svg">
<path d="M401.982 407.638C429.034 404.873 461.291 388.838 479.431 367.352C482.744 363.402 486.372 359.294 490 354.95L490 261.975C488.791 261.448 487.555 261.001 486.293 260.632C467.207 254.944 444.098 258.894 423.907 268.452C403.638 278.089 386.05 292.861 370.828 308.897C354.896 325.722 340.463 346.102 341.015 366.325C341.725 393.893 371.774 410.719 401.982 407.638Z" fill="#2C81E7"/>
<path fill-rule="evenodd" clip-rule="evenodd" d="M427.491 155.502C432.939 175.3 450.547 189.001 461.996 206.028C489.078 246.021 477.866 305.338 441.466 337.253C405.067 369.168 349.323 373.999 305.264 354.28C261.205 334.481 228.991 292.983 214.304 246.971C201.434 206.424 201.276 161.283 217.858 122.082C230.491 92.0671 253.389 66.0121 282.129 50.6484C310.633 35.3638 349.48 40.1947 379.09 51.5987C400.724 59.9933 420.306 77.3369 424.964 100.145C428.596 118.28 422.596 137.604 427.491 155.502ZM401.751 228.282C377.432 229.311 351.06 270.492 346.322 291.875C343.006 306.605 346.48 324.661 359.745 331.789C368.983 336.778 380.353 335.273 390.381 332.185C409.015 326.483 426.622 315.079 436.334 298.052C452.521 269.859 439.098 226.777 401.751 228.282Z" fill="#FF846C"/>
<path d="M68.7426 450.447C83.8343 426.815 110.778 407.372 138.907 407.135C167.116 406.897 194.376 425.866 209.783 449.182L279 448.629C263.908 386.269 202.593 338.452 138.512 339.005C74.4316 339.558 13.9856 388.482 0 451L68.7426 450.447Z" fill="#5EF0BB"/>
<path d="M86.7396 472C88.8724 455.242 97.6406 437.219 114.466 429.236C131.845 421.015 152.225 425.362 171.894 429.552C174.159 430.079 176.45 430.579 178.767 431.054C209.021 437.298 231.455 432.872 243.699 418.327C250.73 409.948 253.494 399.119 256.18 388.764C258.866 378.25 261.473 368.369 268.029 360.702C278.298 348.845 296.704 344.813 322.613 348.687C325.299 349.108 328.011 349.53 330.75 349.951C348.602 352.876 367.087 355.88 383.912 348.766C395.919 343.628 405.793 333.193 410.296 320.862C416.694 303.314 412.429 284.342 408.242 265.924C403.739 245.767 399.474 226.717 408.4 210.117C415.667 196.6 431.308 187.352 450.187 185.296C463.458 183.794 476.887 185.692 490 188.3L490 183.478C480.126 181.502 470.015 180 459.825 180C456.454 180 453.058 180.185 449.634 180.553C429.175 182.846 412.271 193.043 404.292 207.825C394.418 226.085 399.079 246.874 403.66 267.031C407.61 284.738 411.718 302.997 405.872 319.281C401.765 330.348 392.917 339.754 382.016 344.339C366.534 350.979 348.681 348.054 331.461 345.288C328.722 344.813 326.01 344.392 323.324 344.023C295.677 339.833 275.849 344.418 264.474 357.619C257.128 366.077 254.284 376.985 251.598 387.578C248.913 397.933 246.385 407.656 240.065 415.244C232.324 424.414 215.578 433.82 179.715 426.39C177.45 425.916 175.159 425.441 172.842 424.967C152.383 420.54 131.292 416.035 112.412 424.967C93.77 433.82 84.2118 453.661 82 472L86.7396 472Z" fill="#383F49"/>
<path d="M407.103 51.9533C408.285 50.0101 408.601 47.9116 406.157 46.8234C404.265 45.9684 401.111 45.813 398.116 46.2016C395.041 46.5902 392.045 47.4452 389.286 48.3002C377.855 51.9533 368.158 57.2386 362.325 62.8348C360.432 64.7003 358.935 66.8766 360.984 68.1202C363.034 69.2861 367.37 69.1306 371.154 68.5865C387 66.5657 402.451 59.4149 407.103 51.9533Z" fill="#383F49"/>
<path d="M386.199 81.1939C387.231 79.5208 387.549 77.6884 385.405 76.7323C383.817 75.9356 381.118 75.8559 378.577 76.1746C375.957 76.4933 373.417 77.2103 371.035 78.007C361.269 81.1939 352.933 85.7353 347.931 90.675C346.343 92.2685 345.073 94.1806 346.899 95.2164C348.566 96.2521 352.297 96.0928 355.553 95.6944C369.05 93.8619 382.229 87.6474 386.199 81.1939Z" fill="#383F49"/>
<path d="M392.2 5.12035C393.231 3.44641 393.549 1.61303 391.406 0.656494C389.819 -0.0609057 387.121 -0.140597 384.503 0.178247C381.884 0.49709 379.345 1.21448 376.964 2.01159C367.204 5.20004 358.951 9.74356 353.952 14.6059C352.365 16.2002 351.095 18.1132 352.841 19.2292C354.587 20.2654 358.237 20.106 361.57 19.6277C375.06 17.8741 388.232 11.6567 392.2 5.12035Z" fill="#383F49"/>
<path d="M367.2 40.117C368.231 38.5238 368.549 36.6916 366.406 35.6561C364.819 34.9391 362.121 34.8595 359.503 35.1781C356.963 35.4968 354.424 36.2137 351.964 37.0103C342.204 40.1966 333.951 44.7372 328.952 49.676C327.365 51.2692 326.095 53.1013 327.841 54.2165C329.587 55.2521 333.316 55.0928 336.57 54.6945C350.06 52.8623 363.232 46.649 367.2 40.117Z" fill="#383F49"/>
<path d="M415.459 26.8111C416.159 25.6111 416.392 24.2511 414.837 23.4511C413.671 22.9711 411.727 22.891 409.783 23.131C407.917 23.3711 406.051 23.9311 404.262 24.4911C397.109 26.8911 391.121 30.2511 387.389 34.0111C386.223 35.1311 385.367 36.5712 386.611 37.3712C387.856 38.1712 390.577 38.0912 392.987 37.7712C402.863 36.4112 412.504 31.6911 415.459 26.8111Z" fill="#383F49"/>
<path d="M346.459 4.81112C347.159 3.6111 347.392 2.25108 345.836 1.45107C344.747 0.971069 342.724 0.891049 340.856 1.13105C338.911 1.37105 337.044 1.93107 335.332 2.49107C328.173 4.89109 322.104 8.25115 318.447 12.0112C317.28 13.1312 316.346 14.5712 317.591 15.3712C318.836 16.1712 321.559 16.0912 323.971 15.7712C333.931 14.4112 343.58 9.69116 346.459 4.81112Z" fill="#383F49"/>
</svg>
