<svg width="17" height="19" viewBox="0 0 17 19" fill="none" xmlns="http://www.w3.org/2000/svg">
<path fill-rule="evenodd" clip-rule="evenodd" d="M0 0.95C0 0.42533 0.425329 0 0.95 0L9.5 0L16.625 7.125V18.05C16.625 18.5747 16.1997 19 15.675 19H0.95C0.425329 19 0 18.5747 0 18.05V0.95Z" fill="#F85640"/>
<path d="M5.63222 13.7595C5.63222 13.9325 5.59051 14.0947 5.5071 14.2461C5.42677 14.3975 5.29856 14.5195 5.12246 14.6122C4.94945 14.7049 4.7301 14.7512 4.46441 14.7512H3.92222V15.9932H3.27344V12.7585H4.46441C4.71466 12.7585 4.92783 12.8018 5.10393 12.8883C5.28002 12.9748 5.41132 13.0937 5.49783 13.2451C5.58742 13.3965 5.63222 13.568 5.63222 13.7595ZM4.43661 14.2276C4.6158 14.2276 4.74864 14.1874 4.83514 14.1071C4.92165 14.0237 4.9649 13.9078 4.9649 13.7595C4.9649 13.4444 4.7888 13.2868 4.43661 13.2868H3.92222V14.2276H4.43661Z" fill="white"/>
<path d="M7.45528 12.7585C7.79512 12.7585 8.09325 12.825 8.34967 12.9578C8.60919 13.0907 8.80845 13.2807 8.94748 13.5278C9.08959 13.7719 9.16065 14.0561 9.16065 14.3805C9.16065 14.7049 9.08959 14.9891 8.94748 15.2332C8.80845 15.4742 8.60919 15.6611 8.34967 15.7939C8.09325 15.9268 7.79512 15.9932 7.45528 15.9932H6.32455V12.7585H7.45528ZM7.43211 15.4417C7.77195 15.4417 8.03455 15.349 8.21992 15.1637C8.40528 14.9783 8.49797 14.7172 8.49797 14.3805C8.49797 14.0437 8.40528 13.7811 8.21992 13.5927C8.03455 13.4011 7.77195 13.3054 7.43211 13.3054H6.97333V15.4417H7.43211Z" fill="white"/>
<path d="M11.8753 12.7585V13.2822H10.5268V14.1117H11.5602V14.6261H10.5268V15.9932H9.878V12.7585H11.8753Z" fill="white"/>
<path fill-rule="evenodd" clip-rule="evenodd" d="M9.5 0L16.625 7.125H10.45C9.92533 7.125 9.5 6.69967 9.5 6.175V0Z" fill="#D13F2B"/>
</svg>
