<svg width="15" height="15" viewBox="0 0 15 15" fill="none" xmlns="http://www.w3.org/2000/svg">
<path d="M8.16667 4.16659H6.83333V6.83325H4.16667V8.16659H6.83333V10.8333H8.16667V8.16659H10.8333V6.83325H8.16667V4.16659ZM7.5 0.833252C3.82 0.833252 0.833333 3.81992 0.833333 7.49992C0.833333 11.1799 3.82 14.1666 7.5 14.1666C11.18 14.1666 14.1667 11.1799 14.1667 7.49992C14.1667 3.81992 11.18 0.833252 7.5 0.833252ZM7.5 12.8333C4.56 12.8333 2.16667 10.4399 2.16667 7.49992C2.16667 4.55992 4.56 2.16659 7.5 2.16659C10.44 2.16659 12.8333 4.55992 12.8333 7.49992C12.8333 10.4399 10.44 12.8333 7.5 12.8333Z" fill="#DADEE6"/>
</svg>
