<svg width="26" height="26" viewBox="0 0 26 26" fill="none" xmlns="http://www.w3.org/2000/svg">
<path d="M18.447 0H7.553C2.821 0 0 2.821 0 7.553V18.434C0 23.179 2.821 26 7.553 26H18.434C23.166 26 25.987 23.179 25.987 18.447V7.553C26 2.821 23.179 0 18.447 0ZM7.319 20.995C7.319 21.528 6.877 21.97 6.344 21.97C5.811 21.97 5.369 21.528 5.369 20.995V18.304C5.369 17.771 5.811 17.329 6.344 17.329C6.877 17.329 7.319 17.771 7.319 18.304V20.995ZM13.975 20.995C13.975 21.528 13.533 21.97 13 21.97C12.467 21.97 12.025 21.528 12.025 20.995V15.6C12.025 15.067 12.467 14.625 13 14.625C13.533 14.625 13.975 15.067 13.975 15.6V20.995ZM20.631 20.995C20.631 21.528 20.189 21.97 19.656 21.97C19.123 21.97 18.681 21.528 18.681 20.995V12.909C18.681 12.376 19.123 11.934 19.656 11.934C20.189 11.934 20.631 12.376 20.631 12.909V20.995ZM20.631 8.801C20.631 9.334 20.189 9.776 19.656 9.776C19.123 9.776 18.681 9.334 18.681 8.801V7.54C15.366 10.946 11.219 13.351 6.578 14.508C6.5 14.534 6.422 14.534 6.344 14.534C5.902 14.534 5.512 14.235 5.395 13.793C5.265 13.273 5.577 12.74 6.11 12.61C10.491 11.518 14.391 9.217 17.485 5.967H15.86C15.327 5.967 14.885 5.525 14.885 4.992C14.885 4.459 15.327 4.017 15.86 4.017H19.669C19.721 4.017 19.76 4.043 19.812 4.043C19.877 4.056 19.942 4.056 20.007 4.082C20.072 4.108 20.124 4.147 20.189 4.186C20.228 4.212 20.267 4.225 20.306 4.251C20.319 4.264 20.319 4.277 20.332 4.277C20.384 4.329 20.423 4.381 20.462 4.433C20.501 4.485 20.54 4.524 20.553 4.576C20.579 4.628 20.579 4.68 20.592 4.745C20.605 4.81 20.631 4.875 20.631 4.953C20.631 4.966 20.644 4.979 20.644 4.992V8.801H20.631Z" fill="white"/>
</svg>
