<svg xmlns="http://www.w3.org/2000/svg" version="1.1" xmlns:xlink="http://www.w3.org/1999/xlink" xmlns:svgjs="http://svgjs.com/svgjs" width="512" height="512" x="0" y="0" viewBox="0 0 512 512" style="enable-background:new 0 0 512 512" xml:space="preserve" class=""><g><path d="M360 288c-61.856 0-112 50.144-112 112s50.144 112 112 112 112-50.144 112-112-50.144-112-112-112zm57.344 127H375v42.344h-30V415h-42.344v-30H345v-42.344h30V385h42.344z" fill="#000000" data-original="#000000"></path><path d="M218 400c0-78.424 63.576-142 142-142V111H249V0H40v448h186.326c-5.385-14.994-8.326-31.153-8.326-48zm13.938-78.146-137.253-.018.004-30 137.253.018zm73.436-60.241-210.688-.018.002-30 210.688.018zm.001-90.268v30H94.688v-30zM114.032 73.768l18.286 18.286 33.149-33.149 21.213 21.213-54.362 54.363-39.499-39.5zm70.843 308.291h-90.25v-30h90.25z" fill="#000000" data-original="#000000"></path><path d="M279 15v66h66z" fill="#000000" data-original="#000000"></path></g></svg>