<svg width="27" height="25" viewBox="0 0 27 25" fill="none" xmlns="http://www.w3.org/2000/svg">
<rect width="25" height="25" rx="4" fill="#CE38D9"/>
<g filter="url(#filter0_d_55_819)">
<path d="M8.46726 11.4653H5.78804C5.3528 11.4653 5 11.8181 5 12.2534V18.2118C5 18.647 5.3528 18.9998 5.78804 18.9998H8.46722C8.90246 18.9998 9.25527 18.647 9.25527 18.2118V12.2534C9.25527 11.8181 8.90246 11.4653 8.46726 11.4653Z" fill="#FADC60"/>
<path d="M6.12086 18.2118V12.2534C6.12086 11.8182 6.47367 11.4653 6.90891 11.4653H5.78804C5.3528 11.4653 5 11.8181 5 12.2534V18.2118C5 18.6471 5.3528 18.9999 5.78804 18.9999H6.90887C6.47367 18.9998 6.12086 18.647 6.12086 18.2118Z" fill="#F2C42C"/>
<path d="M14.2451 8.73267H11.5659C11.1306 8.73267 10.7778 9.08547 10.7778 9.52071V18.2119C10.7778 18.6471 11.1306 18.9999 11.5659 18.9999H14.2451C14.6803 18.9999 15.0331 18.6471 15.0331 18.2119V9.52067C15.0331 9.08547 14.6803 8.73267 14.2451 8.73267Z" fill="#FD6F71"/>
<path d="M11.8987 18.2119V9.52071C11.8987 9.08547 12.2515 8.73267 12.6867 8.73267H11.5659C11.1306 8.73267 10.7778 9.08547 10.7778 9.52071V18.2119C10.7778 18.6471 11.1306 18.9999 11.5659 18.9999H12.6867C12.2515 18.9999 11.8987 18.6471 11.8987 18.2119Z" fill="#E34B4C"/>
<path d="M20.0229 6H17.3437C16.9085 6 16.5557 6.3528 16.5557 6.78804V18.2119C16.5557 18.6472 16.9085 19 17.3437 19H20.0229C20.4581 19 20.8109 18.6472 20.8109 18.2119V6.78804C20.8109 6.3528 20.4581 6 20.0229 6Z" fill="#57D0E6"/>
<path d="M17.6765 18.2119V6.78804C17.6765 6.3528 18.0293 6 18.4645 6H17.3437C16.9085 6 16.5557 6.3528 16.5557 6.78804V18.2119C16.5557 18.6472 16.9085 19 17.3437 19H18.4645C18.0293 19 17.6765 18.6472 17.6765 18.2119Z" fill="#4DB8CC"/>
</g>
<defs>
<filter id="filter0_d_55_819" x="3" y="4" width="23.811" height="21" filterUnits="userSpaceOnUse" color-interpolation-filters="sRGB">
<feFlood flood-opacity="0" result="BackgroundImageFix"/>
<feColorMatrix in="SourceAlpha" type="matrix" values="0 0 0 0 0 0 0 0 0 0 0 0 0 0 0 0 0 0 127 0" result="hardAlpha"/>
<feOffset dx="2" dy="2"/>
<feGaussianBlur stdDeviation="2"/>
<feComposite in2="hardAlpha" operator="out"/>
<feColorMatrix type="matrix" values="0 0 0 0 0 0 0 0 0 0 0 0 0 0 0 0 0 0 0.24 0"/>
<feBlend mode="normal" in2="BackgroundImageFix" result="effect1_dropShadow_55_819"/>
<feBlend mode="normal" in="SourceGraphic" in2="effect1_dropShadow_55_819" result="shape"/>
</filter>
</defs>
</svg>
