<svg width="26" height="26" viewBox="0 0 26 26" fill="none" xmlns="http://www.w3.org/2000/svg">
<path fill-rule="evenodd" clip-rule="evenodd" d="M5.19194 7.8C5.19194 3.49218 8.68412 0 12.9919 0C17.2998 0 20.7919 3.49218 20.7919 7.8C20.7919 12.1078 17.2998 15.6 12.9919 15.6C8.68412 15.6 5.19194 12.1078 5.19194 7.8Z" fill="white"/>
<path fill-rule="evenodd" clip-rule="evenodd" d="M4.45216 19.3732C6.56457 18.4876 9.38223 18.2 12.9919 18.2C16.5942 18.2 19.4076 18.4865 21.5181 19.3675C23.7835 20.3131 25.174 21.9196 25.9152 24.2563C26.1906 25.1247 25.5393 26 24.6389 26H1.33691C0.440206 26 -0.207233 25.1286 0.0659105 24.265C0.804921 21.9285 2.19049 20.3213 4.45216 19.3732Z" fill="white"/>
</svg>
