<svg width="22" height="26" viewBox="0 0 22 26" fill="none" xmlns="http://www.w3.org/2000/svg">
<path d="M12.1511 17.9292C11.7719 18.4708 11.3927 18.9583 11.0136 19.5C10.5802 18.9583 10.2011 18.4708 9.87607 17.9292L10.4177 15.7625L9.93024 14.5708H12.2052L11.7177 15.7625L12.1511 17.9292ZM17.0261 7.09583V4.92917L15.6719 4.82083C15.5636 4.3875 15.4011 3.95417 15.1844 3.575L16.0511 2.54583L14.5344 1.02917L13.5052 1.89583C13.1261 1.67917 12.6927 1.4625 12.2594 1.35417L12.0969 0H9.93024L9.8219 1.35417C9.38857 1.4625 8.95524 1.67917 8.57607 1.89583L7.5469 1.02917L6.03024 2.54583L6.8969 3.575C6.68024 3.95417 6.51774 4.3875 6.4094 4.82083L5.05524 4.92917V7.09583L6.4094 7.20417C6.51774 7.6375 6.68024 8.07083 6.95107 8.45L6.0844 9.53333L7.60107 11.05L8.6844 10.1833C9.06357 10.4 9.4969 10.5625 9.93024 10.6708L10.0927 12.0792H12.2594L12.4219 10.6708C12.8552 10.5625 13.2886 10.4 13.6677 10.1833L14.7511 11.05L16.2677 9.53333L15.4011 8.45C15.6177 8.07083 15.7802 7.6375 15.9427 7.20417L17.0261 7.09583ZM11.0136 9.1C9.3344 9.1 7.92607 7.74583 7.92607 6.0125C7.92607 4.27917 9.28024 2.925 11.0136 2.925C12.6927 2.925 14.1011 4.27917 14.1011 6.0125C14.1011 7.74583 12.6927 9.1 11.0136 9.1Z" fill="white"/>
<path d="M11.0135 7.36666C11.7614 7.36666 12.3677 6.76038 12.3677 6.01249C12.3677 5.26461 11.7614 4.65833 11.0135 4.65833C10.2656 4.65833 9.65936 5.26461 9.65936 6.01249C9.65936 6.76038 10.2656 7.36666 11.0135 7.36666Z" fill="white"/>
<path d="M19.8969 26H2.13022C0.830219 26 -0.144781 24.8625 0.0177188 23.5625C0.451052 20.6375 1.37189 15.9791 2.88855 14.7875C3.75522 14.1375 5.05522 13.7042 6.51772 13.3792C7.22189 16.1417 8.79272 18.6875 10.9594 21.1791C13.1261 18.7416 14.6969 16.1417 15.4011 13.3792C16.9177 13.7042 18.2177 14.1375 19.0302 14.7875C20.6011 15.9791 21.5219 20.6375 21.9011 23.5625C22.1719 24.8625 21.1969 26 19.8969 26Z" fill="white"/>
</svg>
