<svg width="26" height="26" viewBox="0 0 26 26" fill="none" xmlns="http://www.w3.org/2000/svg">
<circle opacity="0.2" cx="13" cy="13" r="13" fill="#2C81E7"/>
<g clip-path="url(#clip0_55_659)">
<path d="M16.3627 8.89148H15.6764C15.6764 7.8193 14.4758 6.94704 13 6.94704C11.5241 6.94704 10.3235 7.81933 10.3235 8.89148H9.63721C9.63721 8.17048 9.99959 7.49889 10.6576 7.00041C11.2871 6.52342 12.119 6.26074 13 6.26074C13.8809 6.26074 14.7128 6.52342 15.3423 7.00038C16.0003 7.49886 16.3627 8.17045 16.3627 8.89148Z" fill="url(#paint0_linear_55_659)"/>
<path d="M15.3424 7.00042C15.0233 6.75869 14.6521 6.57227 14.249 6.4469V7.17221C15.0972 7.49877 15.6765 8.14686 15.6765 8.89149H16.3627C16.3627 8.17049 16.0004 7.4989 15.3424 7.00042Z" fill="url(#paint1_linear_55_659)"/>
<path d="M10.8566 8.47637L10.7617 8.43877C10.4068 8.29824 10.0118 8.29824 9.65698 8.43877L9.56205 8.47637C9.48038 8.50872 9.41031 8.56487 9.36093 8.63753C9.31156 8.71019 9.28516 8.79601 9.28516 8.88386V9.83141C9.28516 10.0735 9.48138 10.2697 9.72344 10.2697H10.6952C10.9373 10.2697 11.1335 10.0735 11.1335 9.83141V8.88386C11.1335 8.79601 11.1071 8.71019 11.0577 8.63753C11.0083 8.56487 10.9383 8.50873 10.8566 8.47637Z" fill="url(#paint2_linear_55_659)"/>
<path d="M16.4382 8.47637L16.3432 8.43877C15.9884 8.29824 15.5934 8.29824 15.2385 8.43877L15.1436 8.47637C15.0619 8.50872 14.9919 8.56487 14.9425 8.63753C14.8931 8.7102 14.8667 8.79603 14.8667 8.88388V9.83144C14.8667 10.0735 15.0629 10.2697 15.305 10.2697H16.2768C16.5188 10.2697 16.7151 10.0735 16.7151 9.83144V8.88388C16.7151 8.79603 16.6887 8.7102 16.6393 8.63754C16.5899 8.56487 16.5198 8.50872 16.4382 8.47637Z" fill="url(#paint3_linear_55_659)"/>
<path d="M9.11884 20H8.51769C8.32992 20 8.17773 19.8478 8.17773 19.6601V19.1216H9.45879V19.6601C9.45879 19.8478 9.30657 20 9.11884 20Z" fill="url(#paint4_linear_55_659)"/>
<path d="M17.4821 20H16.881C16.6932 20 16.541 19.8478 16.541 19.6601V19.1216H17.8221V19.6601C17.822 19.8478 17.6698 20 17.4821 20Z" fill="url(#paint5_linear_55_659)"/>
<path d="M18.2539 19.5883H7.7465C6.92215 19.5883 6.25391 18.9201 6.25391 18.0957V11.0336C6.25391 10.2093 6.92217 9.54102 7.7465 9.54102H18.2539C19.0782 9.54102 19.7465 10.2093 19.7465 11.0336V18.0957C19.7465 18.9201 19.0782 19.5883 18.2539 19.5883Z" fill="url(#paint6_linear_55_659)"/>
<path d="M19.7463 14.1687C19.3727 14.5423 18.8659 14.7523 18.3375 14.7523H6.5376L11.3737 19.5883H18.2537C19.0781 19.5883 19.7463 18.9201 19.7463 18.0957V14.1687H19.7463Z" fill="url(#paint7_linear_55_659)"/>
<path d="M18.7581 15.026L13.5096 15.4813C13.1705 15.5107 12.8295 15.5107 12.4904 15.4813L7.24191 15.026C6.53933 14.9651 6 14.377 6 13.6717V10.523C6 9.69863 6.66827 9.0304 7.49259 9.0304H18.5074C19.3317 9.0304 20 9.69866 20 10.523V13.6718C20 14.377 19.4607 14.9651 18.7581 15.026Z" fill="url(#paint8_linear_55_659)"/>
<path d="M6 11.4602V13.6717C6 14.377 6.53933 14.9651 7.24191 15.0261L12.4904 15.4813C12.8295 15.5107 13.1705 15.5107 13.5096 15.4813L18.7581 15.0261C19.4607 14.9651 20 14.377 20 13.6718V11.4602L6 11.4602Z" fill="url(#paint9_linear_55_659)"/>
<path d="M6.25391 16.1294V18.0957C6.25391 18.9201 6.92217 19.5884 7.7465 19.5884H18.2539C19.0782 19.5884 19.7465 18.9201 19.7465 18.0957V16.1294H6.25391Z" fill="url(#paint10_linear_55_659)"/>
<path d="M19.7464 15.9634V18.0958C19.7464 18.4927 19.5913 18.8537 19.3385 19.1211L16.2593 16.0419C16.1421 15.9873 16.0609 15.8687 16.0609 15.7306V15.413C16.0161 15.372 15.9804 15.3222 15.956 15.2666C15.9315 15.2111 15.9189 15.1511 15.9189 15.0904V14.1428C15.9189 13.9007 16.1152 13.7047 16.3573 13.7047H17.3291C17.4927 13.7047 17.6352 13.7945 17.7104 13.9273L19.7464 15.9634Z" fill="url(#paint11_linear_55_659)"/>
<path d="M15.74 19.5883H12.1741L8.62799 16.0419C8.51077 15.9873 8.42952 15.8687 8.42952 15.7306V15.413C8.38478 15.372 8.34906 15.3222 8.32463 15.2666C8.30019 15.2111 8.28758 15.1511 8.2876 15.0904V14.1428C8.2876 13.9007 8.48387 13.7047 8.72599 13.7047H9.69775C9.86136 13.7047 10.0038 13.7945 10.079 13.9273L15.74 19.5883Z" fill="url(#paint12_linear_55_659)"/>
<path d="M9.62271 16.0471H8.74568C8.55577 16.0471 8.40186 15.8932 8.40186 15.7033V15.1412H9.96656V15.7033C9.96653 15.8932 9.81259 16.0471 9.62271 16.0471Z" fill="url(#paint13_linear_55_659)"/>
<path d="M9.83171 15.4704L9.73679 15.508C9.38197 15.6486 8.98693 15.6486 8.6321 15.508L8.53715 15.4704C8.45548 15.4381 8.38541 15.3819 8.33603 15.3093C8.28666 15.2366 8.26026 15.1508 8.26025 15.063V14.1154C8.26025 13.8733 8.45647 13.6771 8.69854 13.6771H9.67033C9.91239 13.6771 10.1086 13.8733 10.1086 14.1154V15.063C10.1086 15.1508 10.0822 15.2366 10.0328 15.3093C9.98347 15.382 9.9134 15.4381 9.83171 15.4704Z" fill="url(#paint14_linear_55_659)"/>
<path d="M17.2541 16.0471H16.377C16.1871 16.0471 16.0332 15.8932 16.0332 15.7033V15.1412H17.5979V15.7033C17.5979 15.8932 17.4439 16.0471 17.2541 16.0471Z" fill="url(#paint15_linear_55_659)"/>
<path d="M17.463 15.4704L17.3681 15.508C17.0133 15.6486 16.6182 15.6486 16.2634 15.508L16.1685 15.4704C16.0868 15.4381 16.0168 15.3819 15.9674 15.3093C15.918 15.2366 15.8916 15.1508 15.8916 15.063V14.1154C15.8916 13.8733 16.0878 13.6771 16.3299 13.6771H17.3017C17.5437 13.6771 17.74 13.8733 17.74 14.1154V15.063C17.74 15.1508 17.7136 15.2366 17.6642 15.3093C17.6148 15.382 17.5447 15.4381 17.463 15.4704Z" fill="url(#paint16_linear_55_659)"/>
<path d="M17.6352 15.1234C15.8705 13.3429 14.4077 11.8656 14.3984 11.8516C14.378 11.8209 14.3504 11.7957 14.318 11.7783C14.2855 11.7609 14.2492 11.7518 14.2124 11.7518H11.8423C11.813 11.7518 11.784 11.7576 11.7569 11.7688C11.7298 11.78 11.7052 11.7965 11.6845 11.8172C11.6638 11.8379 11.6473 11.8625 11.6361 11.8896C11.6249 11.9167 11.6191 11.9457 11.6191 11.975V12.3484C11.6191 12.41 11.6441 12.4658 11.6845 12.5062C11.6973 12.519 12.9232 13.7355 14.5882 15.3877L17.6352 15.1234Z" fill="url(#paint17_linear_55_659)"/>
<path d="M14.1851 12.5296H11.8149C11.7856 12.5296 11.7566 12.5238 11.7295 12.5126C11.7025 12.5014 11.6779 12.4849 11.6571 12.4642C11.6364 12.4435 11.62 12.4189 11.6088 12.3918C11.5976 12.3647 11.5918 12.3357 11.5918 12.3064V11.933C11.5918 11.8097 11.6917 11.7098 11.8149 11.7098H14.1851C14.3083 11.7098 14.4082 11.8098 14.4082 11.933V12.3064C14.4082 12.3656 14.3847 12.4223 14.3429 12.4642C14.301 12.506 14.2442 12.5296 14.1851 12.5296Z" fill="url(#paint18_linear_55_659)"/>
<path d="M14.6845 7.71213C13.5686 7.23042 12.4299 7.23092 11.3152 7.71213C11.1356 7.78963 10.9266 7.72125 10.8297 7.55138L10.5366 7.03744C10.4239 6.83993 10.508 6.58961 10.7159 6.49732C12.2089 5.83427 13.7904 5.83419 15.2837 6.49732C15.4916 6.58961 15.5757 6.83991 15.4631 7.03744L15.1699 7.55138C15.073 7.72122 14.864 7.78963 14.6845 7.71213Z" fill="url(#paint19_linear_55_659)"/>
</g>
<defs>
<linearGradient id="paint0_linear_55_659" x1="13" y1="6.26074" x2="13" y2="8.89148" gradientUnits="userSpaceOnUse">
<stop stop-color="#E6EEFF"/>
<stop offset="1" stop-color="#BAC8FA"/>
</linearGradient>
<linearGradient id="paint1_linear_55_659" x1="15.9609" y1="8.34928" x2="15.3295" y2="7.77281" gradientUnits="userSpaceOnUse">
<stop stop-color="#A7B7F1" stop-opacity="0"/>
<stop offset="1" stop-color="#A7B7F1"/>
</linearGradient>
<linearGradient id="paint2_linear_55_659" x1="10.2093" y1="8.61703" x2="10.2093" y2="9.18554" gradientUnits="userSpaceOnUse">
<stop stop-color="#FEE45A"/>
<stop offset="1" stop-color="#FEA613"/>
</linearGradient>
<linearGradient id="paint3_linear_55_659" x1="15.7909" y1="8.61703" x2="15.7909" y2="9.18554" gradientUnits="userSpaceOnUse">
<stop stop-color="#FEE45A"/>
<stop offset="1" stop-color="#FEA613"/>
</linearGradient>
<linearGradient id="paint4_linear_55_659" x1="8.81828" y1="19.4693" x2="8.81828" y2="19.8906" gradientUnits="userSpaceOnUse">
<stop stop-color="#5A5A5A"/>
<stop offset="1" stop-color="#444444"/>
</linearGradient>
<linearGradient id="paint5_linear_55_659" x1="17.1815" y1="19.4693" x2="17.1815" y2="19.8906" gradientUnits="userSpaceOnUse">
<stop stop-color="#5A5A5A"/>
<stop offset="1" stop-color="#444444"/>
</linearGradient>
<linearGradient id="paint6_linear_55_659" x1="10.9923" y1="11.9673" x2="16.9766" y2="19.7085" gradientUnits="userSpaceOnUse">
<stop stop-color="#C86D36"/>
<stop offset="1" stop-color="#883F2E"/>
</linearGradient>
<linearGradient id="paint7_linear_55_659" x1="13.142" y1="18.147" x2="13.142" y2="15.2473" gradientUnits="userSpaceOnUse">
<stop stop-color="#883F2E" stop-opacity="0"/>
<stop offset="1" stop-color="#6D3326"/>
</linearGradient>
<linearGradient id="paint8_linear_55_659" x1="10.2155" y1="10.3802" x2="17.1332" y2="14.5527" gradientUnits="userSpaceOnUse">
<stop stop-color="#C86D36"/>
<stop offset="1" stop-color="#883F2E"/>
</linearGradient>
<linearGradient id="paint9_linear_55_659" x1="13" y1="12.6981" x2="13" y2="15.994" gradientUnits="userSpaceOnUse">
<stop stop-color="#883F2E" stop-opacity="0"/>
<stop offset="1" stop-color="#6D3326"/>
</linearGradient>
<linearGradient id="paint10_linear_55_659" x1="13.0002" y1="17.9412" x2="13.0002" y2="19.6266" gradientUnits="userSpaceOnUse">
<stop stop-color="#883F2E" stop-opacity="0"/>
<stop offset="1" stop-color="#6D3326"/>
</linearGradient>
<linearGradient id="paint11_linear_55_659" x1="20.2902" y1="17.3733" x2="17.1333" y2="15.7811" gradientUnits="userSpaceOnUse">
<stop stop-color="#883F2E" stop-opacity="0"/>
<stop offset="1" stop-color="#6D3326"/>
</linearGradient>
<linearGradient id="paint12_linear_55_659" x1="12.1595" y1="17.4402" x2="7.60267" y2="14.3107" gradientUnits="userSpaceOnUse">
<stop stop-color="#883F2E" stop-opacity="0"/>
<stop offset="1" stop-color="#6D3326"/>
</linearGradient>
<linearGradient id="paint13_linear_55_659" x1="9.18418" y1="15.5713" x2="9.18418" y2="15.9923" gradientUnits="userSpaceOnUse">
<stop stop-color="#FEE45A"/>
<stop offset="1" stop-color="#FEA613"/>
</linearGradient>
<linearGradient id="paint14_linear_55_659" x1="8.96454" y1="14.1332" x2="9.4678" y2="15.1764" gradientUnits="userSpaceOnUse">
<stop stop-color="#FEE45A"/>
<stop offset="1" stop-color="#FEA613"/>
</linearGradient>
<linearGradient id="paint15_linear_55_659" x1="16.8155" y1="15.5713" x2="16.8155" y2="15.9923" gradientUnits="userSpaceOnUse">
<stop stop-color="#FEE45A"/>
<stop offset="1" stop-color="#FEA613"/>
</linearGradient>
<linearGradient id="paint16_linear_55_659" x1="16.5959" y1="14.1332" x2="17.0991" y2="15.1764" gradientUnits="userSpaceOnUse">
<stop stop-color="#FEE45A"/>
<stop offset="1" stop-color="#FEA613"/>
</linearGradient>
<linearGradient id="paint17_linear_55_659" x1="15.39" y1="15.0013" x2="13.1664" y2="11.4052" gradientUnits="userSpaceOnUse">
<stop stop-color="#883F2E" stop-opacity="0"/>
<stop offset="1" stop-color="#6D3326"/>
</linearGradient>
<linearGradient id="paint18_linear_55_659" x1="13" y1="11.9095" x2="13" y2="12.4805" gradientUnits="userSpaceOnUse">
<stop stop-color="#E6EEFF"/>
<stop offset="1" stop-color="#BAC8FA"/>
</linearGradient>
<linearGradient id="paint19_linear_55_659" x1="12.9998" y1="6.25548" x2="12.9998" y2="6.76746" gradientUnits="userSpaceOnUse">
<stop stop-color="#5A5A5A"/>
<stop offset="1" stop-color="#444444"/>
</linearGradient>
<clipPath id="clip0_55_659">
<rect width="14" height="14" fill="white" transform="translate(6 6)"/>
</clipPath>
</defs>
</svg>
