<svg width="12" height="12" viewBox="0 0 12 12" fill="none" xmlns="http://www.w3.org/2000/svg">
<path d="M11.7336 4.95595L10.3571 4.61745C10.2743 4.35639 10.168 4.10336 10.0395 3.86145C10.2462 3.51743 10.6805 2.79338 10.6805 2.79338C10.7209 2.72614 10.7376 2.64735 10.728 2.56953C10.7184 2.49171 10.6831 2.41933 10.6277 2.36388L9.6334 1.36962C9.57805 1.31402 9.50565 1.27859 9.42778 1.26901C9.34992 1.25942 9.27109 1.27623 9.20391 1.31674L8.1341 1.95773C7.89356 1.83042 7.64204 1.72505 7.38258 1.6429L7.04407 0.266438C7.0251 0.19036 6.98124 0.122811 6.91946 0.074532C6.85768 0.0262533 6.78153 1.84047e-05 6.70312 0L5.29688 0C5.13551 0 4.99474 0.109875 4.95595 0.266414C4.95595 0.266414 4.72146 1.22712 4.61777 1.64255C4.34152 1.72997 4.07432 1.84379 3.81989 1.98244L2.71062 1.31674C2.57191 1.23434 2.39545 1.25564 2.28113 1.36962L1.28686 2.36388C1.23142 2.41933 1.1961 2.49171 1.18652 2.56953C1.17694 2.64735 1.19365 2.72614 1.23398 2.79338L1.91995 3.93905C1.80949 4.15699 1.71683 4.38352 1.6429 4.61641L0.266438 4.95595C0.19036 4.97491 0.122809 5.01877 0.0745292 5.08055C0.0262497 5.14232 1.54645e-05 5.21847 0 5.29688L0 6.70312C0 6.86449 0.109875 7.00526 0.266414 7.04405L1.64323 7.38256C1.72666 7.64726 1.83513 7.90441 1.96664 8.15126L1.35279 9.17435C1.31245 9.24159 1.29574 9.32038 1.30532 9.3982C1.3149 9.47602 1.35022 9.5484 1.40566 9.60384L2.39993 10.5981C2.51358 10.7118 2.69072 10.7334 2.82942 10.651C2.82942 10.651 3.51778 10.2383 3.85493 10.0364C4.09889 10.1665 4.35424 10.2739 4.6178 10.3574L4.95598 11.7336C4.99474 11.8901 5.13551 12 5.29688 12H6.70312C6.78153 12 6.85767 11.9738 6.91944 11.9255C6.98122 11.8772 7.02508 11.8097 7.04405 11.7336L7.38223 10.3575C7.65215 10.272 7.91333 10.1611 8.16225 10.0261C8.50866 10.2338 9.20388 10.651 9.20388 10.651C9.34223 10.7337 9.5194 10.7124 9.63338 10.5981L10.6276 9.60384C10.6831 9.5484 10.7184 9.47602 10.728 9.3982C10.7376 9.32038 10.7209 9.24159 10.6805 9.17435L10.0485 8.12138C10.1731 7.88476 10.2764 7.63751 10.3571 7.38256L11.7336 7.04405C11.8096 7.02509 11.8772 6.98123 11.9255 6.91946C11.9738 6.85768 12 6.78153 12 6.70312V5.29688C12 5.21847 11.9738 5.14233 11.9255 5.08055C11.8772 5.01878 11.8097 4.97492 11.7336 4.95595ZM6 8.46094C4.64318 8.46094 3.53906 7.35682 3.53906 6C3.53906 4.64318 4.64318 3.53906 6 3.53906C7.35682 3.53906 8.46094 4.64318 8.46094 6C8.46094 7.35682 7.35682 8.46094 6 8.46094Z" fill="#0B799D"/>
</svg>
