<svg width="15" height="17" viewBox="0 0 15 17" fill="none" xmlns="http://www.w3.org/2000/svg">
<path d="M12.0137 11.435C11.1992 11.435 10.4653 11.7867 9.956 12.3462L5.37488 9.50893C5.50065 9.18742 5.56513 8.84521 5.565 8.49998C5.56516 8.15475 5.50067 7.81254 5.37488 7.49104L9.956 4.65361C10.4653 5.21315 11.1992 5.56503 12.0137 5.56503C13.548 5.56503 14.7962 4.3168 14.7962 2.78245C14.7962 1.2481 13.548 0 12.0137 0C10.4794 0 9.23111 1.24824 9.23111 2.78258C9.23105 3.1278 9.29553 3.46998 9.42124 3.79149L4.84024 6.62883C4.33091 6.06929 3.59709 5.7174 2.78258 5.7174C1.24824 5.7174 0 6.96577 0 8.49998C0 10.0343 1.24824 11.2826 2.78258 11.2826C3.59705 11.2826 4.33094 10.9308 4.84024 10.3711L9.42127 13.2085C9.29554 13.53 9.23105 13.8723 9.23111 14.2175C9.23111 15.7517 10.4793 17 12.0137 17C13.548 17 14.7962 15.7517 14.7962 14.2176C14.7962 12.6832 13.548 11.435 12.0137 11.435ZM10.2457 2.78258C10.2457 1.80774 11.0389 1.01465 12.0137 1.01465C12.9885 1.01465 13.7816 1.80774 13.7816 2.78258C13.7816 3.75742 12.9885 4.55051 12.0137 4.55051C11.0388 4.55051 10.2457 3.75739 10.2457 2.78258ZM2.78258 10.2679C1.80761 10.2679 1.01452 9.47479 1.01452 8.49998C1.01452 7.52518 1.80761 6.73205 2.78258 6.73205C3.75742 6.73205 4.55038 7.52518 4.55038 8.49998C4.55038 9.47479 3.75739 10.2679 2.78258 10.2679ZM10.2457 14.2174C10.2457 13.2426 11.0389 12.4495 12.0137 12.4495C12.9885 12.4495 13.7816 13.2426 13.7816 14.2174C13.7816 15.1922 12.9885 15.9853 12.0137 15.9853C11.0388 15.9853 10.2457 15.1922 10.2457 14.2174V14.2174Z" fill="#383F49"/>
</svg>
