<svg width="12" height="12" viewBox="0 0 12 12" fill="none" xmlns="http://www.w3.org/2000/svg">
<path d="M3.69429 7.28158C3.59746 7.00391 3.75437 6.70349 4.04546 6.61074C4.33712 6.51799 4.65154 6.66791 4.74837 6.94616C4.78337 7.04766 4.87962 7.23024 5.03712 7.41049C5.28562 7.69516 5.59421 7.85616 5.99904 7.85616C6.40329 7.85616 6.71246 7.69516 6.96154 7.41049C7.11904 7.22966 7.21412 7.04766 7.24971 6.94616C7.34654 6.66849 7.66154 6.51799 7.95204 6.61074C8.24371 6.70349 8.40121 7.00333 8.30379 7.28158C8.22796 7.49799 8.07337 7.79258 7.81437 8.08949C7.36871 8.60049 6.76087 8.91666 5.99904 8.91666C5.23721 8.91666 4.62937 8.60049 4.18371 8.08949C3.97179 7.85293 3.80582 7.57895 3.69429 7.28158ZM4.54071 5.41666C4.30864 5.41666 4.08608 5.32447 3.92199 5.16038C3.75789 4.99628 3.66571 4.77373 3.66571 4.54166C3.66571 4.3096 3.75789 4.08704 3.92199 3.92294C4.08608 3.75885 4.30864 3.66666 4.54071 3.66666C4.77277 3.66666 4.99533 3.75885 5.15942 3.92294C5.32352 4.08704 5.41571 4.3096 5.41571 4.54166C5.41571 4.77373 5.32352 4.99628 5.15942 5.16038C4.99533 5.32447 4.77277 5.41666 4.54071 5.41666ZM7.45737 5.41666C7.22531 5.41666 7.00275 5.32447 6.83865 5.16038C6.67456 4.99628 6.58237 4.77373 6.58237 4.54166C6.58237 4.3096 6.67456 4.08704 6.83865 3.92294C7.00275 3.75885 7.22531 3.66666 7.45737 3.66666C7.68944 3.66666 7.912 3.75885 8.07609 3.92294C8.24019 4.08704 8.33237 4.3096 8.33237 4.54166C8.33237 4.77373 8.24019 4.99628 8.07609 5.16038C7.912 5.32447 7.68944 5.41666 7.45737 5.41666ZM10.0824 1.91666H10.6657C10.8204 1.91666 10.9688 1.97812 11.0782 2.08752C11.1876 2.19691 11.249 2.34528 11.249 2.49999C11.249 2.6547 11.1876 2.80308 11.0782 2.91247C10.9688 3.02187 10.8204 3.08333 10.6657 3.08333H10.0824V3.66666C10.0824 3.82137 10.0209 3.96974 9.91152 4.07914C9.80212 4.18854 9.65375 4.24999 9.49904 4.24999C9.34433 4.24999 9.19596 4.18854 9.08656 4.07914C8.97716 3.96974 8.91571 3.82137 8.91571 3.66666V3.08333H8.33237C8.17766 3.08333 8.02929 3.02187 7.91989 2.91247C7.8105 2.80308 7.74904 2.6547 7.74904 2.49999C7.74904 2.34528 7.8105 2.19691 7.91989 2.08752C8.02929 1.97812 8.17766 1.91666 8.33237 1.91666H8.91571V1.33333C8.91571 1.17862 8.97716 1.03024 9.08656 0.920848C9.19596 0.811452 9.34433 0.749994 9.49904 0.749994C9.65375 0.749994 9.80212 0.811452 9.91152 0.920848C10.0209 1.03024 10.0824 1.17862 10.0824 1.33333V1.91666ZM7.16571 0.880077V2.08583C6.29494 1.82641 5.36253 1.86482 4.51606 2.19498C3.66959 2.52514 2.9574 3.12818 2.49224 3.90866C2.02708 4.68914 1.8355 5.60246 1.94785 6.50407C2.06019 7.40568 2.47003 8.24407 3.11249 8.88654C3.75496 9.52901 4.59335 9.93884 5.49496 10.0512C6.39657 10.1635 7.3099 9.97196 8.09037 9.50679C8.87085 9.04163 9.4739 8.32945 9.80405 7.48297C10.1342 6.6365 10.1726 5.70409 9.91321 4.83333H11.119C11.3718 5.94358 11.2568 7.10594 10.7913 8.14514C10.3258 9.18433 9.53513 10.044 8.53839 10.5946C7.54166 11.1451 6.39294 11.3567 5.26546 11.1974C4.13798 11.0381 3.09286 10.5165 2.2877 9.71134C1.48253 8.90617 0.960963 7.86105 0.801647 6.73357C0.642331 5.60609 0.853901 4.45738 1.40445 3.46064C1.95501 2.4639 2.8147 1.67319 3.85389 1.20771C4.89309 0.742238 6.05545 0.627247 7.16571 0.880077Z" fill="black"/>
</svg>
