<svg width="14" height="14" viewBox="0 0 14 14" fill="none" xmlns="http://www.w3.org/2000/svg">
<path d="M9.19041 8.31535H8.72958L8.56624 8.15785C9.13791 7.49285 9.48208 6.62951 9.48208 5.69035C9.48208 3.59618 7.78458 1.89868 5.69041 1.89868C3.59624 1.89868 1.89874 3.59618 1.89874 5.69035C1.89874 7.78451 3.59624 9.48201 5.69041 9.48201C6.62958 9.48201 7.49291 9.13785 8.15791 8.56618L8.31541 8.72951V9.19035L11.2321 12.1012L12.1012 11.232L9.19041 8.31535ZM5.69041 8.31535C4.23791 8.31535 3.06541 7.14285 3.06541 5.69035C3.06541 4.23785 4.23791 3.06535 5.69041 3.06535C7.14291 3.06535 8.31541 4.23785 8.31541 5.69035C8.31541 7.14285 7.14291 8.31535 5.69041 8.31535Z" fill="#C7CED9"/>
</svg>
