<svg width="133" height="127" viewBox="0 0 133 127" fill="none" xmlns="http://www.w3.org/2000/svg">
<path d="M133 63.4983C133 70.0771 121.213 74.7121 119.286 80.6486C117.287 86.8016 124.029 97.4667 120.301 102.586C116.538 107.759 104.287 104.624 99.1137 108.389C93.9922 112.115 93.2102 124.754 87.0591 126.745C81.1226 128.673 73.0863 118.97 66.4998 118.97C59.9132 118.97 51.8843 128.673 45.9405 126.745C39.7875 124.746 39.0055 112.108 33.884 108.389C28.713 104.626 16.462 107.761 12.6969 102.588C8.9706 97.4667 15.711 86.8016 13.7138 80.6505C11.7867 74.714 0 70.0791 0 63.5002C0 56.9213 11.7867 52.2864 13.7141 46.3498C15.7114 40.1984 8.97099 29.5333 12.6973 24.4122C16.4623 19.2393 28.7134 22.3746 33.8863 18.6115C39.0059 14.8852 39.7879 2.24469 45.9409 0.255098C51.8774 -1.67233 59.9136 8.0308 66.5002 8.0308C73.0864 8.0308 81.1157 -1.67233 87.0595 0.255098C93.2109 2.25236 93.9945 14.8925 99.1141 18.6115C104.287 22.3765 116.538 19.2412 120.303 24.4122C124.029 29.5337 117.287 40.1988 119.286 46.3498C121.213 52.2841 133 56.919 133 63.4983Z" fill="#CBF1FF"/>
<path d="M60.6926 86.1078C59.7283 86.1091 58.7733 85.9199 57.8824 85.551C56.9915 85.1821 56.1823 84.6408 55.5012 83.9582L39.131 67.588C36.263 64.7208 36.2623 60.0717 39.129 57.2037C41.9962 54.3358 46.6453 54.335 49.5133 57.2018L60.6922 68.3792L83.5001 45.5732C86.3676 42.7053 91.0172 42.7049 93.8851 45.5724C96.753 48.44 96.7534 53.0895 93.8859 55.9574L65.8851 83.9582C65.2039 84.641 64.3945 85.1824 63.5034 85.5513C62.6123 85.9202 61.657 86.1093 60.6926 86.1078Z" fill="#00BAFF"/>
</svg>
