<svg width="14" height="14" viewBox="0 0 14 14" fill="none" xmlns="http://www.w3.org/2000/svg">
<g clip-path="url(#clip0_19_1658)">
<path d="M10.3627 2.89148H9.67647C9.67647 1.8193 8.47582 0.947044 7 0.947044C5.52418 0.947044 4.32353 1.81933 4.32353 2.89148H3.63726C3.63726 2.17048 3.99964 1.49889 4.65761 1.00041C5.2872 0.523421 6.11907 0.260742 7 0.260742C7.88093 0.260742 8.71281 0.523421 9.34239 1.00038C10.0004 1.49886 10.3627 2.17045 10.3627 2.89148Z" fill="url(#paint0_linear_19_1658)"/>
<path d="M9.34239 1.00042C9.02327 0.758688 8.65208 0.572268 8.24902 0.446899V1.17221C9.09723 1.49877 9.67647 2.14686 9.67647 2.89149H10.3627C10.3627 2.17049 10.0004 1.4989 9.34239 1.00042Z" fill="url(#paint1_linear_19_1658)"/>
<path d="M4.85644 2.47637L4.76151 2.43877C4.40669 2.29824 4.01165 2.29824 3.65683 2.43877L3.5619 2.47637C3.48023 2.50872 3.41016 2.56487 3.36078 2.63753C3.31141 2.71019 3.285 2.79601 3.285 2.88386V3.83141C3.285 4.07347 3.48122 4.26969 3.72329 4.26969H4.69508C4.93714 4.26969 5.13336 4.07347 5.13336 3.83141V2.88386C5.13335 2.79601 5.10694 2.71019 5.05756 2.63753C5.00818 2.56487 4.93811 2.50873 4.85644 2.47637Z" fill="url(#paint2_linear_19_1658)"/>
<path d="M10.4381 2.47637L10.3432 2.43877C9.98838 2.29824 9.59334 2.29824 9.23852 2.43877L9.14359 2.47637C9.06191 2.50872 8.99183 2.56487 8.94245 2.63753C8.89307 2.7102 8.86667 2.79603 8.86667 2.88388V3.83144C8.86667 4.0735 9.06289 4.26972 9.30495 4.26972H10.2767C10.5188 4.26972 10.715 4.0735 10.715 3.83144V2.88388C10.715 2.79603 10.6886 2.7102 10.6393 2.63754C10.5899 2.56487 10.5198 2.50872 10.4381 2.47637Z" fill="url(#paint3_linear_19_1658)"/>
<path d="M3.11887 14H2.51772C2.32996 14 2.17777 13.8478 2.17777 13.6601V13.1216H3.45882V13.6601C3.45882 13.8478 3.30661 14 3.11887 14Z" fill="url(#paint4_linear_19_1658)"/>
<path d="M11.4823 14H10.8812C10.6934 14 10.5412 13.8478 10.5412 13.6601V13.1216H11.8223V13.6601C11.8222 13.8478 11.67 14 11.4823 14Z" fill="url(#paint5_linear_19_1658)"/>
<path d="M12.2537 13.5883H1.74632C0.92197 13.5883 0.253731 12.9201 0.253731 12.0957V5.03361C0.253731 4.20925 0.921998 3.54102 1.74632 3.54102H12.2537C13.0781 3.54102 13.7463 4.20928 13.7463 5.03361V12.0957C13.7463 12.9201 13.078 13.5883 12.2537 13.5883Z" fill="url(#paint6_linear_19_1658)"/>
<path d="M13.7463 8.1687C13.3727 8.54234 12.8659 8.75225 12.3375 8.75225H0.537575L5.37364 13.5883H12.2537C13.078 13.5883 13.7463 12.9201 13.7463 12.0957V8.1687H13.7463Z" fill="url(#paint7_linear_19_1658)"/>
<path d="M12.7581 9.02605L7.50957 9.48132C7.17048 9.51072 6.82949 9.51072 6.4904 9.48132L1.24191 9.02605C0.539329 8.96511 0 8.37697 0 7.67172V4.52299C0 3.69863 0.668267 3.0304 1.49259 3.0304H12.5074C13.3317 3.0304 14 3.69866 14 4.52299V7.67175C14 8.37697 13.4607 8.96511 12.7581 9.02605Z" fill="url(#paint8_linear_19_1658)"/>
<path d="M0 5.46021V7.67174C0 8.37698 0.539329 8.96512 1.24191 9.02606L6.4904 9.48134C6.82949 9.51074 7.17048 9.51074 7.50957 9.48134L12.7581 9.02606C13.4607 8.96512 14 8.37698 14 7.67177V5.46023L0 5.46021Z" fill="url(#paint9_linear_19_1658)"/>
<path d="M0.253704 10.1294V12.0957C0.253704 12.9201 0.921971 13.5884 1.7463 13.5884H12.2537C13.078 13.5884 13.7463 12.9201 13.7463 12.0957V10.1294H0.253704Z" fill="url(#paint10_linear_19_1658)"/>
<path d="M13.7464 9.96338V12.0958C13.7464 12.4927 13.5913 12.8537 13.3384 13.1211L10.2593 10.0419C10.142 9.98726 10.0608 9.86867 10.0608 9.73059V9.41299C10.016 9.37201 9.98033 9.32217 9.95589 9.26664C9.93146 9.21111 9.91885 9.1511 9.91886 9.09044V8.14283C9.91886 7.90071 10.1151 7.70471 10.3573 7.70471H11.329C11.4926 7.70471 11.6351 7.79448 11.7103 7.92734L13.7464 9.96338Z" fill="url(#paint11_linear_19_1658)"/>
<path d="M9.73988 13.5883H6.174L2.62788 10.0419C2.51067 9.98726 2.42941 9.86867 2.42941 9.73059V9.41299C2.38467 9.37201 2.34895 9.32217 2.32452 9.26664C2.30009 9.21111 2.28748 9.1511 2.28749 9.09044V8.14283C2.28749 7.90071 2.48377 7.70471 2.72588 7.70471H3.69765C3.86126 7.70471 4.00373 7.79448 4.07894 7.92734L9.73988 13.5883Z" fill="url(#paint12_linear_19_1658)"/>
<path d="M3.62284 10.0471H2.74581C2.55591 10.0471 2.40199 9.89317 2.40199 9.70329V9.14124H3.9667V9.70329C3.96667 9.89317 3.81272 10.0471 3.62284 10.0471Z" fill="url(#paint13_linear_19_1658)"/>
<path d="M3.83158 9.47044L3.73665 9.50805C3.38183 9.64857 2.98679 9.64857 2.63197 9.50805L2.53702 9.47044C2.45534 9.43809 2.38527 9.38195 2.3359 9.30929C2.28652 9.23663 2.26012 9.15081 2.26012 9.06296V8.11541C2.26012 7.87334 2.45634 7.67712 2.6984 7.67712H3.67019C3.91226 7.67712 4.10848 7.87334 4.10848 8.11541V9.06296C4.10849 9.15081 4.08209 9.23664 4.03271 9.3093C3.98334 9.38196 3.91326 9.4381 3.83158 9.47044Z" fill="url(#paint14_linear_19_1658)"/>
<path d="M11.2542 10.0471H10.3772C10.1873 10.0471 10.0334 9.89317 10.0334 9.70329V9.14124H11.5981V9.70329C11.598 9.89317 11.4441 10.0471 11.2542 10.0471Z" fill="url(#paint15_linear_19_1658)"/>
<path d="M11.463 9.47044L11.368 9.50805C11.0132 9.64857 10.6182 9.64857 10.2633 9.50805L10.1684 9.47044C10.0867 9.43809 10.0167 9.38195 9.9673 9.30929C9.91792 9.23663 9.89152 9.15081 9.89152 9.06296V8.11541C9.89152 7.87334 10.0877 7.67712 10.3298 7.67712H11.3016C11.5437 7.67712 11.7399 7.87334 11.7399 8.11541V9.06296C11.7399 9.15081 11.7135 9.23663 11.6641 9.30929C11.6147 9.38195 11.5446 9.4381 11.463 9.47044Z" fill="url(#paint16_linear_19_1658)"/>
<path d="M11.6353 9.12342C9.8706 7.34289 8.4078 5.86562 8.39849 5.85162C8.37815 5.82091 8.35051 5.79573 8.31806 5.77832C8.2856 5.76091 8.24934 5.75181 8.21251 5.75183H5.84239C5.81309 5.75183 5.78407 5.7576 5.75699 5.76881C5.72992 5.78002 5.70532 5.79646 5.68459 5.81718C5.66387 5.8379 5.64744 5.8625 5.63622 5.88958C5.62501 5.91666 5.61924 5.94567 5.61924 5.97498V6.3484C5.61924 6.41002 5.64422 6.4658 5.6846 6.50618C5.69745 6.51903 6.92327 7.73549 8.58826 9.38771L11.6353 9.12342Z" fill="url(#paint17_linear_19_1658)"/>
<path d="M8.18506 6.52955H5.81494C5.78564 6.52956 5.75662 6.52379 5.72954 6.51257C5.70247 6.50136 5.67787 6.48492 5.65714 6.4642C5.63642 6.44348 5.61998 6.41888 5.60877 6.3918C5.59756 6.36473 5.59179 6.33571 5.59179 6.3064V5.93299C5.59179 5.80973 5.69171 5.70984 5.81494 5.70984H8.18509C8.30834 5.70984 8.40824 5.80976 8.40824 5.93299V6.3064C8.40823 6.36559 8.38471 6.42235 8.34286 6.4642C8.30101 6.50604 8.24425 6.52955 8.18506 6.52955Z" fill="url(#paint18_linear_19_1658)"/>
<path d="M8.68467 1.71213C7.56879 1.23042 6.43015 1.23092 5.31536 1.71213C5.13583 1.78963 4.9268 1.72125 4.82992 1.55138L4.53677 1.03744C4.42411 0.839935 4.50825 0.589609 4.71608 0.497319C6.20914 -0.165732 7.79062 -0.165814 9.28395 0.497319C9.49178 0.589609 9.57592 0.839907 9.46326 1.03744L9.17011 1.55138C9.07321 1.72122 8.8642 1.78963 8.68467 1.71213Z" fill="url(#paint19_linear_19_1658)"/>
</g>
<defs>
<linearGradient id="paint0_linear_19_1658" x1="7" y1="0.260742" x2="7" y2="2.89148" gradientUnits="userSpaceOnUse">
<stop stop-color="#E6EEFF"/>
<stop offset="1" stop-color="#BAC8FA"/>
</linearGradient>
<linearGradient id="paint1_linear_19_1658" x1="9.96089" y1="2.34928" x2="9.32952" y2="1.77281" gradientUnits="userSpaceOnUse">
<stop stop-color="#A7B7F1" stop-opacity="0"/>
<stop offset="1" stop-color="#A7B7F1"/>
</linearGradient>
<linearGradient id="paint2_linear_19_1658" x1="4.20914" y1="2.61703" x2="4.20914" y2="3.18554" gradientUnits="userSpaceOnUse">
<stop stop-color="#FEE45A"/>
<stop offset="1" stop-color="#FEA613"/>
</linearGradient>
<linearGradient id="paint3_linear_19_1658" x1="9.79086" y1="2.61703" x2="9.79086" y2="3.18554" gradientUnits="userSpaceOnUse">
<stop stop-color="#FEE45A"/>
<stop offset="1" stop-color="#FEA613"/>
</linearGradient>
<linearGradient id="paint4_linear_19_1658" x1="2.81831" y1="13.4693" x2="2.81831" y2="13.8906" gradientUnits="userSpaceOnUse">
<stop stop-color="#5A5A5A"/>
<stop offset="1" stop-color="#444444"/>
</linearGradient>
<linearGradient id="paint5_linear_19_1658" x1="11.1817" y1="13.4693" x2="11.1817" y2="13.8906" gradientUnits="userSpaceOnUse">
<stop stop-color="#5A5A5A"/>
<stop offset="1" stop-color="#444444"/>
</linearGradient>
<linearGradient id="paint6_linear_19_1658" x1="4.9921" y1="5.9673" x2="10.9764" y2="13.7085" gradientUnits="userSpaceOnUse">
<stop stop-color="#C86D36"/>
<stop offset="1" stop-color="#883F2E"/>
</linearGradient>
<linearGradient id="paint7_linear_19_1658" x1="7.14195" y1="12.147" x2="7.14195" y2="9.24728" gradientUnits="userSpaceOnUse">
<stop stop-color="#883F2E" stop-opacity="0"/>
<stop offset="1" stop-color="#6D3326"/>
</linearGradient>
<linearGradient id="paint8_linear_19_1658" x1="4.21551" y1="4.38022" x2="11.1332" y2="8.55274" gradientUnits="userSpaceOnUse">
<stop stop-color="#C86D36"/>
<stop offset="1" stop-color="#883F2E"/>
</linearGradient>
<linearGradient id="paint9_linear_19_1658" x1="7" y1="6.69808" x2="7" y2="9.99404" gradientUnits="userSpaceOnUse">
<stop stop-color="#883F2E" stop-opacity="0"/>
<stop offset="1" stop-color="#6D3326"/>
</linearGradient>
<linearGradient id="paint10_linear_19_1658" x1="7" y1="11.9412" x2="7" y2="13.6266" gradientUnits="userSpaceOnUse">
<stop stop-color="#883F2E" stop-opacity="0"/>
<stop offset="1" stop-color="#6D3326"/>
</linearGradient>
<linearGradient id="paint11_linear_19_1658" x1="14.2901" y1="11.3733" x2="11.1333" y2="9.78113" gradientUnits="userSpaceOnUse">
<stop stop-color="#883F2E" stop-opacity="0"/>
<stop offset="1" stop-color="#6D3326"/>
</linearGradient>
<linearGradient id="paint12_linear_19_1658" x1="6.15942" y1="11.4402" x2="1.60256" y2="8.31075" gradientUnits="userSpaceOnUse">
<stop stop-color="#883F2E" stop-opacity="0"/>
<stop offset="1" stop-color="#6D3326"/>
</linearGradient>
<linearGradient id="paint13_linear_19_1658" x1="3.18431" y1="9.57131" x2="3.18431" y2="9.99233" gradientUnits="userSpaceOnUse">
<stop stop-color="#FEE45A"/>
<stop offset="1" stop-color="#FEA613"/>
</linearGradient>
<linearGradient id="paint14_linear_19_1658" x1="2.9644" y1="8.13325" x2="3.46766" y2="9.17639" gradientUnits="userSpaceOnUse">
<stop stop-color="#FEE45A"/>
<stop offset="1" stop-color="#FEA613"/>
</linearGradient>
<linearGradient id="paint15_linear_19_1658" x1="10.8157" y1="9.57131" x2="10.8157" y2="9.99233" gradientUnits="userSpaceOnUse">
<stop stop-color="#FEE45A"/>
<stop offset="1" stop-color="#FEA613"/>
</linearGradient>
<linearGradient id="paint16_linear_19_1658" x1="10.5958" y1="8.13325" x2="11.099" y2="9.17639" gradientUnits="userSpaceOnUse">
<stop stop-color="#FEE45A"/>
<stop offset="1" stop-color="#FEA613"/>
</linearGradient>
<linearGradient id="paint17_linear_19_1658" x1="9.3901" y1="9.00131" x2="7.16655" y2="5.40523" gradientUnits="userSpaceOnUse">
<stop stop-color="#883F2E" stop-opacity="0"/>
<stop offset="1" stop-color="#6D3326"/>
</linearGradient>
<linearGradient id="paint18_linear_19_1658" x1="7" y1="5.90952" x2="7" y2="6.4805" gradientUnits="userSpaceOnUse">
<stop stop-color="#E6EEFF"/>
<stop offset="1" stop-color="#BAC8FA"/>
</linearGradient>
<linearGradient id="paint19_linear_19_1658" x1="7" y1="0.255476" x2="7" y2="0.767464" gradientUnits="userSpaceOnUse">
<stop stop-color="#5A5A5A"/>
<stop offset="1" stop-color="#444444"/>
</linearGradient>
<clipPath id="clip0_19_1658">
<rect width="14" height="14" fill="white"/>
</clipPath>
</defs>
</svg>
