<svg width="25" height="26" viewBox="0 0 25 26" fill="none" xmlns="http://www.w3.org/2000/svg">
<path d="M5.33146 0H1.39425C1.02497 0.00035605 0.670912 0.147211 0.40979 0.408333C0.148668 0.669455 0.00181294 1.02351 0.00145689 1.39279C-0.0344052 2.18669 0.596319 2.85776 1.39425 2.85552H5.33146C7.17656 2.81517 7.17835 0.043931 5.33146 0ZM5.79587 1.46228C5.79587 1.72228 5.58697 1.92669 5.33146 1.92669H1.39425C0.777422 1.92983 0.775629 0.928828 1.39425 0.928379H5.33146C5.61701 0.926586 5.82501 1.18434 5.79587 1.46228ZM6.25984 3.85831H0.466319C0.210802 3.85831 0.00190514 4.06272 0.00190514 4.32228V8.18059C0.00190514 8.4361 0.210802 8.645 0.466319 8.645H6.26028C6.5158 8.645 6.7247 8.4361 6.7247 8.18059V4.32272C6.7247 4.06272 6.5158 3.85831 6.26028 3.85831H6.25984Z" fill="white"/>
<path d="M6.25984 9.64331H0.465879C0.20939 9.64331 0.00146484 9.85124 0.00146484 10.1077V13.9656C0.00146484 14.2221 0.20939 14.43 0.465879 14.43H6.25984C6.51633 14.43 6.72426 14.2221 6.72426 13.9656V10.1077C6.72426 9.85124 6.51633 9.64331 6.25984 9.64331Z" fill="white"/>
<path d="M6.25984 15.4283H0.465879C0.20939 15.4283 0.00146484 15.6363 0.00146484 15.8928V19.7506C0.00146484 20.0071 0.20939 20.215 0.465879 20.215H6.25984C6.51633 20.215 6.72426 20.0071 6.72426 19.7506V15.8928C6.72426 15.6363 6.51633 15.4283 6.25984 15.4283Z" fill="white"/>
<path d="M6.25984 21.2133H0.465879C0.20939 21.2133 0.00146484 21.4212 0.00146484 21.6777V25.5355C0.00146484 25.792 0.20939 25.9999 0.465879 25.9999H6.25984C6.51633 25.9999 6.72426 25.792 6.72426 25.5355V21.6777C6.72426 21.4212 6.51633 21.2133 6.25984 21.2133Z" fill="white"/>
<path d="M14.0226 0H10.0863C9.71702 0.000709562 9.36303 0.147635 9.10177 0.408642C8.84051 0.669649 8.69325 1.0235 8.69218 1.39279C8.65632 2.18669 9.29287 2.85776 10.0854 2.85552H14.0222C15.8673 2.81517 15.8695 0.043931 14.0226 0ZM14.487 1.46228C14.487 1.72228 14.2781 1.92669 14.0226 1.92669H10.0863C9.46949 1.92983 9.46725 0.928828 10.0863 0.928379H14.0231C14.3086 0.926586 14.5171 1.18434 14.4875 1.46228H14.487ZM14.9515 3.85831H9.15704C8.90152 3.85831 8.69263 4.06272 8.69263 4.32228V8.18059C8.69263 8.4361 8.90197 8.645 9.15704 8.645H14.9515C15.207 8.645 15.4159 8.4361 15.4159 8.18059V4.32272C15.4159 4.06272 15.207 3.85831 14.9515 3.85831Z" fill="white"/>
<path d="M14.9514 9.64331H9.15747C8.90098 9.64331 8.69305 9.85124 8.69305 10.1077V13.9656C8.69305 14.2221 8.90098 14.43 9.15747 14.43H14.9514C15.2079 14.43 15.4158 14.2221 15.4158 13.9656V10.1077C15.4158 9.85124 15.2079 9.64331 14.9514 9.64331Z" fill="white"/>
<path d="M22.7143 0H18.7771C16.9315 0.0434828 16.9302 2.81472 18.7771 2.85552H22.7143C24.5603 2.81786 24.5621 0.0407931 22.7143 0ZM23.1787 1.46228C23.1787 1.72228 22.9698 1.92669 22.7143 1.92669H18.7771C18.1602 1.92983 18.1585 0.928828 18.7771 0.928379H22.7143C22.9998 0.926586 23.2078 1.18434 23.1787 1.46228ZM23.6431 3.85831H17.8487C17.5932 3.85831 17.3843 4.06272 17.3843 4.32228V8.18059C17.3843 8.4361 17.5932 8.645 17.8487 8.645H23.6431C23.8986 8.645 24.1071 8.4361 24.1071 8.18059V4.32272C24.1071 4.06272 23.8982 3.85831 23.6431 3.85831Z" fill="white"/>
<path d="M23.6427 9.64331H17.8487C17.5922 9.64331 17.3843 9.85124 17.3843 10.1077V13.9656C17.3843 14.2221 17.5922 14.43 17.8487 14.43H23.6427C23.8991 14.43 24.1071 14.2221 24.1071 13.9656V10.1077C24.1071 9.85124 23.8991 9.64331 23.6427 9.64331Z" fill="white"/>
<path d="M23.6427 15.4283H17.8487C17.5922 15.4283 17.3843 15.6363 17.3843 15.8928V19.7506C17.3843 20.0071 17.5922 20.215 17.8487 20.215H23.6427C23.8991 20.215 24.1071 20.0071 24.1071 19.7506V15.8928C24.1071 15.6363 23.8991 15.4283 23.6427 15.4283Z" fill="white"/>
</svg>
