<svg width="37" height="33" viewBox="0 0 37 33" fill="none" xmlns="http://www.w3.org/2000/svg">
<path d="M18.9626 7.31032C18.8768 7.59786 19.0406 7.89995 19.3279 7.98562L19.4205 8.01326L19.4273 8.00548C19.6828 8.03226 19.9279 7.87391 20.0032 7.61993C20.6236 5.53529 22.5788 4.07851 24.7566 4.07851C25.0564 4.07851 25.2995 3.83535 25.2995 3.53554C25.2995 3.23572 25.0564 2.99258 24.7566 2.99258C22.0107 2.99258 19.7035 4.82079 18.9626 7.31032ZM18.9626 7.31032L19.1063 7.3532M18.9626 7.31032C18.9626 7.31035 18.9626 7.31038 18.9626 7.31041L19.1063 7.3532M19.1063 7.3532C19.0443 7.56119 19.1627 7.77984 19.3707 7.84187L19.1063 7.3532Z" fill="#483EA8" stroke="#F9FFF9" stroke-width="0.3"/>
<path d="M30.2583 22.7907H27.9006C27.6836 22.7907 27.5076 22.6147 27.5076 22.3978C27.5076 22.1808 27.6836 22.0048 27.9006 22.0048H30.2583C33.5083 22.0048 36.1527 19.3604 36.1527 16.1104C36.1527 12.8603 33.5083 10.216 30.2583 10.216H30.2016C30.0876 10.216 29.9793 10.1665 29.9046 10.0804C29.83 9.99421 29.7963 9.87997 29.8126 9.76713C29.8477 9.52237 29.8653 9.27649 29.8653 9.03707C29.8653 6.22039 27.5735 3.92854 24.7568 3.92854C23.661 3.92854 22.616 4.27098 21.7346 4.91908C21.5409 5.06139 21.2659 4.99824 21.1539 4.78519C18.6578 0.0320603 12.1381 -0.606237 8.75801 3.52857C7.33411 5.2705 6.77464 7.53648 7.22295 9.74498C7.27235 9.98889 7.08569 10.2163 6.83784 10.2163H6.68038C3.43033 10.2163 0.785961 12.8606 0.785961 16.1107C0.785961 19.3607 3.43033 22.0051 6.68038 22.0051H9.03812C9.25509 22.0051 9.43108 22.1811 9.43108 22.3981C9.43108 22.615 9.25509 22.791 9.03812 22.791H6.68038C2.9969 22.791 0 19.7941 0 16.1106C0 12.5305 2.83098 9.59898 6.3719 9.4373C6.03929 7.14603 6.67533 4.83486 8.14947 3.0312C11.7684 -1.39606 18.7037 -0.899826 21.6354 4.0369C22.5707 3.45054 23.6409 3.14294 24.7567 3.14294C28.1693 3.14294 30.8734 6.0475 30.6368 9.44097C34.1451 9.63773 36.9385 12.5538 36.9385 16.1104C36.9385 19.7941 33.9416 22.7907 30.2581 22.7907L30.2583 22.7907Z" fill="#483EA8"/>
<path d="M8.44375 22.176C8.44375 27.6759 12.9181 32.1501 18.4179 32.1501C23.9178 32.1501 28.3921 27.6758 28.3921 22.176C28.3921 16.676 23.9178 12.2018 18.4179 12.2018C12.918 12.2018 8.44375 16.6761 8.44375 22.176ZM9.52985 22.176C9.52985 17.2753 13.5172 13.2879 18.4179 13.2879C23.3186 13.2879 27.306 17.2752 27.306 22.176C27.306 27.0766 23.3186 31.064 18.4179 31.064C13.5172 31.064 9.52985 27.0767 9.52985 22.176Z" fill="#483EA8" stroke="#F9FFF9" stroke-width="0.3"/>
<path d="M18.1586 26.1308C18.1586 26.3725 18.3546 26.5685 18.5963 26.5685C18.8379 26.5685 19.034 26.3728 19.034 26.1308V18.6507C19.034 18.409 18.838 18.213 18.5963 18.213C18.3546 18.213 18.1586 18.409 18.1586 18.6507V26.1308Z" fill="#483EA8" stroke="#483EA8" stroke-width="0.3"/>
<path d="M18.5971 19.2705L16.6052 21.2624C16.6051 21.2624 16.6051 21.2625 16.6051 21.2625L16.6051 21.2625L18.5971 19.2705ZM18.5971 19.2705L20.5891 21.2625C20.6745 21.3479 20.7869 21.3907 20.8986 21.3907L18.5971 19.2705ZM21.2081 21.2625C21.3791 21.0916 21.3791 20.8145 21.2081 20.6435L18.9066 18.342C18.7357 18.1711 18.4584 18.1709 18.2875 18.3421L21.2081 21.2625ZM21.2081 21.2625C21.1225 21.3483 21.01 21.3907 20.8986 21.3907L21.2083 21.2623C21.2082 21.2624 21.2082 21.2625 21.2081 21.2625Z" fill="#483EA8" stroke="#483EA8" stroke-width="0.3"/>
</svg>
