<svg width="16" height="16" viewBox="0 0 16 16" fill="none" xmlns="http://www.w3.org/2000/svg">
<path fill-rule="evenodd" clip-rule="evenodd" d="M2 4.66675H4V6.00008H2V4.66675ZM2 10.0001H9.33333V11.3334H2V10.0001ZM6.66667 4.66675H14V6.00008H6.66667V4.66675ZM12 10.0001H14V11.3334H12V10.0001Z" fill="#68ADC7"/>
<path fill-rule="evenodd" clip-rule="evenodd" d="M7.33364 5.33339C7.33854 5.59907 7.29045 5.86305 7.19217 6.10992C7.0939 6.3568 6.94742 6.58162 6.76128 6.77125C6.57515 6.96087 6.35309 7.11151 6.10808 7.21436C5.86308 7.3172 5.60003 7.37019 5.33432 7.37024C5.0686 7.37028 4.80554 7.31738 4.5605 7.21461C4.31546 7.11185 4.09335 6.96129 3.90715 6.77172C3.72096 6.58216 3.5744 6.35739 3.47604 6.11054C3.37769 5.8637 3.32951 5.59973 3.33431 5.33406C3.34379 4.81004 3.55859 4.31067 3.9325 3.94341C4.30641 3.57614 4.80954 3.37033 5.33365 3.37024C5.85776 3.37015 6.36096 3.5758 6.73499 3.94294C7.10902 4.31008 7.32399 4.80937 7.33364 5.33339ZM6.00031 5.33339C6.00318 5.24412 5.98808 5.15518 5.95591 5.07185C5.92373 4.98852 5.87514 4.91251 5.81302 4.84833C5.7509 4.78415 5.67651 4.7331 5.59428 4.69823C5.51205 4.66336 5.42364 4.64536 5.33432 4.64532C5.245 4.64527 5.15658 4.66318 5.07431 4.69797C4.99205 4.73276 4.91761 4.78373 4.85542 4.84785C4.79324 4.91197 4.74457 4.98793 4.71231 5.07123C4.68006 5.15452 4.66487 5.24345 4.66764 5.33273C4.67303 5.50581 4.74555 5.67 4.86986 5.79055C4.99416 5.91111 5.16049 5.97856 5.33366 5.97865C5.50682 5.97874 5.67322 5.91144 5.79764 5.79101C5.92207 5.67058 5.99475 5.50647 6.00031 5.33339ZM12.667 10.6667C12.6719 10.9324 12.6238 11.1964 12.5255 11.4433C12.4272 11.6901 12.2807 11.915 12.0946 12.1046C11.9085 12.2942 11.6864 12.4448 11.4414 12.5477C11.1964 12.6505 10.9334 12.7035 10.6677 12.7036C10.4019 12.7036 10.1389 12.6507 9.89383 12.5479C9.64879 12.4452 9.42669 12.2946 9.24049 12.1051C9.05429 11.9155 8.90773 11.6907 8.80938 11.4439C8.71102 11.197 8.66284 10.9331 8.66764 10.6674C8.67713 10.1434 8.89193 9.64401 9.26583 9.27674C9.63974 8.90948 10.1429 8.70366 10.667 8.70357C11.1911 8.70348 11.6943 8.90913 12.0683 9.27627C12.4424 9.64341 12.6573 10.1427 12.667 10.6667ZM11.3336 10.6667C11.3365 10.5775 11.3214 10.4885 11.2892 10.4052C11.2571 10.3219 11.2085 10.2458 11.1464 10.1817C11.0842 10.1175 11.0098 10.0664 10.9276 10.0316C10.8454 9.99669 10.757 9.9787 10.6677 9.97865C10.5783 9.97861 10.4899 9.99651 10.4076 10.0313C10.3254 10.0661 10.2509 10.1171 10.1888 10.1812C10.1266 10.2453 10.0779 10.3213 10.0456 10.4046C10.0134 10.4879 9.9982 10.5768 10.001 10.6661C10.0064 10.8391 10.0789 11.0033 10.2032 11.1239C10.3275 11.2444 10.4938 11.3119 10.667 11.312C10.8401 11.3121 11.0066 11.2448 11.131 11.1243C11.2554 11.0039 11.3281 10.8398 11.3336 10.6667Z" fill="#68ADC7"/>
</svg>
