<svg width="12" height="10" viewBox="0 0 12 10" fill="none" xmlns="http://www.w3.org/2000/svg">
<path fill-rule="evenodd" clip-rule="evenodd" d="M0 1.66675H2V3.00008H0V1.66675ZM0 7.00008H7.33333V8.33341H0V7.00008ZM4.66667 1.66675H12V3.00008H4.66667V1.66675ZM10 7.00008H12V8.33341H10V7.00008Z" fill="#68ADC7"/>
<path fill-rule="evenodd" clip-rule="evenodd" d="M5.33364 2.33339C5.33854 2.59907 5.29045 2.86305 5.19217 3.10992C5.0939 3.3568 4.94742 3.58162 4.76128 3.77125C4.57515 3.96087 4.35309 4.11151 4.10808 4.21436C3.86308 4.3172 3.60003 4.37019 3.33432 4.37024C3.0686 4.37028 2.80554 4.31738 2.5605 4.21461C2.31546 4.11185 2.09335 3.96129 1.90715 3.77172C1.72096 3.58216 1.5744 3.35739 1.47604 3.11054C1.37769 2.8637 1.32951 2.59973 1.33431 2.33406C1.34379 1.81004 1.55859 1.31067 1.9325 0.943409C2.30641 0.576143 2.80954 0.370327 3.33365 0.370239C3.85776 0.370152 4.36096 0.575801 4.73499 0.942942C5.10902 1.31008 5.32399 1.80937 5.33364 2.33339ZM4.00031 2.33339C4.00318 2.24412 3.98808 2.15518 3.95591 2.07185C3.92373 1.98852 3.87514 1.91251 3.81302 1.84833C3.7509 1.78415 3.67651 1.7331 3.59428 1.69823C3.51205 1.66336 3.42364 1.64536 3.33432 1.64532C3.245 1.64527 3.15658 1.66318 3.07431 1.69797C2.99205 1.73276 2.91761 1.78373 2.85542 1.84785C2.79324 1.91197 2.74457 1.98793 2.71231 2.07123C2.68006 2.15452 2.66487 2.24345 2.66764 2.33273C2.67303 2.5058 2.74555 2.67 2.86986 2.79055C2.99416 2.91111 3.16049 2.97856 3.33366 2.97865C3.50682 2.97874 3.67322 2.91144 3.79764 2.79101C3.92207 2.67058 3.99475 2.50647 4.00031 2.33339ZM10.667 7.66673C10.6719 7.9324 10.6238 8.19638 10.5255 8.44326C10.4272 8.69013 10.2807 8.91495 10.0946 9.10458C9.90848 9.29421 9.68642 9.44484 9.44142 9.54769C9.19641 9.65054 8.93337 9.70353 8.66765 9.70357C8.40193 9.70362 8.13887 9.65071 7.89383 9.54795C7.64879 9.44518 7.42669 9.29462 7.24049 9.10505C7.05429 8.91549 6.90773 8.69072 6.80938 8.44388C6.71102 8.19703 6.66284 7.93307 6.66764 7.66739C6.67713 7.14337 6.89193 6.64401 7.26583 6.27674C7.63974 5.90948 8.14287 5.70366 8.66698 5.70357C9.19109 5.70348 9.69429 5.90913 10.0683 6.27627C10.4424 6.64342 10.6573 7.14271 10.667 7.66673ZM9.33364 7.66673C9.33651 7.57745 9.32141 7.48851 9.28924 7.40518C9.25706 7.32186 9.20847 7.24585 9.14635 7.18166C9.08423 7.11748 9.00984 7.06644 8.92761 7.03156C8.84538 6.99669 8.75698 6.9787 8.66766 6.97865C8.57833 6.97861 8.48991 6.99651 8.40765 7.0313C8.32538 7.0661 8.25094 7.11707 8.18876 7.18118C8.12657 7.2453 8.0779 7.32127 8.04565 7.40456C8.01339 7.48785 7.9982 7.57678 8.00098 7.66606C8.00637 7.83914 8.07889 8.00333 8.20319 8.12388C8.32749 8.24444 8.49383 8.3119 8.66699 8.31198C8.84015 8.31207 9.00655 8.24478 9.13097 8.12435C9.2554 8.00392 9.32808 7.8398 9.33364 7.66673Z" fill="#68ADC7"/>
</svg>
