<svg width="20" height="13" viewBox="0 0 20 13" fill="none" xmlns="http://www.w3.org/2000/svg">
<path d="M10.0009 9.54504C11.7014 9.54504 13.0799 8.16651 13.0799 6.466C13.0799 4.76549 11.7014 3.38696 10.0009 3.38696C8.30041 3.38696 6.92188 4.76549 6.92188 6.466C6.92188 8.16651 8.30041 9.54504 10.0009 9.54504Z" fill="#0B799D"/>
<path d="M19.6932 5.61308C17.3265 2.75304 13.7438 0 10 0C6.25555 0 2.67205 2.75497 0.306845 5.61308C-0.102282 6.10727 -0.102282 6.82469 0.306845 7.31887C0.901484 8.03744 2.14811 9.42455 3.8131 10.6365C8.00632 13.6891 11.9845 13.6958 16.187 10.6365C17.852 9.42455 19.0986 8.03744 19.6932 7.31887C20.1012 6.82565 20.1033 6.10889 19.6932 5.61308ZM10 2.15533C12.3771 2.15533 14.3107 4.08896 14.3107 6.46598C14.3107 8.84299 12.3771 10.7766 10 10.7766C7.62302 10.7766 5.68939 8.84299 5.68939 6.46598C5.68939 4.08896 7.62302 2.15533 10 2.15533Z" fill="#0B799D"/>
</svg>
